<svg width="53" height="55" viewBox="0 0 53 55" fill="none" xmlns="http://www.w3.org/2000/svg">
<path d="M48.0312 0H4.96875C2.22455 0 0 2.3085 0 5.15625V49.8438C0 52.6915 2.22455 55 4.96875 55H48.0312C50.7754 55 53 52.6915 53 49.8438V5.15625C53 2.3085 50.7754 0 48.0312 0ZM49.6875 33.6703L42.5822 26.2969C41.9361 25.6304 40.8929 25.6304 40.2469 26.2969L31.4688 35.3891L21.0509 24.5781C20.4049 23.9117 19.3617 23.9117 18.7156 24.5781L3.3125 40.5453V5.15625C3.3125 4.20696 4.05398 3.4375 4.96875 3.4375H48.0312C48.946 3.4375 49.6875 4.20696 49.6875 5.15625V33.6703Z" fill="#1A88E1"/>
<path d="M29.8125 8.59375C26.1536 8.59375 23.1875 11.6718 23.1875 15.4688C23.1875 19.2657 26.1536 22.3438 29.8125 22.3438C33.4714 22.3438 36.4375 19.2657 36.4375 15.4688C36.4375 11.6718 33.4714 8.59375 29.8125 8.59375ZM29.8125 18.9062C27.9831 18.9062 26.5 17.3672 26.5 15.4688C26.5 13.5703 27.9831 12.0312 29.8125 12.0312C31.6419 12.0312 33.125 13.5703 33.125 15.4688C33.125 17.3672 31.6419 18.9062 29.8125 18.9062Z" fill="#1A88E1"/>
</svg>
