<svg width="162" height="44" viewBox="0 0 162 44" fill="none" xmlns="http://www.w3.org/2000/svg">
<path d="M67.0513 14.63C62.8305 14.6224 58.6097 14.6224 54.3889 14.6148C54.2745 14.5845 54.2058 14.5087 54.1829 14.3875C54.1829 12.7281 54.1829 11.061 54.1905 9.40159C54.2745 9.03787 54.5645 9.0985 54.8164 9.0985C61.7848 9.0985 68.7533 9.0985 75.7218 9.0985C75.8744 9.0985 76.0423 9.05304 76.1416 9.21974L76.1034 9.18186C76.3934 10.0911 76.1568 11.0232 76.2255 11.9476C76.2102 12.1446 76.1186 12.3037 75.9584 12.4174L75.9736 12.4022C75.9584 12.4932 75.8897 12.5386 75.8286 12.5917L75.8362 12.5841C75.7218 12.7356 75.6683 12.9326 75.4928 13.0463L75.508 13.0236C75.4928 13.1145 75.4241 13.1675 75.3554 13.213L75.363 13.2054C75.2485 13.3646 75.1951 13.5616 75.0119 13.6676L75.0348 13.6449C75.0196 13.7358 74.9585 13.7889 74.8822 13.8344L74.8898 13.8268C74.7753 13.9859 74.7219 14.1829 74.5387 14.289L74.5616 14.2663C74.5464 14.3572 74.4853 14.4102 74.409 14.4557L74.4166 14.4481C74.3784 14.5163 74.3174 14.5618 74.2792 14.6224L74.2716 14.63C74.1647 14.6982 74.2105 14.8725 74.0655 14.9103L74.0884 14.8876C74.0808 14.9861 74.0121 15.0316 73.9358 15.0771L73.9434 15.0619C73.9129 15.1301 73.8442 15.1756 73.806 15.2362V15.2438C73.6992 15.312 73.7449 15.4862 73.5999 15.5241L73.6228 15.5014C73.6152 15.5999 73.5465 15.6454 73.4702 15.6908L73.4778 15.6756C73.4473 15.7438 73.3786 15.7969 73.3328 15.8575V15.8651C73.2259 15.9333 73.2717 16.1152 73.1191 16.1455L73.142 16.1227C73.1343 16.2212 73.0657 16.2743 72.9893 16.3197L72.997 16.3046C72.9664 16.3804 72.9054 16.4258 72.852 16.4864C72.7451 16.5546 72.7985 16.7365 72.6382 16.7668L72.6611 16.7441C72.6535 16.8426 72.5848 16.8956 72.5085 16.9411L72.5237 16.9259C72.4932 17.0017 72.4321 17.0472 72.3787 17.1078C72.2795 17.176 72.3253 17.3578 72.165 17.3881L72.1879 17.3654C72.1879 17.4639 72.1192 17.517 72.0353 17.5624L72.0505 17.5473C72.02 17.623 71.9589 17.6685 71.9055 17.7291C71.8063 17.8049 71.8521 17.9792 71.6918 18.0095L71.7147 17.9868C71.7147 18.0928 71.646 18.1383 71.5621 18.1838L71.5773 18.1686C71.5468 18.2444 71.4857 18.2974 71.4323 18.3505C71.3331 18.4262 71.3789 18.6081 71.2186 18.6308L71.2415 18.6081C71.2415 18.7142 71.1728 18.7672 71.0889 18.8051L71.1041 18.79C71.0736 18.8657 71.0125 18.9188 70.9591 18.9718C70.837 19.1158 70.7759 19.3128 70.6156 19.4265L70.6309 19.4113C70.608 19.4871 70.5393 19.5401 70.4859 19.5932C70.3638 19.7371 70.3027 19.9341 70.1424 20.0478L70.1577 20.0326C70.1348 20.116 70.0737 20.1615 70.0127 20.2145C69.8905 20.3585 69.8371 20.5555 69.6692 20.6692L69.6845 20.654C69.6616 20.7373 69.6005 20.7904 69.5394 20.8358C69.4173 20.9874 69.3639 21.1844 69.196 21.2981L69.2112 21.2829C69.1883 21.3663 69.1273 21.4193 69.0662 21.4724V21.4648C68.9441 21.6163 68.8907 21.8133 68.7228 21.927L68.738 21.9042C68.7151 21.9876 68.6541 22.0406 68.593 22.0937V22.0861C68.4785 22.2377 68.4175 22.4347 68.2496 22.5483L68.2648 22.5256C68.2496 22.6089 68.1809 22.662 68.1198 22.715L68.1274 22.7074C68.013 22.859 67.9595 23.056 67.784 23.1697L67.7992 23.1469C67.784 23.2379 67.7153 23.2833 67.6466 23.3364L67.6542 23.3288C67.5397 23.4879 67.4863 23.6849 67.3031 23.791L67.326 23.7683C67.3107 23.8592 67.2497 23.9123 67.1734 23.9577L67.181 23.9501C67.0665 24.1093 67.0131 24.3063 66.8299 24.4124L66.8528 24.3896C66.8375 24.4805 66.7765 24.5336 66.7002 24.5791L66.7078 24.5715C66.6009 24.7306 66.5399 24.9276 66.3567 25.0337L66.3796 25.011C66.372 25.1019 66.3033 25.1549 66.2269 25.2004L66.2346 25.1853C66.1964 25.2535 66.1354 25.2989 66.0972 25.3595L66.0896 25.3671C65.9827 25.4353 66.0285 25.6096 65.8835 25.6475L65.9064 25.6247C65.8987 25.7232 65.83 25.7687 65.7537 25.8142L65.7614 25.799C65.7308 25.8672 65.6621 25.9127 65.6163 25.9733V25.9809C65.5095 26.0491 65.5553 26.2309 65.4103 26.2612L65.4332 26.2385C65.4255 26.337 65.3568 26.3901 65.2805 26.4355L65.2881 26.4204C65.2576 26.4886 65.1966 26.5416 65.1431 26.6022V26.6098C65.0363 26.678 65.0821 26.8599 64.9294 26.8902L64.9523 26.8674C64.9447 26.9659 64.876 27.019 64.7997 27.0644L64.8149 27.0493C64.7844 27.1251 64.7233 27.1705 64.6699 27.2311C64.5707 27.2993 64.6165 27.4812 64.4562 27.5115L64.4791 27.4888C64.4791 27.5873 64.4104 27.6403 64.3264 27.6858L64.3417 27.6706C64.3112 27.7464 64.2501 27.7919 64.1967 27.8525C64.0975 27.9207 64.1433 28.1025 63.983 28.1328L64.0059 28.1101C64.0059 28.2162 63.9372 28.2617 63.8532 28.3071L63.8685 28.292C63.838 28.3678 63.7769 28.4208 63.7235 28.4738C63.6243 28.5496 63.67 28.7315 63.5098 28.7542L63.5327 28.7315C63.5327 28.8375 63.464 28.883 63.38 28.9285L63.3953 28.9133C63.3648 28.9891 63.3037 29.0421 63.2503 29.0952C63.151 29.171 63.1968 29.3528 63.0366 29.3755L63.0595 29.3528C63.0671 29.4589 62.9908 29.5119 62.9068 29.5498L62.9221 29.5347C62.8915 29.6104 62.8305 29.6635 62.7771 29.7165C62.6244 30.1712 62.9602 30.103 63.2045 30.103C63.8303 30.1105 64.4562 30.103 65.0821 30.103C68.4785 30.103 71.875 30.103 75.2714 30.103C75.5538 30.103 75.8362 30.0727 76.195 30.1712C76.2026 31.9367 76.2026 33.6871 76.195 35.5511C68.6541 35.5511 61.1666 35.5511 53.6791 35.5511C53.3509 35.4677 53.4425 35.1874 53.4349 34.9752C53.4273 34.3539 53.4272 33.7249 53.4272 33.1036C53.4272 33.0202 53.4272 32.9445 53.4272 32.8611C53.4272 32.7475 53.4425 32.6338 53.4883 32.5277C53.5188 32.4671 53.5494 32.3989 53.5799 32.3383C53.6181 32.2777 53.6486 32.2246 53.6944 32.1716C53.7173 32.1489 53.7402 32.1261 53.7631 32.1034C53.8623 32.0276 53.9768 31.967 54.0378 31.8458C54.0531 31.7852 54.076 31.7321 54.0989 31.6715C54.1294 31.6184 54.1676 31.573 54.221 31.5351C54.2439 31.5199 54.2745 31.5048 54.2974 31.4896C54.389 31.4139 54.4653 31.3153 54.5111 31.2093C54.5263 31.1486 54.5492 31.0956 54.5721 31.0425C54.6027 30.9895 54.6408 30.9516 54.6942 30.9137C54.7171 30.8986 54.7477 30.8834 54.7706 30.8683C54.8622 30.7925 54.9385 30.7016 54.9843 30.5879C54.9995 30.5273 55.0148 30.4743 55.0453 30.4212C55.0759 30.3682 55.114 30.3303 55.1675 30.2924C55.1904 30.2772 55.2209 30.2621 55.2438 30.2469C55.3354 30.1712 55.4117 30.0802 55.4575 29.9666C55.4728 29.906 55.488 29.8529 55.5185 29.7999C55.5414 29.7468 55.572 29.6938 55.6101 29.6483C55.633 29.6256 55.6559 29.6104 55.6788 29.5877C55.7781 29.5195 55.8773 29.4589 55.9307 29.3376C55.946 29.277 55.9612 29.224 55.9918 29.1709C56.0147 29.1179 56.0452 29.0649 56.0834 29.0194C56.1063 28.9967 56.1292 28.9815 56.1521 28.9588C56.2513 28.8906 56.3505 28.83 56.4039 28.7163C56.4192 28.6557 56.4421 28.6027 56.465 28.5496C56.4879 28.4966 56.5184 28.4435 56.5566 28.3981C56.5795 28.3753 56.6024 28.3602 56.6253 28.3374C56.7245 28.2693 56.8237 28.2086 56.8771 28.095C56.8924 28.0343 56.9153 27.9813 56.9382 27.9283C56.9611 27.8752 56.9916 27.8222 57.0298 27.7767C57.0527 27.754 57.0756 27.7388 57.0985 27.7161C57.1977 27.6479 57.2969 27.5873 57.3504 27.4736C57.3656 27.413 57.3885 27.36 57.4114 27.3069C57.4343 27.2539 57.4725 27.2008 57.503 27.1554C57.5259 27.1326 57.5488 27.1175 57.5717 27.0947C57.6709 27.0266 57.7701 26.9659 57.8236 26.8523C57.8388 26.7916 57.8617 26.7386 57.8846 26.6856C57.9075 26.6325 57.9457 26.5795 57.9762 26.534C57.9991 26.5113 58.022 26.4961 58.0449 26.4734C58.1441 26.4052 58.2434 26.3446 58.2968 26.2309C58.312 26.1703 58.3349 26.1173 58.3578 26.0642C58.3807 26.0112 58.4189 25.9581 58.4494 25.9127C58.4723 25.8899 58.4952 25.8748 58.5181 25.8521C58.6174 25.7839 58.7166 25.7232 58.77 25.6096C58.7853 25.549 58.8005 25.4959 58.831 25.4429C58.8539 25.3898 58.8845 25.3368 58.9227 25.2913C58.9455 25.2686 58.9684 25.2535 58.9913 25.2307C59.0906 25.1625 59.1898 25.1019 59.2432 24.9882C59.2585 24.9276 59.2737 24.8746 59.3043 24.8215C59.3272 24.7685 59.3577 24.7155 59.3959 24.67C59.4188 24.6473 59.4417 24.6321 59.4646 24.6094C59.5638 24.5412 59.663 24.4806 59.7164 24.3669C59.7317 24.3138 59.747 24.2532 59.7698 24.2002C59.7927 24.1471 59.8233 24.1017 59.8614 24.0487C59.8843 24.0259 59.8996 24.0108 59.9225 23.988C60.0141 23.9198 60.1133 23.8744 60.1744 23.7683C60.1896 23.7153 60.2049 23.6622 60.2202 23.6092C60.2431 23.5637 60.266 23.5106 60.2889 23.4652C60.3041 23.4424 60.3194 23.4197 60.3346 23.4046C60.3652 23.3667 60.4033 23.3212 60.4339 23.2833L60.4873 23.2227C60.5331 23.1621 60.6018 23.1166 60.64 23.0484C60.6629 23.003 60.6857 22.9575 60.7163 22.9196C60.7392 22.8741 60.7697 22.8287 60.8002 22.7908C60.8002 22.7908 60.8537 22.7302 60.846 22.7302C60.8766 22.6923 60.9071 22.6468 60.9453 22.609C60.9453 22.609 60.9987 22.5559 60.9987 22.5483C61.0369 22.518 61.075 22.4801 61.0979 22.4347C61.1208 22.3892 61.1513 22.3437 61.1819 22.2983C61.2048 22.2528 61.2353 22.2073 61.2658 22.1619C61.2811 22.1391 61.2963 22.124 61.3116 22.1013C61.3421 22.0558 61.3803 22.0179 61.4108 21.98C61.4261 21.9573 61.449 21.9421 61.4643 21.9194C61.5024 21.8815 61.5406 21.8436 61.5711 21.8058C61.6017 21.7603 61.6322 21.7224 61.6703 21.6769C61.7085 21.639 61.739 21.5936 61.7696 21.5481C61.7848 21.5254 61.8001 21.5026 61.8154 21.4799C61.8459 21.4345 61.8764 21.389 61.9146 21.3511C61.9375 21.3284 61.9528 21.3132 61.9756 21.2905C62.0443 21.2374 62.0978 21.1768 62.1894 21.1541L62.1817 21.1617C62.197 21.1011 62.2123 21.0404 62.2352 20.9874C62.2504 20.9571 62.2657 20.9344 62.2733 20.904C62.3038 20.851 62.3496 20.8055 62.3954 20.7676C62.4183 20.7525 62.4489 20.7298 62.4718 20.7146C62.5405 20.654 62.5633 20.5479 62.6626 20.5252L62.6397 20.5403C62.6473 20.4418 62.716 20.3964 62.7923 20.3509L62.7847 20.3585C62.8229 20.2827 62.861 20.2069 62.9144 20.1387C62.9984 20.0705 63.006 19.9341 63.1358 19.8962L63.1129 19.9114C63.1205 19.8129 63.1892 19.7599 63.2655 19.7144L63.2579 19.722C63.2961 19.6462 63.3342 19.5704 63.3876 19.5022C63.4716 19.434 63.4792 19.2901 63.609 19.2598L63.5861 19.2749C63.5937 19.1764 63.6624 19.1234 63.7388 19.0779L63.7311 19.0855C63.7693 19.0097 63.8074 18.9339 63.8609 18.8657C63.9448 18.7975 63.9525 18.6536 64.0822 18.6233L64.0593 18.6384C64.0669 18.5399 64.1356 18.4869 64.212 18.4414L64.2043 18.449C64.2425 18.3732 64.2807 18.2974 64.3341 18.2292C64.418 18.161 64.4257 18.0171 64.5554 17.9868L64.5402 17.9943C64.5478 17.9337 64.5631 17.8731 64.5859 17.8201C64.6012 17.7897 64.6089 17.767 64.6241 17.7367C64.6547 17.6837 64.6852 17.6306 64.7233 17.5852C64.7462 17.5624 64.7691 17.5397 64.792 17.517C64.8607 17.4563 64.9294 17.3957 65.021 17.3654L65.0134 17.373C65.021 17.3124 65.0363 17.2517 65.0592 17.1987C65.0744 17.1684 65.0821 17.1457 65.0973 17.1154C65.1279 17.0623 65.1584 17.0093 65.1966 16.9562C65.2195 16.9335 65.2424 16.9108 65.2653 16.888C65.3339 16.8274 65.4026 16.7668 65.4942 16.7441L65.4637 16.7213L65.4942 16.7516C65.5019 16.691 65.5171 16.6304 65.54 16.5774C65.5553 16.547 65.5629 16.5243 65.5782 16.494C65.6087 16.441 65.6392 16.3879 65.6774 16.3349C65.7003 16.3122 65.7232 16.2894 65.7461 16.2667C65.8148 16.2061 65.8835 16.1455 65.9751 16.1227L65.9445 16.0924L65.9751 16.1227C65.9827 16.0621 65.998 16.0015 66.0209 15.9484C66.0361 15.9181 66.0438 15.8954 66.059 15.8651C66.0895 15.812 66.1201 15.759 66.1582 15.706C66.1811 15.6832 66.204 15.6605 66.2269 15.6378C66.2956 15.5772 66.3643 15.5165 66.4559 15.4938L66.4177 15.4635L66.4483 15.4938C66.4483 15.4408 66.4635 15.3801 66.4864 15.3271C66.4941 15.3044 66.5093 15.274 66.517 15.2513C66.5475 15.2059 66.578 15.1604 66.6238 15.1225C66.6467 15.1074 66.6696 15.0922 66.6925 15.0771C66.7994 15.0316 66.807 14.88 66.9291 14.8649L66.9062 14.88C66.9062 14.7739 66.9749 14.7285 67.0589 14.683L67.0513 14.6906C67.1123 14.7436 67.1047 14.683 67.0513 14.63Z" fill="#1A88E1"/>
<path d="M141.965 35.1219C141.965 30.0754 141.965 25.0213 141.965 19.9748C142.056 19.6717 142.308 19.702 142.537 19.702C148.895 19.702 155.253 19.702 161.611 19.702C161.725 19.702 161.817 19.7323 161.885 19.8232L161.855 19.7929C162.084 20.0051 161.969 20.2855 161.969 20.5279C161.985 21.8009 161.985 23.0739 161.969 24.3394C161.969 24.5818 162.084 24.8622 161.855 25.0743L161.885 25.0365C161.641 25.2714 161.336 25.1501 161.069 25.1501C157.039 25.1577 153.009 25.1577 148.979 25.1577C148.696 25.1577 148.406 25.1122 148.002 25.2411C148.04 26.7186 147.903 28.2265 148.086 29.742L148.093 29.7496C148.361 29.9087 148.658 29.8254 148.941 29.833C152.971 29.8405 157.001 29.8329 161.031 29.8405C161.313 29.8405 161.603 29.8178 161.969 29.8936C162 31.6743 161.977 33.4474 161.985 35.175C161.672 35.3341 161.427 35.2887 161.198 35.2887C155.024 35.2887 148.849 35.2962 142.674 35.2811C142.43 35.2811 142.133 35.4402 141.965 35.1219Z" fill="#1A88E1"/>
<path d="M141.965 17.8178C141.965 15.2566 141.965 12.6879 141.965 10.1267C142.064 9.83122 142.308 9.85394 142.545 9.85394C148.918 9.85394 155.283 9.84636 161.656 9.85394C161.74 9.85394 161.809 9.89185 161.878 9.92216C162.084 11.4604 161.924 12.9985 161.954 14.5443C161.962 14.8171 162.122 15.1581 161.794 15.3854C157.214 15.34 152.642 15.2642 148.063 15.4233C147.865 16.2265 148.086 17.06 147.933 17.9011C147.231 18.0375 146.536 17.9466 145.85 17.9617C144.758 17.9769 143.667 17.9769 142.583 17.9617C142.384 17.9542 142.125 18.083 141.965 17.8178Z" fill="#3F0A96"/>
<path d="M30.8125 5.19146C31.9116 6.22956 33.0107 7.26766 34.1097 8.31334C34.1632 8.36638 34.2166 8.41941 34.27 8.47246C34.4227 8.64674 34.5753 8.8286 34.6669 9.04834C35.6591 11.2837 35.5523 13.5645 34.7585 15.8074C33.8731 18.3155 32.0719 20.1189 29.8279 21.4677C26.8818 23.2408 23.6303 24.1728 20.2644 24.7411C19.9515 24.7941 19.6538 24.8775 19.3485 24.9305C16.4558 25.2639 13.5554 25.3397 10.6551 24.9987C9.9071 24.9078 9.17438 24.7411 8.44929 24.5365C8.22031 24.5365 8.0295 24.3774 7.81579 24.3471C7.7242 24.3167 7.85395 24.3698 7.76236 24.3319C7.68603 24.3016 7.68603 24.294 7.73946 24.3319C7.87685 24.3698 8.02186 24.3849 8.14398 24.4683C9.89182 24.9002 11.6015 25.4912 13.3951 25.7413C13.6241 25.7716 13.8531 25.8474 14.0439 25.9989C14.311 26.2717 14.3797 26.6354 14.4866 26.9764C14.7843 27.9463 15.0972 28.9086 15.5933 29.7952C17.158 32.6215 19.7835 33.8794 22.7984 34.5007C24.1264 34.7735 25.485 34.8644 26.836 34.6295C30.6904 34.0309 33.8579 32.1366 36.6437 29.5224C36.949 29.2345 37.2238 28.9238 37.5444 28.6586C37.7199 28.5146 37.9183 28.31 38.1626 28.4388C38.445 28.5828 38.3992 28.8783 38.3534 29.1284C38.2008 30.0831 37.8955 30.9848 37.4528 31.8411C37.3001 32.1366 37.1551 32.4473 36.949 32.7125C36.8727 32.8868 36.72 32.9928 36.5979 33.1292C36.4529 33.2732 36.2926 33.4172 36.1476 33.5611C35.102 34.6523 34.0563 35.7434 33.0107 36.8346C32.9496 36.9028 32.9191 37.0013 32.8504 37.0619C32.7588 37.1528 32.6748 37.2513 32.5985 37.3574C32.5603 37.4104 32.5222 37.4635 32.4764 37.5165C32.423 37.562 32.3695 37.6074 32.3085 37.6453C32.1177 37.7666 31.9803 37.956 31.7589 38.0318C29.6829 39.4336 27.3702 40.1762 24.9049 40.4944C21.4322 40.9415 18.0968 40.4111 14.8758 39.085C14.2958 38.8501 13.7157 38.6077 13.2349 38.1909C12.9296 38.0469 12.6777 37.8272 12.4258 37.615C12.3648 37.5771 12.3037 37.5468 12.2426 37.5089C12.1511 37.4559 12.0671 37.3953 11.9984 37.3195C11.9068 37.221 11.8 37.1301 11.7007 37.0316C11.5862 36.9027 11.4641 36.7815 11.342 36.6679C10.7161 36.0465 10.0826 35.4176 9.45677 34.7963C9.31939 34.7053 9.19728 34.5992 9.05989 34.5083C8.92251 34.4022 8.80039 34.2886 8.67827 34.1749C8.35007 33.8794 8.09056 33.5233 7.80052 33.1899C6.27402 30.7196 5.51078 28.0145 5.44209 25.1427C5.41919 24.1955 5.22837 23.5817 4.24378 23.2786C3.45 23.0362 2.76308 22.5133 2.09905 22.0056C1.83191 21.8011 1.53424 21.6116 1.52661 21.2176C1.56477 21.0282 1.69452 20.9372 1.87007 20.8842C2.8165 20.7933 3.64844 21.2328 4.54144 21.4146C5.48787 21.6116 5.45735 21.6344 5.62527 20.7023C6.93806 13.4584 10.968 8.32851 17.7457 5.34302C20.6765 4.05487 23.7677 3.6381 26.9428 3.83511C27.9121 3.89573 28.8586 4.1079 29.7592 4.47919C29.8584 4.52465 29.9653 4.5777 30.0493 4.65348C30.2172 4.83534 30.4614 4.91109 30.6675 5.03991C30.7133 5.10053 30.7591 5.146 30.8125 5.19146Z" fill="#FEFEFE"/>
<path d="M7.99178 24.1805C11.7241 24.8852 15.4869 24.8473 19.2497 24.4912C22.3638 24.1653 25.4244 23.5667 28.4011 22.5741C30.6527 21.8239 32.7363 20.7479 34.4994 19.1567C36.3007 17.5276 37.4303 15.5347 37.6669 13.0872C37.6975 12.7387 37.6364 12.3371 38.0409 12.1249C38.1325 12.1173 38.2012 12.1476 38.247 12.231L38.2317 12.2158C38.3233 12.2386 38.3767 12.2992 38.4149 12.3825L38.3997 12.3674C38.4836 12.3977 38.5447 12.4583 38.5752 12.5341L38.5676 12.5189C38.621 12.5417 38.6668 12.5644 38.7202 12.5795C38.7431 12.5871 38.7736 12.6023 38.7965 12.6099C38.85 12.6326 38.8958 12.6629 38.9492 12.6856C38.9721 12.7008 38.995 12.7235 39.0179 12.7387C39.0637 12.7766 39.1095 12.8144 39.1476 12.8599C39.1705 12.8826 39.1934 12.8978 39.2163 12.9205C39.2621 12.9584 39.3079 13.0039 39.3537 13.0418C39.3766 13.0645 39.3995 13.0872 39.4224 13.1024C39.4758 13.1479 39.514 13.1933 39.5598 13.2464C39.5827 13.2767 39.5979 13.2994 39.6208 13.3297C39.8422 13.7843 40.2925 14.0344 40.5902 14.4208L40.5673 14.3981C40.6818 14.3981 40.7352 14.4663 40.7505 14.5724L40.7276 14.5497C40.8344 14.5572 40.8878 14.6178 40.9107 14.7239L40.8878 14.7012C40.9871 14.7164 41.0405 14.777 41.071 14.8755L41.0481 14.8528C41.1397 14.8755 41.2008 14.9361 41.2237 15.027L41.2008 15.0119C41.2924 15.0346 41.3534 15.0952 41.3763 15.1862L41.3534 15.1634C41.445 15.1937 41.5061 15.2468 41.5213 15.3453L41.4984 15.3226C41.5977 15.3453 41.6664 15.3983 41.6664 15.5044L41.6435 15.4893C41.7808 15.5271 41.8114 15.6711 41.9259 15.7317C41.9793 15.762 42.0327 15.7999 42.0785 15.8454C42.1243 15.8909 42.1548 15.9439 42.1854 15.9969C42.2159 16.05 42.2312 16.1106 42.2464 16.1712C42.2998 16.3152 42.4067 16.4288 42.4601 16.5728L42.4525 16.5577C42.5517 16.6183 42.5746 16.7471 42.6586 16.8229C42.712 16.8911 42.7578 16.9593 42.7502 17.0502L42.7349 17.035C42.8952 17.0881 42.8647 17.2472 42.9105 17.3609L42.8952 17.3381C43.0478 17.4063 43.0173 17.5503 43.0631 17.6715L43.0555 17.664C43.1165 17.6715 43.1623 17.7018 43.1929 17.7549C43.2387 17.8307 43.2616 17.914 43.2844 17.9898C43.3073 18.0428 43.3379 18.0959 43.3608 18.1413C43.4142 18.2474 43.4981 18.3308 43.5363 18.4444C43.5516 18.505 43.5516 18.5581 43.5516 18.6187C43.5669 18.7627 43.4295 18.8991 43.5516 19.043V19.0355C43.7271 19.2173 43.5516 19.4825 43.7042 19.672V19.6644C43.9027 19.9826 43.7042 20.3539 43.8569 20.6798L43.8263 20.7176L43.8569 20.7555C43.9714 20.854 43.9637 20.9828 43.9561 21.1192C43.9103 21.4148 44.0401 21.7254 43.8721 22.0058C43.8721 22.0816 43.8645 22.1649 43.8645 22.2407C43.7042 22.5589 43.9179 22.9378 43.7119 23.2485L43.6737 23.2788L43.6966 23.3167C43.6127 23.491 43.689 23.7031 43.5592 23.8623L43.5211 23.9001L43.5363 23.9456C43.4371 24.1123 43.5592 24.3472 43.3684 24.476L43.376 24.4533C43.3226 24.567 43.3379 24.6958 43.2463 24.7943C43.0936 24.9079 43.2539 25.158 43.0555 25.2489L43.0707 25.2262C43.0173 25.3398 43.0402 25.4838 42.9105 25.5596L42.9181 25.5444C42.857 25.6505 42.8876 25.8096 42.7425 25.8703L42.7578 25.8551C42.6967 26.0445 42.5899 26.2037 42.4601 26.3476L42.4678 26.3401C42.3838 26.431 42.4296 26.6052 42.2617 26.6356L42.2846 26.6128C42.2846 26.7113 42.2159 26.7644 42.1396 26.8098L42.1472 26.7947C42.1167 26.8629 42.0556 26.9159 42.0022 26.9765V26.9841C41.8648 27.1129 41.8266 27.3251 41.6435 27.4236L41.6664 27.4009C41.6435 27.4918 41.5824 27.5524 41.4984 27.5827L41.5137 27.5676C41.4832 27.6509 41.4221 27.704 41.3458 27.7419L41.3611 27.7267C41.3229 27.8025 41.2695 27.8555 41.1931 27.901L41.2008 27.8934C41.1626 27.9616 41.1016 28.0146 41.0405 28.0601L41.0481 28.0525C41.0023 28.1207 40.9489 28.1738 40.8878 28.2192L40.8955 28.2117C40.8497 28.2723 40.7963 28.3253 40.7428 28.3784C40.6894 28.4314 40.636 28.4844 40.5902 28.5375C40.2543 28.9845 39.8346 29.3558 39.4377 29.7499L39.4606 29.7271C39.4529 29.8332 39.3919 29.8938 39.285 29.909L39.3079 29.8863C39.2926 29.9848 39.2316 30.0454 39.1324 30.0681L39.1553 30.0454C39.1324 30.1363 39.0713 30.1969 38.9797 30.2272L38.995 30.2121C38.9721 30.303 38.911 30.3561 38.8271 30.3864L38.8423 30.3712C38.8118 30.4546 38.7507 30.5076 38.6744 30.5455L38.6897 30.5303C38.6515 30.6061 38.5981 30.6667 38.5218 30.7046L38.537 30.6895C38.4989 30.7577 38.4378 30.8183 38.3767 30.8562L38.3844 30.8486C38.3462 30.9168 38.2852 30.9698 38.2241 31.0153L38.2317 31.0077C38.1859 31.0683 38.1325 31.1214 38.0715 31.1744C38.0257 31.2275 37.9646 31.2805 37.9188 31.3335C37.583 31.7882 37.1708 32.1595 36.7663 32.5459L36.7816 32.5232C36.7663 32.599 36.7205 32.6444 36.6442 32.6596C36.5679 32.6596 36.5068 32.6368 36.4534 32.5838C37.1937 31.2426 37.7585 29.8484 37.9341 28.1207C34.6979 31.4775 31.1869 34.0311 26.5693 34.6373C23.9208 34.6979 21.715 33.5916 19.7458 31.9624C18.2193 30.697 17.4561 28.9694 16.9218 27.1205C16.647 26.1658 16.6318 26.1734 15.6319 26.1355C14.9984 26.1052 14.3191 26.3249 13.7314 25.8854C11.6325 25.6126 9.59461 25.0974 7.63306 24.2866C7.66359 24.0365 7.83913 24.135 7.99178 24.1805Z" fill="#1A88E1"/>
<path d="M29.8125 4.63642C19.7758 1.74187 8.4339 8.70548 6.12889 19.185C5.93808 20.0412 5.81595 20.9126 5.64804 21.8673C4.38104 21.5567 3.15222 21.2536 1.92339 20.9505C1.75547 20.9278 1.51886 20.7914 1.55702 21.1475C2.52635 22.0871 3.67886 22.7312 4.93059 23.2086C5.45723 23.4056 5.63278 23.6859 5.63278 24.2315C5.64041 27.3988 6.40366 30.3767 8.02938 33.1197C8.07518 33.2561 7.99885 33.3243 7.88436 33.3698C7.80041 33.3698 7.74698 33.3319 7.70882 33.2561L7.72408 33.2789C7.64012 33.2486 7.57906 33.188 7.54853 33.1046L7.5638 33.1197C7.47984 33.0894 7.42641 33.0288 7.38825 32.953L7.40351 32.9682C7.32719 32.9303 7.27376 32.8773 7.22797 32.8015L7.24324 32.8167C7.17455 32.7788 7.11348 32.7182 7.07532 32.65L7.08295 32.6575C7.01426 32.6121 6.96083 32.559 6.91503 32.4984L6.92267 32.506C6.86161 32.4605 6.80819 32.4075 6.75476 32.3469L6.76239 32.3544C6.70133 32.309 6.65553 32.2559 6.6021 32.2029C6.54867 32.1498 6.50288 32.0968 6.44182 32.0513C6.39603 31.9983 6.3426 31.9452 6.28918 31.9074L6.28154 31.8998C5.89228 31.6043 5.56409 31.2481 5.21299 30.9147L5.23589 30.9375C5.13667 30.9147 5.08323 30.8541 5.0527 30.7632L5.0756 30.7859C4.98401 30.7632 4.92296 30.7026 4.89243 30.6116L4.91532 30.6344C4.82373 30.6041 4.77031 30.5359 4.73978 30.4525C3.27434 28.9825 1.65625 27.6413 0.839575 25.656C0.64113 25.55 0.786143 25.315 0.656391 25.1787L0.664019 25.1862C0.519002 25.0726 0.602964 24.8453 0.442682 24.7392C0.412152 24.6786 0.404517 24.6104 0.404517 24.5422C0.41215 24.3679 0.412148 24.2012 0.343456 24.0345C0.373986 23.9966 0.36635 23.9663 0.328188 23.9436C0.12211 23.5798 0.351095 23.1631 0.18318 22.7994C0.21371 22.7615 0.21371 22.7312 0.18318 22.6933C-0.06106 22.3826 -0.06106 22.0644 0.18318 21.7537C0.21371 21.7234 0.221342 21.6931 0.18318 21.6552C0.351095 21.2915 0.122118 20.8672 0.335827 20.511L0.328188 20.5186C0.48847 20.3291 0.305299 20.0639 0.480847 19.8821C0.519009 19.8594 0.526633 19.8291 0.496103 19.7987C0.595326 19.632 0.473207 19.4047 0.664019 19.2683L0.656391 19.291C0.717451 19.185 0.70218 19.0486 0.79377 18.9501C0.94642 18.8364 0.793774 18.5939 0.976954 18.4878L0.969326 18.503C1.03039 18.3969 1.00748 18.2529 1.1296 18.1696L1.12197 18.1848C1.19067 18.0863 1.16777 17.9347 1.28989 17.8589L1.28225 17.8741C1.35094 17.768 1.32042 17.6089 1.46543 17.5558L1.44254 17.5786C1.4578 17.4876 1.51887 17.4422 1.57993 17.3816C1.64099 17.3134 1.65624 17.2224 1.66387 17.1315C1.67914 17.0709 1.70967 17.0178 1.74783 16.9724C1.78599 16.9269 1.8318 16.889 1.87759 16.8435C1.90049 16.8208 1.92339 16.8057 1.94628 16.7829C2.06077 16.6844 2.11419 16.5329 2.25158 16.4495L2.22868 16.4647C2.25158 16.3738 2.31265 16.3207 2.38897 16.2828L2.3737 16.2904C2.40423 16.245 2.42713 16.1919 2.44239 16.1389C2.45002 16.1161 2.4653 16.0858 2.47293 16.0631C2.49583 16.01 2.52635 15.9646 2.54925 15.9115C2.56451 15.8888 2.58741 15.8661 2.60268 15.8434C2.64084 15.7979 2.67901 15.7524 2.7248 15.7145C2.7477 15.6918 2.76295 15.6691 2.78585 15.6463C2.82401 15.6009 2.86982 15.5554 2.91561 15.5099C2.93851 15.4872 2.96141 15.4645 2.9843 15.4418C3.0301 15.3963 3.09115 15.3584 3.14458 15.3357C3.17511 15.3205 3.20565 15.3054 3.23618 15.2902C3.57964 15.0401 3.82388 14.6992 4.12918 14.4264L4.10628 14.4491C4.12155 14.3506 4.1826 14.2976 4.28183 14.2672L4.25893 14.29C4.28183 14.1991 4.34288 14.1384 4.43447 14.1081L4.41158 14.1309C4.44211 14.0399 4.50316 13.9869 4.58712 13.9566L4.57186 13.9717C4.60239 13.8884 4.66346 13.8353 4.73978 13.7975L4.72451 13.8126C4.76267 13.7368 4.8161 13.6762 4.89243 13.6383L4.87716 13.6459C4.90769 13.6004 4.93058 13.5474 4.94585 13.502C4.95348 13.4792 4.96875 13.4489 4.97639 13.4262C4.99928 13.3731 5.02217 13.3277 5.0527 13.2822C5.06797 13.2595 5.09087 13.2367 5.10614 13.214C5.1443 13.1685 5.18246 13.1307 5.22062 13.0928C5.24352 13.07 5.25878 13.0549 5.28168 13.0321C5.31984 12.9867 5.35801 12.9488 5.4038 12.9109C5.4267 12.8882 5.44197 12.8654 5.46486 12.8503C5.50303 12.8048 5.54883 12.7593 5.58699 12.7215C5.60989 12.6987 5.63278 12.676 5.65568 12.6533C5.70147 12.6078 5.76253 12.5775 5.81595 12.5472C5.84648 12.532 5.87702 12.5169 5.90755 12.5017C6.24338 12.2517 6.48762 11.9107 6.80055 11.6379L6.77766 11.6606C6.79292 11.5621 6.85398 11.5015 6.9532 11.4788L6.9303 11.5015C6.9532 11.4106 7.01426 11.35 7.10585 11.3197L7.08295 11.3424C7.10585 11.2515 7.1669 11.1984 7.25849 11.1605L7.24324 11.1757C7.27377 11.0923 7.33483 11.0317 7.41115 11.0014L7.39589 11.0166C7.42642 10.9332 7.48748 10.8802 7.5638 10.8423L7.54853 10.8574C7.5867 10.7817 7.64012 10.7286 7.71645 10.6832L7.70118 10.6907C7.73171 10.6453 7.75461 10.5998 7.76987 10.5468C7.7775 10.524 7.79277 10.4937 7.80041 10.471C7.8233 10.418 7.84621 10.3725 7.87674 10.327C7.892 10.3043 7.91489 10.2815 7.93016 10.2588C7.96832 10.2134 8.00648 10.1755 8.04464 10.1376C8.06754 10.1149 8.0828 10.0997 8.1057 10.077C8.14386 10.0315 8.18203 9.99361 8.22782 9.95572C8.25072 9.93299 8.26599 9.91027 8.28889 9.89512C8.32705 9.84965 8.37285 9.80418 8.41101 9.76629C8.43391 9.74356 8.4568 9.72083 8.4797 9.6981C8.52549 9.65263 8.57893 9.62234 8.63999 9.59203C8.67052 9.57687 8.70104 9.56172 8.73157 9.54656C9.02161 9.35713 9.20479 9.05402 9.47192 8.84185L9.44903 8.86458C9.46429 8.76608 9.52535 8.70546 9.62457 8.68273L9.60168 8.70546C9.62457 8.60696 9.68563 8.55392 9.77722 8.52361L9.75432 8.54634C9.77722 8.45542 9.83828 8.39478 9.92987 8.36447L9.90697 8.38723C9.9375 8.30388 9.99857 8.24325 10.0825 8.21294L10.0673 8.22809C10.0978 8.14473 10.1588 8.09171 10.2352 8.05382L10.2199 8.06897C10.2581 7.99319 10.3115 7.93257 10.3878 7.89468L10.3726 7.90226C10.4031 7.8568 10.426 7.80376 10.4412 7.75829C10.4489 7.73556 10.4641 7.70525 10.4718 7.68251C10.4947 7.62947 10.5176 7.58401 10.5481 7.53854C10.5634 7.51581 10.5863 7.49308 10.6015 7.47035C10.6397 7.42488 10.6779 7.38699 10.716 7.34911C10.7389 7.32638 10.7542 7.31123 10.7771 7.2885C10.8152 7.24303 10.8534 7.20515 10.8992 7.16726C10.9221 7.14453 10.9374 7.1218 10.9603 7.10665C10.9984 7.06119 11.0442 7.01571 11.0824 6.97782C11.1053 6.95509 11.1282 6.93236 11.1511 6.90963C11.1969 6.86417 11.2579 6.83385 11.3114 6.80354C11.3419 6.78838 11.3724 6.77323 11.4029 6.75807C11.7388 6.50802 11.983 6.16705 12.2959 5.89427L12.273 5.917C12.2883 5.81849 12.3494 5.75788 12.4486 5.73515L12.4257 5.75788C12.4486 5.66695 12.5097 5.60632 12.6012 5.57601L12.5783 5.59874C12.6089 5.50781 12.6623 5.45477 12.7539 5.41689L12.7386 5.43203C12.7692 5.34868 12.8302 5.28808 12.9065 5.25777L12.8913 5.27292C12.9294 5.19714 12.9829 5.13652 13.0592 5.09863L13.0439 5.1138C13.0821 5.03802 13.1432 4.98497 13.2118 4.93951L13.2042 4.94709C13.2347 4.90163 13.2576 4.84858 13.2805 4.79554C13.2882 4.77281 13.3034 4.74249 13.3111 4.71976C13.334 4.66672 13.3645 4.62127 13.3874 4.56823C13.4027 4.54549 13.4256 4.52277 13.4408 4.50003C13.479 4.45457 13.5171 4.40909 13.5629 4.37121C13.5858 4.34848 13.6011 4.32575 13.624 4.30301C13.6622 4.25755 13.708 4.21209 13.7538 4.16663C13.7767 4.1439 13.7995 4.12117 13.8224 4.09843C13.8682 4.05297 13.9293 4.01507 13.9827 3.99234C14.0133 3.97718 14.0438 3.96203 14.0743 3.94688C14.4178 3.7044 14.6544 3.35585 14.9749 3.08307L14.9521 3.1058C14.9673 3.00729 15.0284 2.94666 15.1276 2.92393L15.1047 2.94666C15.1276 2.84815 15.1887 2.79512 15.2803 2.76481L15.2574 2.78754C15.2803 2.69661 15.3413 2.63598 15.4329 2.61325L15.41 2.63598C15.4329 2.54506 15.494 2.48445 15.5932 2.46172L15.5779 2.48445C15.6237 2.36321 15.7535 2.32532 15.8374 2.24197C15.8832 2.20408 15.9214 2.15861 15.9519 2.11314C15.9824 2.06768 16.013 2.01466 16.0435 1.96919C16.0588 1.94646 16.0817 1.92371 16.0969 1.90098C16.1351 1.86309 16.1809 1.82522 16.2267 1.79491C16.2725 1.7646 16.3183 1.74185 16.3641 1.71154C16.4099 1.68123 16.4557 1.65851 16.5014 1.6282C16.5396 1.59032 16.5854 1.56 16.6236 1.52969C16.6694 1.50696 16.7152 1.47666 16.761 1.4615C16.8068 1.43877 16.8602 1.4312 16.9136 1.42362C16.9976 1.42362 17.0663 1.40088 17.1273 1.34026C17.1884 1.28722 17.2342 1.21904 17.3258 1.21146L17.3029 1.23419C17.3639 1.08264 17.5166 1.11294 17.6311 1.0599L17.6082 1.07505C17.6769 0.931078 17.8295 0.961386 17.944 0.908345L17.9287 0.923514C17.9898 0.771967 18.1501 0.824999 18.2493 0.771958C18.2951 0.734071 18.3485 0.688604 18.3943 0.650717C18.4706 0.597675 18.547 0.552218 18.6233 0.491599C18.6767 0.461289 18.7301 0.43856 18.7912 0.423405C18.8752 0.415828 18.9668 0.41582 19.0507 0.41582C19.1041 0.41582 19.1652 0.430974 19.2186 0.438551C19.2644 0.461284 19.3026 0.446122 19.3331 0.408236C19.4858 0.271843 19.6995 0.362777 19.8674 0.271848C19.9055 0.302158 19.9361 0.294589 19.959 0.256702C20.2643 0.0596904 20.6306 0.279425 20.9436 0.105145C20.9817 0.135455 21.0199 0.127893 21.058 0.0975837C21.5313 -0.0388089 21.9968 -0.0236616 22.4701 0.089999C22.554 0.0975763 22.6456 0.097568 22.7296 0.105145C23.0425 0.271847 23.4165 0.0445431 23.7218 0.264287L23.7065 0.256702C23.8897 0.415827 24.1721 0.218809 24.3477 0.41582L24.3324 0.408236C24.4698 0.529473 24.6911 0.408252 24.8132 0.567377L24.8056 0.559792C24.9354 0.696185 25.172 0.552223 25.2788 0.73408L25.2636 0.726495C25.3704 0.787114 25.5154 0.771969 25.5994 0.878052L25.5918 0.870467C25.691 0.946241 25.8207 0.931089 25.9276 0.991708C26.0192 1.06748 26.1413 1.0978 26.2253 1.18873L26.2176 1.18114C26.2863 1.22661 26.355 1.25691 26.439 1.24934C26.4924 1.24934 26.5458 1.26448 26.5916 1.28721C26.6374 1.30995 26.6832 1.33267 26.729 1.35541C26.7519 1.37056 26.7672 1.38574 26.7901 1.40089C26.8511 1.45393 26.9198 1.49938 26.9809 1.54484C27.0267 1.57515 27.0648 1.61305 27.103 1.65094C27.1411 1.68882 27.1793 1.72671 27.2175 1.77218C27.2404 1.79491 27.2556 1.81005 27.2785 1.83278C27.3396 1.88583 27.4312 1.90856 27.4541 1.99949L27.4388 1.97676C27.538 1.99191 27.5915 2.05255 27.6296 2.1359L27.622 2.12073C27.6754 2.15104 27.7288 2.17377 27.7823 2.18892C27.8128 2.20408 27.8357 2.21167 27.8662 2.22682C27.9197 2.24955 27.9731 2.27985 28.0265 2.31016C28.0494 2.32532 28.0723 2.34805 28.1028 2.36321C28.1563 2.4011 28.2021 2.44655 28.2479 2.49201C28.2708 2.51474 28.2937 2.5375 28.3166 2.56023C28.3624 2.60569 28.4005 2.66631 28.431 2.72693C28.4463 2.75724 28.4616 2.78755 28.4768 2.81786C28.7211 3.15884 29.0798 3.40131 29.3546 3.71198L29.3317 3.68925C29.4309 3.7044 29.492 3.76503 29.5149 3.86354L29.492 3.84081C29.5835 3.86354 29.6446 3.92414 29.6751 4.01507L29.6522 3.99234C29.7438 4.01507 29.7973 4.0757 29.8354 4.16663L29.8202 4.15146C29.9041 4.18177 29.9652 4.24239 29.9957 4.31816L29.9728 4.30301C30.0491 4.3409 30.0797 4.40151 30.0797 4.48486C30.0186 4.62126 29.9575 4.70462 29.8125 4.63642Z" fill="#3F0A96"/>
<path d="M13.2501 38.0821C18.5165 40.863 23.9356 41.401 29.5379 39.1808C30.408 38.8398 31.2017 38.3321 32.0337 37.9002C32.1711 37.8548 32.2398 37.9305 32.2779 38.0442C32.1253 38.2942 31.9345 38.5064 31.7055 38.6883L31.7284 38.6655C31.7207 38.7716 31.6597 38.8322 31.5528 38.8474L31.5757 38.8247C31.5605 38.9232 31.4994 38.9838 31.4002 39.0065L31.4231 38.9838C31.4002 39.0823 31.3391 39.1353 31.2552 39.1657L31.2704 39.1505C31.2475 39.2414 31.1865 39.2945 31.1025 39.3248L31.1178 39.3096C31.0872 39.393 31.0262 39.446 30.9499 39.4839L30.9651 39.4687C30.9346 39.5445 30.8735 39.6051 30.7972 39.643L30.8125 39.6279C30.7743 39.7036 30.7209 39.7567 30.6522 39.8021L30.6598 39.7946C30.6217 39.8628 30.5606 39.9158 30.4995 39.9613L30.5072 39.9537C30.4614 40.0143 30.408 40.0673 30.3469 40.1204C30.3011 40.1734 30.2477 40.2265 30.1942 40.2795C29.7363 40.863 29.202 41.3707 28.6296 41.8405H28.622C28.5609 41.8859 28.5151 41.9465 28.454 41.9844L28.4617 41.9769C28.4082 42.045 28.3624 42.1057 28.2785 42.1284L28.2938 42.1132C28.1716 42.2799 27.9808 42.3406 27.8205 42.4466L27.8282 42.4391C27.7747 42.5073 27.7289 42.583 27.6221 42.5755L27.645 42.5527C27.6068 42.7194 27.4313 42.674 27.3321 42.7497L27.3473 42.7421C27.2786 42.8634 27.126 42.8331 27.0344 42.9164H27.042C26.9657 43.0225 26.8131 42.9922 26.7215 43.0756H26.7291C26.6451 43.1741 26.5001 43.1513 26.4009 43.2271L26.4085 43.2195C26.3246 43.3332 26.1796 43.318 26.0651 43.3635L26.088 43.3484C25.9811 43.5529 25.7445 43.4014 25.6071 43.5302L25.6224 43.5226C25.485 43.6969 25.256 43.5833 25.0957 43.6818L25.0423 43.6666L25.0041 43.7045C24.8133 43.8712 24.5538 43.6969 24.363 43.8485H24.3707C23.9432 44.0682 23.47 43.8257 23.035 44C22.8213 44 22.6152 44 22.4015 44C21.974 43.8257 21.5008 44.0606 21.0734 43.856L21.0353 43.8181L20.9818 43.8409C20.7681 43.7121 20.4933 43.8788 20.2949 43.6818L20.3102 43.6893C20.1652 43.5757 19.9514 43.6893 19.8217 43.5378H19.8293C19.6996 43.4014 19.4706 43.5378 19.3561 43.3711L19.3714 43.3787C19.2721 43.3105 19.1348 43.3256 19.0355 43.2347C18.9287 43.0756 18.6615 43.2499 18.5852 43.0225L18.6081 43.0377C18.402 43.0074 18.257 42.8634 18.0967 42.7573C18.0128 42.6664 17.8525 42.6967 17.7914 42.5755L17.8067 42.583C17.6312 42.4997 17.448 42.4163 17.3259 42.2572L17.3411 42.2724C17.2572 42.2496 17.2114 42.189 17.1503 42.1284C17.0053 41.9996 16.7916 41.9617 16.7 41.7647L16.7229 41.7874C16.616 41.7798 16.5626 41.7192 16.5321 41.6207L16.555 41.6434C16.4634 41.6207 16.4023 41.5601 16.3718 41.4767L16.3871 41.4919C16.3031 41.4616 16.242 41.401 16.2115 41.3252L16.2268 41.3404C16.1505 41.31 16.0894 41.2494 16.0512 41.1737L16.0665 41.1888C15.9902 41.1509 15.9367 41.0979 15.8909 41.0221L15.8986 41.0297C15.8299 40.9918 15.7765 40.9312 15.7307 40.8706L15.7383 40.8781C15.6772 40.8327 15.6238 40.7796 15.5704 40.719C15.5093 40.6735 15.4635 40.6205 15.4101 40.5674C14.9521 40.234 14.5782 39.8249 14.1889 39.4233L14.2118 39.446C14.0973 39.4384 14.0439 39.3778 14.0286 39.2717L14.0515 39.2945C13.9447 39.2869 13.8912 39.2187 13.8683 39.1202L13.8912 39.1429C13.792 39.1277 13.7386 39.0671 13.7081 38.9686L13.731 38.9914C13.6394 38.9686 13.5783 38.908 13.5478 38.8247L13.563 38.8398C13.4791 38.8095 13.418 38.7565 13.3875 38.6731L13.4028 38.6883C13.3188 38.658 13.2654 38.5973 13.2272 38.5216L13.2425 38.5367C13.1661 38.4988 13.1127 38.4458 13.0669 38.37L13.0746 38.3776C13.0059 38.3321 12.9753 38.2639 12.9753 38.1806C13.044 38.0897 13.1051 38.0063 13.2501 38.0821Z" fill="#1A88E1"/>
<path d="M22.1343 6.81964C24.2485 7.20609 25.4087 8.78218 25.5613 11.457C25.8132 15.7685 23.5616 18.6024 20.0049 20.618C18.0739 21.7092 15.9444 22.2093 13.7233 22.3078C13.5249 22.1638 13.2501 22.2775 13.0593 22.1108C13.044 22.0956 13.0288 22.0729 12.9753 21.9895C13.1204 21.641 13.4867 21.5425 13.8225 21.4743C14.4103 21.3606 14.6011 21.0196 14.6469 20.4438C14.83 18.0645 15.0972 15.6927 16.0207 13.4574C16.8069 11.5479 17.7533 9.75209 19.3103 8.31997C20.127 7.56223 20.9589 6.89541 22.1343 6.81964Z" fill="#3F0A96"/>
<path d="M22.5055 6.91739C17.8649 9.06179 16.4148 13.2218 15.5905 17.7682C15.4683 18.4274 15.3844 19.1018 15.3844 19.7686C15.392 21.0568 15.1783 22.11 13.4992 21.9357C13.606 22.3222 14.0869 22.0039 14.0945 22.4055C12.9649 22.4813 11.8353 22.4358 10.7133 22.2994C10.6217 22.1327 10.7744 22.0873 10.8659 22.0191C11.9879 21.9433 12.1864 21.2917 12.2245 20.2687C12.3619 16.6088 13.2397 13.146 15.4454 10.1226C17.1857 7.74333 19.4372 6.44002 22.5055 6.91739Z" fill="#1A88E1"/>
<path d="M38.1928 12.1102C38.2462 12.1632 38.2996 12.2087 38.353 12.2617C38.4065 12.3148 38.4599 12.3602 38.5133 12.4133C38.5668 12.4663 38.6202 12.5118 38.6736 12.5648C38.6736 12.5951 38.666 12.6255 38.6507 12.6558C38.4904 15.8761 37.1318 18.4752 34.5673 20.4529C32.8958 21.741 31.0411 22.6655 29.049 23.3398C26.0647 24.3476 23.0041 24.9463 19.8442 24.9841C22.7751 24.5295 25.6144 23.7339 28.2934 22.4836C31.5296 20.9757 34.1323 18.8161 35.1169 15.2169C35.6664 13.2165 35.5748 11.2085 34.7581 9.26868C34.7123 9.10956 34.781 9.06408 34.9337 9.10954C35.0253 9.17774 35.1169 9.24595 35.2085 9.31415C35.2619 9.35961 35.3153 9.41265 35.3687 9.45812C35.4222 9.51116 35.4756 9.55661 35.529 9.60965C35.5824 9.66269 35.6359 9.70817 35.6893 9.76121C35.7427 9.81425 35.7962 9.8597 35.8496 9.91274C35.903 9.96578 35.9564 10.0113 36.0099 10.0643C36.0633 10.1173 36.1167 10.1628 36.1701 10.2159C36.2236 10.2689 36.277 10.3143 36.3304 10.3674V10.3598C36.3915 10.4053 36.4526 10.4583 36.4983 10.5189L36.4907 10.5114C36.5594 10.5568 36.6128 10.6099 36.6586 10.6705L36.651 10.6629C36.7121 10.7084 36.7655 10.7614 36.8113 10.8144C36.8647 10.8675 36.9181 10.9205 36.9716 10.966C37.0174 11.019 37.0708 11.0721 37.1318 11.1176L37.1395 11.1251C37.4906 11.4585 37.8417 11.7844 38.1928 12.1102Z" fill="#3F0A96"/>
<path d="M13.7383 25.8518C14.6771 25.8518 15.6922 25.6245 16.5318 25.8973C17.4858 26.2156 17.234 27.4355 17.5469 28.2311C19.1116 32.1941 22.3554 33.8005 26.2708 34.5355C26.3701 34.5582 26.4769 34.5734 26.5761 34.5885C20.722 35.8994 14.8984 31.9289 13.7383 25.8518Z" fill="#3F0A96"/>
<path fill-rule="evenodd" clip-rule="evenodd" d="M108.158 24.9523C108.127 24.9068 108.135 24.8689 108.173 24.8386C108.269 24.6792 108.256 24.5051 108.242 24.3329C108.231 24.183 108.219 24.0346 108.281 23.8984C108.403 23.8049 108.395 23.6775 108.388 23.5484C108.387 23.5415 108.387 23.5346 108.387 23.5277V21.6485C108.394 21.55 108.364 21.4667 108.295 21.4061L108.264 21.3682L108.295 21.3303C108.223 21.1794 108.229 21.0149 108.236 20.8497C108.243 20.6664 108.25 20.4823 108.15 20.3149L108.112 20.277L108.135 20.2316C108.079 20.1349 108.08 20.0256 108.082 19.916C108.084 19.785 108.085 19.6534 107.99 19.542V19.5496C107.914 19.4641 107.918 19.3586 107.922 19.2527C107.927 19.1331 107.931 19.0131 107.822 18.9207L107.829 18.9358C107.772 18.8681 107.769 18.7853 107.765 18.7032C107.761 18.6107 107.758 18.5191 107.677 18.4509V18.4585C107.612 18.3946 107.61 18.3109 107.608 18.2281C107.605 18.1342 107.602 18.0415 107.509 17.9811L107.516 17.9962C107.462 17.9013 107.456 17.8002 107.45 17.6931C107.449 17.6806 107.449 17.668 107.448 17.6553C107.433 17.5958 107.396 17.5582 107.337 17.5425C107.329 17.5144 107.323 17.4853 107.318 17.4562C107.301 17.3633 107.283 17.2713 107.188 17.2158L107.196 17.2309C107.173 17.1919 107.162 17.1468 107.151 17.1015C107.132 17.0237 107.113 16.9454 107.036 16.8975L107.043 16.9127C107.012 16.8721 106.999 16.8226 106.985 16.773C106.966 16.7022 106.947 16.6314 106.875 16.5869L106.883 16.602C106.853 16.5627 106.839 16.5151 106.826 16.4676C106.806 16.3959 106.785 16.3248 106.707 16.2837L106.715 16.2989C106.695 16.2636 106.685 16.2223 106.676 16.1811C106.658 16.1026 106.641 16.0241 106.547 15.9862C106.545 15.9364 106.531 15.887 106.509 15.8443C106.494 15.7912 106.471 15.7458 106.448 15.7003C106.433 15.6473 106.41 15.6019 106.387 15.5565L106.387 15.5563C106.364 15.5109 106.333 15.4654 106.295 15.4275C106.266 15.4043 106.241 15.3721 106.217 15.3412C106.21 15.3319 106.203 15.3227 106.196 15.3138C106.185 15.2911 106.171 15.2684 106.158 15.2456C106.145 15.2229 106.131 15.2002 106.12 15.1775C106.097 15.132 106.074 15.0865 106.043 15.0411C106.021 14.9956 105.982 14.9577 105.944 14.9198L105.83 14.8062C105.784 14.7683 105.746 14.7304 105.708 14.6925C105.647 14.6243 105.601 14.5561 105.57 14.4728C105.555 14.4122 105.532 14.3593 105.509 14.3063L105.509 14.3061C105.486 14.2454 105.456 14.1924 105.425 14.1394C105.42 14.1331 105.416 14.1271 105.412 14.1214C105.396 14.0996 105.382 14.0816 105.364 14.0636C105.318 14.0181 105.273 13.9802 105.219 13.9423C105.192 13.9272 105.164 13.912 105.135 13.8969C105.107 13.8817 105.078 13.8666 105.051 13.8514C104.938 13.7842 104.855 13.6856 104.772 13.5875C104.693 13.4933 104.614 13.3997 104.509 13.3345C104.506 13.2369 104.448 13.18 104.343 13.1702C104.275 13.0662 104.181 12.9843 104.086 12.9023C103.973 12.8046 103.86 12.7067 103.792 12.5708L103.746 12.4799C103.716 12.4269 103.67 12.3738 103.624 12.3284C103.618 12.3236 103.612 12.3192 103.606 12.315C103.584 12.299 103.566 12.2857 103.548 12.2678C103.494 12.2374 103.441 12.2071 103.38 12.1844C103.326 12.1541 103.273 12.1389 103.212 12.1238C103.097 12.0859 103.013 12.0101 102.929 11.9343C102.922 11.923 102.912 11.9135 102.903 11.904C102.893 11.8946 102.884 11.8851 102.876 11.8737C102.838 11.8284 102.8 11.7905 102.762 11.7527L102.761 11.7525L102.761 11.7523C102.723 11.7145 102.685 11.6766 102.639 11.6464C102.594 11.6161 102.548 11.5925 102.502 11.569C102.479 11.5572 102.456 11.5454 102.433 11.5327L102.372 11.4949C102.334 11.4646 102.296 11.4342 102.258 11.3964C102.22 11.3585 102.181 11.3282 102.136 11.3054C102.09 11.2802 102.051 11.2482 102.012 11.2162C101.992 11.2002 101.973 11.1842 101.952 11.169L101.891 11.1236L101.754 11.0554C101.701 11.0326 101.655 11.0251 101.601 11.0251C101.529 11.0251 101.469 10.9973 101.41 10.9703C101.401 10.9665 101.393 10.9627 101.385 10.959C101.362 10.9176 101.322 10.895 101.281 10.8716C101.252 10.8548 101.222 10.8376 101.197 10.8129C101.183 10.7965 101.17 10.7801 101.158 10.7641C101.136 10.7356 101.114 10.7083 101.09 10.6841C101.021 10.631 100.953 10.5931 100.876 10.5553C100.83 10.5325 100.785 10.5098 100.731 10.4871C100.689 10.4687 100.642 10.4586 100.594 10.4485C100.563 10.442 100.532 10.4354 100.502 10.4265C100.489 10.4243 100.476 10.4215 100.461 10.4187C100.426 10.4115 100.388 10.4037 100.35 10.4037C100.267 10.4112 100.199 10.3746 100.131 10.3373C100.075 10.265 99.9916 10.2477 99.9092 10.2305C99.8759 10.2235 99.8426 10.2165 99.8113 10.206C99.7553 10.096 99.6574 10.0931 99.5595 10.0901C99.4806 10.0877 99.4016 10.0854 99.3443 10.0272C99.3459 10.0286 99.3474 10.0301 99.3489 10.0316L99.3421 10.0249C99.3428 10.0256 99.3436 10.0264 99.3443 10.0272C99.2918 9.97722 99.2273 9.9461 99.1627 9.91497C99.0959 9.88277 99.0292 9.85057 98.9757 9.79752C98.9299 9.75964 98.8765 9.73692 98.8154 9.72177C98.7821 9.71736 98.7481 9.71423 98.7139 9.71107C98.6305 9.7034 98.5455 9.69558 98.4644 9.66872C98.4109 9.64599 98.3499 9.63082 98.2888 9.63082C98.1718 9.65103 98.0887 9.59714 98.0055 9.54326C97.964 9.51632 97.9224 9.48938 97.8766 9.4717C97.8156 9.46413 97.7545 9.46413 97.6935 9.4717C97.5408 9.48686 97.3882 9.45656 97.2355 9.41109L97.1974 9.43383L97.1668 9.39592C97.0344 9.29633 96.8809 9.30355 96.7273 9.31078C96.5888 9.3173 96.4503 9.32382 96.3272 9.25195C96.2815 9.28226 96.2509 9.27469 96.2204 9.23681C95.9192 9.12808 95.606 9.14273 95.2931 9.15736C94.9955 9.17128 94.698 9.18519 94.4115 9.09283H94.0986C93.743 9.18347 93.3814 9.172 93.0194 9.16051C92.8064 9.15375 92.5933 9.14699 92.3813 9.16103C92.2897 9.15345 92.2133 9.18376 92.1447 9.25195H92.1523C91.9948 9.335 91.8278 9.32671 91.6616 9.31846C91.5699 9.31391 91.4785 9.30938 91.389 9.32015C91.3127 9.32015 91.2516 9.35804 91.2058 9.41866L91.2211 9.41109C91.1283 9.4784 91.0205 9.47449 90.9133 9.4706C90.7943 9.46628 90.676 9.46198 90.5798 9.55521C90.4708 9.63084 90.354 9.62928 90.2378 9.62773C90.1913 9.62711 90.1449 9.62649 90.0991 9.63082C90.0304 9.6384 89.977 9.6763 89.9465 9.73692L89.9617 9.72933C89.9013 9.77039 89.8276 9.77195 89.7534 9.77353C89.6502 9.77572 89.5459 9.77794 89.4747 9.88622C89.3648 9.92754 89.2547 9.9415 89.1375 9.9415C89.0775 9.95638 89.0396 9.99321 89.0165 10.052C88.9876 10.0606 88.9574 10.0667 88.927 10.0729C88.8427 10.0901 88.757 10.1076 88.6925 10.1779C88.6168 10.2299 88.5336 10.2522 88.4429 10.2522C88.4396 10.2526 88.4363 10.2531 88.433 10.2536C88.382 10.2607 88.3251 10.2687 88.275 10.2901C88.2345 10.3196 88.1873 10.3386 88.1401 10.3576C88.0549 10.3921 87.9699 10.4264 87.9251 10.5222C87.8937 10.5324 87.8607 10.5383 87.8279 10.5441C87.7384 10.5602 87.6513 10.5758 87.6068 10.6758C87.5792 10.6846 87.5496 10.6901 87.5199 10.6956C87.4327 10.7118 87.3446 10.7282 87.3036 10.8282C87.2534 10.8299 87.2037 10.8446 87.1606 10.8659C87.1148 10.8811 87.0614 10.9038 87.0156 10.9266C86.9698 10.9417 86.9164 10.9644 86.8706 10.9872L86.8705 10.9872C86.8248 11.0099 86.779 11.0327 86.7332 11.063C86.7103 11.0743 86.6855 11.0857 86.6607 11.0971C86.6359 11.1084 86.6111 11.1198 86.5882 11.1311C86.5653 11.1425 86.5424 11.1558 86.5195 11.169C86.4966 11.1823 86.4737 11.1956 86.4508 11.2069C86.4279 11.2221 86.405 11.2353 86.3821 11.2486C86.3592 11.2619 86.3363 11.2751 86.3134 11.2903C86.2676 11.3206 86.2295 11.3509 86.1913 11.3888C86.1779 11.3976 86.1652 11.4065 86.1527 11.4152C86.1225 11.4362 86.094 11.4561 86.0616 11.4721C86.0158 11.4949 85.97 11.5252 85.9318 11.5555C85.8936 11.5858 85.8555 11.6237 85.8326 11.6691C85.8097 11.7146 85.7791 11.7525 85.741 11.7904C85.7247 11.8025 85.7068 11.8125 85.6891 11.8223C85.6442 11.8473 85.601 11.8713 85.5903 11.9275C85.5311 11.9353 85.472 11.9502 85.4128 11.9722C85.3902 11.9778 85.3717 11.9876 85.3512 11.9985C85.3441 12.0023 85.3367 12.0062 85.3288 12.0101C85.2678 12.0404 85.2143 12.0783 85.1685 12.1162C85.1227 12.1617 85.0846 12.2147 85.0541 12.2678C85.0231 12.3189 84.9783 12.3562 84.9335 12.3936C84.8824 12.4362 84.8312 12.4788 84.8007 12.5419C84.7055 12.5582 84.6545 12.6124 84.6241 12.6928C84.5718 12.7077 84.5266 12.7228 84.474 12.7451C84.4625 12.7489 84.4492 12.7546 84.4358 12.7603C84.4225 12.766 84.4091 12.7717 84.3977 12.7754C84.3748 12.7868 84.35 12.8001 84.3251 12.8133C84.3003 12.8266 84.2755 12.8398 84.2526 12.8512C84.2374 12.8739 84.2145 12.8891 84.1916 12.9042L84.0771 13.0179C84.0723 13.0227 84.0667 13.0275 84.0608 13.0325C84.0481 13.0434 84.0341 13.0554 84.0237 13.071L83.9092 13.1846C83.9044 13.1894 83.8988 13.1942 83.8929 13.1992C83.8802 13.2101 83.8662 13.2221 83.8558 13.2377L83.7413 13.3513C83.7336 13.3627 83.7241 13.3722 83.7146 13.3816C83.705 13.3911 83.6955 13.4006 83.6878 13.4119C83.6497 13.4574 83.6191 13.5029 83.5963 13.5483C83.5963 13.5663 83.5915 13.5843 83.5857 13.6061C83.5842 13.6118 83.5826 13.6178 83.581 13.6241C83.5658 13.677 83.5506 13.7223 83.5278 13.7752C83.4575 13.8096 83.4052 13.8565 83.3806 13.9305C83.2961 13.9607 83.2396 14.0122 83.2304 14.1105C83.1661 14.1399 83.1197 14.1927 83.0734 14.2454C83.0219 14.3042 82.9704 14.3629 82.8941 14.3894C82.8877 14.3941 82.8817 14.3985 82.876 14.4027C82.8541 14.4187 82.8359 14.432 82.8177 14.45C82.772 14.4955 82.7414 14.5485 82.7109 14.6016C82.688 14.6546 82.6651 14.7152 82.6498 14.7759C82.6178 14.8622 82.5692 14.9404 82.5207 15.0186C82.4889 15.0699 82.4571 15.1211 82.4299 15.1747C82.4274 15.1766 82.4248 15.1785 82.4223 15.1805C82.3614 15.2271 82.3041 15.2709 82.2991 15.3548C82.2437 15.3692 82.2171 15.4121 82.1897 15.4562C82.1745 15.4807 82.1591 15.5055 82.1384 15.526C82.0926 15.5639 82.0545 15.6094 82.024 15.6548C81.9934 15.7003 81.9697 15.7525 81.9459 15.8047C81.9341 15.8308 81.9222 15.8569 81.9095 15.8821C81.9057 15.8935 81.8999 15.9068 81.8942 15.92C81.8885 15.9333 81.8828 15.9466 81.8789 15.9579C81.8574 16.0078 81.8426 16.0577 81.8282 16.1076C81.7465 16.1478 81.7263 16.2225 81.7064 16.2962C81.6944 16.3405 81.6826 16.3843 81.6576 16.4202L81.6652 16.405C81.5934 16.4496 81.5744 16.5204 81.5554 16.5912C81.5421 16.6407 81.5287 16.6903 81.4973 16.7308L81.505 16.7157C81.4364 16.761 81.4171 16.8335 81.3979 16.9055C81.3851 16.9538 81.3722 17.0019 81.3447 17.0415L81.3523 17.0263C81.2719 17.0762 81.2543 17.1557 81.2365 17.2366C81.2284 17.2735 81.2202 17.3106 81.2059 17.3454C81.1224 17.3948 81.0931 17.4728 81.0639 17.5504C81.0483 17.592 81.0327 17.6335 81.0088 17.6704C80.9859 17.731 80.963 17.7917 80.9478 17.8523C80.9478 17.9479 80.9262 18.0364 80.89 18.1247C80.7869 18.1908 80.7847 18.2909 80.7824 18.3909C80.7807 18.4664 80.7791 18.5418 80.7341 18.6024L80.7417 18.5797C80.62 18.6643 80.6255 18.7852 80.631 18.9062C80.6359 19.0128 80.6407 19.1194 80.5585 19.201V19.1935C80.4688 19.2864 80.4728 19.401 80.4767 19.5162C80.4805 19.6265 80.4843 19.7373 80.4059 19.83V19.8224C80.3006 19.9551 80.307 20.1091 80.3135 20.263C80.3192 20.399 80.3249 20.535 80.2532 20.6559C80.2837 20.6938 80.2761 20.7241 80.238 20.7544C80.1194 21.4374 80.1364 22.1261 80.1534 22.8153C80.1638 23.2349 80.1742 23.6546 80.154 24.0733V24.3385C80.1659 24.373 80.1782 24.4074 80.1905 24.4418C80.2727 24.6713 80.3541 24.8988 80.3143 25.1493V25.1497C80.3143 25.2254 80.3143 25.301 80.3219 25.3766C80.4211 25.5281 80.5051 25.6873 80.4288 25.8767C80.4364 25.9449 80.4593 26.0131 80.4975 26.0737C80.5802 26.1285 80.5979 26.2155 80.6155 26.3026C80.6318 26.3828 80.6481 26.4631 80.7153 26.518C80.7673 26.5798 80.7703 26.6578 80.7733 26.7358C80.7769 26.8303 80.7805 26.9249 80.8714 26.9906L80.8638 26.9754C80.921 27.0322 80.9233 27.1095 80.9257 27.1874C80.9286 27.2842 80.9316 27.3817 81.04 27.4415C81.054 27.4768 81.0627 27.5144 81.0714 27.5518C81.0893 27.6289 81.107 27.7051 81.1706 27.7585C81.2081 27.8258 81.2378 27.8933 81.2378 27.9756C81.2378 28.0287 81.2378 28.0817 81.2455 28.1348C81.2607 28.2105 81.2836 28.2863 81.3218 28.3545C81.3294 28.3697 81.3362 28.3848 81.343 28.4C81.3565 28.4303 81.3701 28.4606 81.3904 28.4909C81.421 28.5591 81.4515 28.6273 81.4897 28.6955L81.5584 28.8319C81.5965 28.9001 81.6423 28.9683 81.6958 29.0289C81.7091 29.0395 81.7224 29.0509 81.736 29.0627C81.7615 29.0847 81.7881 29.1077 81.8179 29.1274C81.8375 29.1469 81.852 29.1714 81.8666 29.1962C81.8914 29.2384 81.9166 29.2812 81.9681 29.3008C82.0366 29.4843 82.1345 29.6461 82.2758 29.779L82.2682 29.7639C82.2796 29.7856 82.2908 29.8073 82.3019 29.8289C82.3801 29.9809 82.4561 30.1285 82.5964 30.2413L82.5811 30.2337L82.6498 30.3928C82.6804 30.4383 82.7185 30.4837 82.7643 30.5216C82.8483 30.605 82.917 30.6959 82.9551 30.8096C82.9704 30.8626 82.9933 30.9232 83.0162 30.9763C83.0391 31.0369 83.062 31.0899 83.1001 31.143C83.1116 31.1543 83.1211 31.1657 83.1307 31.1771C83.1402 31.1884 83.1497 31.1998 83.1612 31.2112C83.207 31.2566 83.2604 31.3021 83.3139 31.3324C83.3749 31.3627 83.436 31.393 83.4894 31.4309C83.524 31.4629 83.5588 31.4948 83.5935 31.5267C83.8877 31.7971 84.1816 32.0671 84.4206 32.3857L84.4664 32.4766C84.4969 32.5372 84.5427 32.5903 84.5885 32.6357C84.6114 32.6509 84.6419 32.6736 84.6648 32.6963C84.7182 32.7342 84.7793 32.7645 84.8404 32.7873C84.8708 32.7948 84.9013 32.8099 84.9318 32.8251L84.9319 32.8252C84.993 32.8479 85.0541 32.863 85.1151 32.8782L85.1132 32.8745C85.1521 32.9477 85.2186 32.9959 85.2847 33.0438C85.3275 33.0749 85.3702 33.1058 85.4051 33.1434C85.4099 33.1497 85.4143 33.1557 85.4186 33.1614C85.4347 33.1832 85.4481 33.2012 85.4662 33.2192C85.4968 33.2722 85.5273 33.3177 85.5654 33.3631C85.6112 33.401 85.6569 33.4313 85.7027 33.4616L85.7028 33.4617C85.7372 33.4806 85.7734 33.4976 85.8097 33.5147C85.8459 33.5317 85.8822 33.5488 85.9165 33.5677C85.9165 33.5601 85.9852 33.6056 85.9852 33.6056C86.031 33.6359 86.0692 33.6662 86.1073 33.7041C86.1455 33.742 86.1837 33.7723 86.2295 33.7951C86.2982 33.8329 86.3516 33.8784 86.4126 33.9314L86.4737 33.9769L86.6111 34.0451C86.6645 34.0678 86.7103 34.0754 86.7637 34.0754C86.8465 34.068 86.9144 34.1046 86.9821 34.142L87.1377 34.3406C87.1759 34.3785 87.2217 34.4164 87.2751 34.4391C87.3438 34.477 87.4201 34.5149 87.4964 34.5528C87.5422 34.5831 87.588 34.6058 87.6415 34.6286C87.6873 34.6589 87.7331 34.6816 87.7865 34.7043L87.7872 34.7047C87.8328 34.7273 87.8784 34.7499 87.9315 34.7725C87.9411 34.7763 87.9505 34.7801 87.9599 34.7839C88.0253 34.8102 88.0871 34.835 88.1605 34.8483C88.1872 34.8483 88.2139 34.8502 88.2406 34.8521C88.2673 34.854 88.2941 34.8559 88.3208 34.8559C88.3957 34.8559 88.4707 34.8851 88.5384 34.9221C88.599 35.0049 88.6859 35.0209 88.7746 35.0372C88.8045 35.0427 88.8346 35.0482 88.864 35.0564C88.887 35.115 88.9249 35.1517 88.9848 35.1666C89.1018 35.1738 89.2117 35.1811 89.3214 35.2283C89.3899 35.3293 89.4918 35.3335 89.5922 35.3376C89.6709 35.3408 89.7488 35.344 89.8091 35.3939L89.7938 35.3863C89.848 35.467 89.9336 35.4834 90.0187 35.4997C90.1015 35.5156 90.1839 35.5313 90.2365 35.606C90.2976 35.6288 90.3663 35.6439 90.435 35.6439C90.6181 35.6288 90.7784 35.6742 90.9158 35.7879C90.9845 35.7955 91.0532 35.8031 91.1219 35.8031C91.1581 35.8031 91.1946 35.8024 91.2312 35.8016C91.4027 35.7983 91.5766 35.795 91.7401 35.8637L91.7859 35.8409L91.8241 35.8788C92.0056 35.9886 92.2035 35.9767 92.4019 35.9648C92.5818 35.954 92.7621 35.9432 92.931 36.023C93.0318 36.1372 93.1598 36.1302 93.2957 36.1226C93.3038 36.1222 93.3119 36.1217 93.32 36.1213C93.5606 36.1045 93.8023 36.1116 94.0442 36.1187C94.4546 36.1307 94.8658 36.1428 95.274 36.038C95.3121 36.0342 95.3522 36.0323 95.3922 36.0304C95.4323 36.0285 95.4724 36.0266 95.5106 36.0228C95.6656 35.9495 95.8332 35.956 96.0012 35.9625C96.1805 35.9694 96.3602 35.9764 96.5257 35.8864L96.5868 35.8561L96.6478 35.8713C96.7668 35.7925 96.9028 35.8 97.0382 35.8075C97.1894 35.8158 97.3397 35.8241 97.4645 35.7121L97.4492 35.7197C97.5387 35.6487 97.6466 35.6526 97.7541 35.6564C97.8759 35.6608 97.9971 35.6652 98.0904 35.5606L98.0751 35.5682C98.1444 35.5103 98.2275 35.5077 98.3105 35.5051C98.4013 35.5022 98.4918 35.4994 98.5636 35.4242C98.6284 35.3522 98.7143 35.3484 98.8002 35.3446C98.886 35.3408 98.9719 35.3371 99.0368 35.2651C99.0955 35.1958 99.179 35.1932 99.2626 35.1906C99.3513 35.1878 99.4401 35.185 99.4996 35.1024C99.5461 35.0687 99.6004 35.0555 99.6544 35.0424C99.7151 35.0276 99.7752 35.013 99.8229 34.9695L99.8535 34.9317L99.9069 34.9392C99.9442 34.9262 99.9841 34.9181 100.024 34.91C100.123 34.89 100.223 34.8697 100.289 34.7725L100.273 34.7801C100.313 34.7578 100.358 34.7468 100.404 34.7358C100.482 34.7167 100.561 34.6977 100.609 34.621L100.594 34.6286C100.633 34.602 100.679 34.5892 100.727 34.5763C100.801 34.5562 100.875 34.5358 100.922 34.4619L100.907 34.4694C100.946 34.4442 100.992 34.4325 101.037 34.4208C101.115 34.4009 101.192 34.3812 101.235 34.2952L101.22 34.3027C101.255 34.2825 101.297 34.2733 101.338 34.264C101.415 34.2469 101.492 34.2297 101.532 34.1431C101.6 34.1379 101.642 34.0955 101.683 34.0533C101.696 34.0401 101.71 34.0269 101.723 34.0148C101.761 33.9745 101.813 33.9581 101.865 33.9416C101.93 33.9211 101.994 33.9007 102.028 33.8338C102.2 33.7553 102.365 33.6752 102.489 33.5366C102.539 33.521 102.576 33.4863 102.612 33.4516C102.631 33.4339 102.649 33.4162 102.67 33.401H102.677C102.711 33.3544 102.764 33.337 102.816 33.32C102.876 33.3002 102.935 33.2807 102.961 33.2159C103.043 33.1965 103.092 33.1389 103.135 33.0678C103.176 33.0462 103.209 33.0138 103.244 32.9799C103.261 32.9637 103.277 32.9471 103.296 32.9312C103.349 32.8782 103.415 32.84 103.481 32.8021C103.578 32.7463 103.674 32.6908 103.728 32.5891C103.823 32.5777 103.873 32.5157 103.903 32.4331C103.979 32.4082 104.026 32.3549 104.061 32.2834C104.136 32.2535 104.185 32.1986 104.222 32.1305C104.29 32.0946 104.346 32.0457 104.382 31.9782C104.444 31.9422 104.499 31.8934 104.535 31.826C104.603 31.784 104.651 31.7352 104.687 31.6682C104.756 31.6323 104.811 31.5831 104.841 31.5089C104.914 31.4739 104.968 31.426 104.993 31.3492C105.078 31.3194 105.131 31.2698 105.142 31.1785C105.252 31.1231 105.31 31.0226 105.367 30.9229C105.403 30.8609 105.438 30.7993 105.486 30.749C105.493 30.7424 105.5 30.7358 105.506 30.7292C105.552 30.6845 105.6 30.6379 105.627 30.576C105.702 30.535 105.761 30.4918 105.768 30.4024C105.845 30.3779 105.866 30.3117 105.886 30.2462C105.9 30.1981 105.915 30.1505 105.952 30.12C105.96 30.112 105.968 30.1039 105.977 30.0958C106.02 30.0544 106.067 30.0103 106.085 29.9496C106.161 29.9207 106.182 29.8553 106.203 29.7895C106.219 29.741 106.235 29.6923 106.272 29.6578C106.279 29.6508 106.287 29.6439 106.294 29.6368C106.34 29.593 106.389 29.5459 106.4 29.475C106.478 29.4385 106.497 29.3695 106.517 29.2999C106.529 29.2549 106.542 29.2097 106.57 29.1729L106.562 29.188C106.63 29.1504 106.648 29.0851 106.667 29.0201C106.682 28.9673 106.697 28.9147 106.738 28.8774V28.8849C106.788 28.8432 106.803 28.7864 106.818 28.7296C106.833 28.6727 106.849 28.6159 106.898 28.5742C106.944 28.5326 106.961 28.4757 106.978 28.4189C106.996 28.3621 107.013 28.3052 107.059 28.2636C107.106 28.2203 107.123 28.1607 107.14 28.1006C107.155 28.045 107.171 27.989 107.211 27.9453V27.9529C107.271 27.8984 107.289 27.8274 107.307 27.7565C107.32 27.7092 107.332 27.6619 107.356 27.6195L107.349 27.6347C107.445 27.5791 107.448 27.4881 107.452 27.3967C107.456 27.3136 107.459 27.2302 107.532 27.1724C107.593 27.1013 107.613 27.0131 107.634 26.9239C107.644 26.8801 107.654 26.836 107.669 26.7936L107.654 26.7405L107.692 26.7026C107.761 26.6382 107.765 26.553 107.768 26.4677C107.772 26.3825 107.776 26.2972 107.845 26.2328V26.2404C107.925 26.161 107.93 26.0585 107.936 25.9558C107.941 25.8724 107.945 25.7889 107.99 25.7176C107.967 25.6797 107.967 25.6418 108.013 25.6191C108.101 25.5158 108.098 25.3937 108.096 25.2715C108.094 25.1606 108.092 25.0496 108.158 24.9523ZM94.9099 30.5596C99.2299 30.5444 102.71 27.0967 102.703 22.8458C102.695 18.6252 99.1536 15.1624 94.8565 15.1548C90.567 15.1472 87.0179 18.6328 87.0103 22.8534C87.0026 27.127 90.5441 30.5823 94.9099 30.5596Z" fill="#1A88E1"/>
<path d="M117.548 11.3286C117.601 11.3817 117.647 11.4347 117.701 11.4877C117.754 11.5408 117.8 11.5938 117.853 11.6469C117.907 11.6999 117.952 11.753 118.006 11.806C118.059 11.859 118.105 11.9121 118.158 11.9651C118.54 12.3667 118.922 12.7683 119.303 13.1699C119.349 13.2305 119.41 13.276 119.456 13.329C119.517 13.3821 119.571 13.4275 119.616 13.4957L119.609 13.4882C119.67 13.5336 119.731 13.5867 119.769 13.6549L119.761 13.6473C119.83 13.6928 119.883 13.7534 119.922 13.814L119.914 13.8064C119.967 13.8595 120.013 13.9125 120.067 13.9655C120.12 14.0186 120.166 14.0716 120.219 14.1247C120.273 14.1777 120.319 14.2308 120.372 14.2838C120.425 14.3368 120.471 14.3899 120.525 14.4429C120.578 14.496 120.624 14.549 120.677 14.6021C120.731 14.6551 120.776 14.7081 120.83 14.7612C121.211 15.1628 121.593 15.5644 121.975 15.966C122.021 16.0266 122.074 16.072 122.127 16.1251C122.181 16.1781 122.234 16.2312 122.28 16.2842L122.272 16.2766C122.333 16.3221 122.387 16.3752 122.433 16.4433L122.425 16.4358C122.494 16.4812 122.547 16.5343 122.585 16.6025L122.578 16.5949C122.646 16.6328 122.7 16.6934 122.746 16.7692L122.738 16.7616C122.791 16.8146 122.837 16.8677 122.891 16.9207C122.944 16.9738 122.99 17.0268 123.043 17.0798C123.097 17.1329 123.143 17.1859 123.196 17.239C123.249 17.292 123.295 17.3451 123.349 17.3981C123.402 17.4511 123.448 17.5042 123.501 17.5572C123.555 17.6103 123.6 17.6633 123.654 17.7163C124.036 18.1179 124.417 18.5195 124.799 18.9211C124.845 18.9818 124.906 19.0272 124.951 19.0803C125.005 19.1333 125.066 19.1788 125.112 19.247L125.104 19.2394C125.165 19.2849 125.226 19.3379 125.264 19.4061L125.257 19.3985C125.325 19.444 125.379 19.5046 125.417 19.5652L125.409 19.5576C125.463 19.6107 125.509 19.6637 125.562 19.7168C125.615 19.7698 125.661 19.8229 125.715 19.8759C125.768 19.9289 125.814 19.982 125.867 20.035C125.921 20.0881 125.967 20.1411 126.02 20.1941C126.073 20.2472 126.119 20.3002 126.173 20.3533C126.226 20.4063 126.272 20.4593 126.325 20.5124C126.707 20.914 127.089 21.3156 127.47 21.7172C127.516 21.7778 127.569 21.8233 127.623 21.8763C127.676 21.9293 127.73 21.9824 127.775 22.0354L127.768 22.0279C127.829 22.0733 127.882 22.1264 127.928 22.1946L127.92 22.187C127.989 22.2324 128.043 22.2855 128.081 22.3537L128.073 22.3461C128.142 22.384 128.195 22.4446 128.241 22.5204L128.233 22.5128C128.287 22.5659 128.333 22.6189 128.386 22.6719C128.439 22.725 128.485 22.778 128.539 22.8311C128.592 22.8841 128.638 22.9371 128.691 22.9902C128.745 23.0432 128.791 23.0963 128.844 23.1493C128.897 23.2024 128.943 23.2554 128.997 23.3084C129.05 23.3615 129.096 23.4145 129.149 23.4676C129.378 23.7328 129.615 23.998 130.012 24.4602C130.012 19.1939 130.012 14.155 130.012 9.11602C131.866 9.10844 133.729 9.10845 135.583 9.09329C135.973 9.08571 136.141 9.16907 136.141 9.60098C136.133 17.9361 136.133 26.2788 136.133 34.6139C136.133 34.8488 136.133 35.0761 136.133 35.3792C135.019 35.3792 133.927 35.3792 132.843 35.3792C132.79 35.3261 132.744 35.2731 132.691 35.2276C132.309 34.826 131.928 34.4244 131.546 34.0228C131.492 33.9698 131.447 33.9167 131.393 33.8637C131.34 33.8107 131.294 33.7576 131.241 33.7046C131.187 33.6515 131.141 33.5985 131.088 33.5455C131.035 33.4924 130.989 33.4394 130.935 33.3863C130.882 33.3333 130.836 33.2803 130.783 33.2272C130.729 33.1742 130.683 33.1211 130.63 33.0681C130.577 33.0151 130.531 32.962 130.477 32.909C130.424 32.8559 130.378 32.8029 130.325 32.7498C130.271 32.6968 130.225 32.6438 130.172 32.5907C130.119 32.5377 130.073 32.4846 130.019 32.4316C129.966 32.3786 129.92 32.3255 129.867 32.2725C129.485 31.8709 129.104 31.4693 128.722 31.0677C128.668 31.0146 128.623 30.9616 128.569 30.9085C128.516 30.8555 128.47 30.8025 128.417 30.7494C128.363 30.6964 128.317 30.6433 128.264 30.5903C128.21 30.5372 128.165 30.4842 128.111 30.4312C128.058 30.3781 128.012 30.3251 127.959 30.272C127.905 30.219 127.859 30.166 127.806 30.1129C127.753 30.0599 127.707 30.0068 127.653 29.9538C127.6 29.9007 127.554 29.8477 127.501 29.7947C127.447 29.7416 127.401 29.6886 127.348 29.6355C127.295 29.5825 127.249 29.5294 127.195 29.4764C127.142 29.4234 127.096 29.3703 127.043 29.3173C126.661 28.9157 126.279 28.5141 125.898 28.1125C125.844 28.0594 125.799 28.0064 125.745 27.9534C125.692 27.9003 125.646 27.8473 125.593 27.7942C125.539 27.7412 125.493 27.6882 125.44 27.6351C125.386 27.5821 125.341 27.529 125.287 27.476C125.234 27.423 125.188 27.3699 125.135 27.3169C125.081 27.2638 125.035 27.2108 124.982 27.1577C124.929 27.1047 124.883 27.0517 124.829 26.9986C124.776 26.9456 124.73 26.8925 124.677 26.8395C124.623 26.7865 124.577 26.7334 124.524 26.6804C124.471 26.6273 124.425 26.5743 124.371 26.5212C124.318 26.4682 124.272 26.4152 124.219 26.3621C124.165 26.3091 124.119 26.256 124.066 26.203C123.684 25.8014 123.303 25.3998 122.921 24.9982C122.868 24.9452 122.822 24.8921 122.769 24.8391C122.715 24.786 122.669 24.733 122.616 24.6799C122.562 24.6269 122.517 24.5739 122.463 24.5208C122.41 24.4678 122.364 24.4147 122.311 24.3617C122.257 24.3086 122.211 24.2556 122.158 24.2026C122.105 24.1495 122.059 24.0965 122.005 24.0434C121.952 23.9904 121.906 23.9374 121.853 23.8843C121.799 23.8313 121.753 23.7782 121.7 23.7252C121.647 23.6721 121.601 23.6191 121.547 23.5661C121.494 23.513 121.448 23.46 121.395 23.4069C121.341 23.3539 121.295 23.3009 121.242 23.2478C120.86 22.8462 120.479 22.4446 120.097 22.043C120.044 21.99 119.998 21.9369 119.945 21.8839C119.891 21.8309 119.845 21.7778 119.792 21.7248C119.738 21.6717 119.693 21.6187 119.639 21.5657C119.586 21.5126 119.54 21.4596 119.487 21.4065C119.433 21.3535 119.387 21.3004 119.334 21.2474C119.28 21.1944 119.235 21.1413 119.181 21.0883C119.128 21.0352 119.082 20.9822 119.029 20.9291C118.975 20.8761 118.929 20.8231 118.876 20.77C118.823 20.717 118.777 20.6639 118.723 20.6109C118.639 20.5124 118.563 20.4139 118.334 20.1487C118.334 25.3695 118.334 30.3933 118.334 35.4246C116.327 35.4246 114.319 35.4246 112.259 35.4246C112.243 35.1443 112.22 34.8942 112.22 34.6442C112.22 26.4152 112.228 18.1861 112.198 9.95712C112.198 9.25243 112.388 9.08571 113.068 9.11602C114.319 9.16906 115.655 8.86597 116.479 10.2072C116.525 10.2678 116.586 10.3132 116.632 10.3663C116.685 10.4193 116.739 10.4724 116.785 10.5254L116.777 10.5178C116.838 10.5633 116.892 10.6163 116.937 10.6845L116.93 10.677C116.998 10.7224 117.052 10.7755 117.09 10.8437L117.082 10.8361C117.159 10.874 117.204 10.9346 117.25 11.0104L117.243 11.0028C117.296 11.0558 117.342 11.1089 117.395 11.1619C117.449 11.2225 117.494 11.2756 117.548 11.3286Z" fill="#1A88E1"/>
</svg>
