<svg width="736" height="769" viewBox="0 0 736 769" fill="none" xmlns="http://www.w3.org/2000/svg">
<ellipse cx="254" cy="383" rx="482" ry="455" fill="url(#paint0_linear)"/>
<path d="M68.8192 568.04C0.0605429 718.017 415.919 769.382 415.919 769.382L-134.087 932.309L-310 338.465C-310 338.465 137.578 418.062 68.8192 568.04Z" fill="#FCD81C" fill-opacity="0.22"/>
<path d="M113.5 601.671C47.2899 750.893 454.129 804.93 454.129 804.93L-82.408 963.868L-258.321 370.024C-258.321 370.024 179.711 452.449 113.5 601.671Z" fill="#FCD81C" fill-opacity="0.23"/>
<path d="M47.1733 650.002C4.42533 783.295 316.266 853.381 316.266 853.381L-83.3302 971.752L-247.057 419.048C-247.057 419.048 89.9214 516.709 47.1733 650.002Z" fill="#99EF56" fill-opacity="0.34"/>
<path d="M463.543 408.535C441.052 472.804 428.123 529.147 320.94 455.974C197.038 391.534 23.4663 342.522 161.856 275.901C229.131 227.233 209.571 226.494 316.034 220.886C449.161 213.872 483.953 350.211 463.543 408.535Z" fill="#1A88E1" fill-opacity="0.34"/>
<path d="M132.14 278.521C132.068 277.095 132.185 275.741 132.927 274.432C133.533 273.356 134.329 272.477 135.315 271.814C137.287 270.478 139.34 269.276 141.466 268.182C142.615 267.591 143.7 266.873 144.822 266.219C146.821 265.062 148.82 263.923 150.81 262.749C150.864 262.713 150.892 262.632 150.937 262.569C151.841 261.592 153.09 261.099 154.211 260.453C157.911 258.319 161.592 256.158 165.319 254.078C170.339 250.778 175.785 248.223 180.887 245.075C181.42 244.743 181.981 244.465 182.515 243.936C180.335 244.026 178.299 244.331 176.237 244.304C174.338 244.286 172.691 243.587 170.982 242.843C167.544 241.336 166.097 238.243 164.424 235.311C163.944 234.468 163.546 233.58 163.103 232.719C160.109 226.927 157.332 221.027 154.754 215.046C154.609 214.714 154.374 214.391 154.546 213.988C154.193 212.723 153.75 211.477 153.858 210.114C153.985 208.59 154.437 207.218 155.27 205.918C156.066 204.671 157.043 203.658 158.309 202.923C158.562 202.779 158.544 202.466 158.761 202.313C162.235 200.645 165.174 201.802 167.897 204.044C168.494 204.537 168.82 205.209 169.1 205.909C170.412 209.182 171.027 212.652 171.823 216.059C172.13 217.368 172.375 218.686 172.592 220.013C173.008 222.488 173.578 224.909 174.645 227.205C174.98 227.913 175.251 228.648 175.477 229.401C176.065 231.284 176.065 231.365 178.019 231.329C181.646 231.267 185.21 231.957 188.801 232.172C190.972 232.307 193.152 232.36 195.332 232.459C197.168 232.54 199.023 232.459 200.859 232.486C202.967 232.468 203.003 232.459 202.514 230.442C201.691 227.034 201.031 223.582 200.262 220.166C199.964 218.839 200.208 217.485 200.081 216.149C199.963 214.696 200.325 213.261 200.298 211.809C200.19 206.25 199.385 200.78 198.01 195.391C197.874 194.871 197.557 194.342 197.964 193.795C201.094 196.063 204.215 198.341 207.191 200.807C208.475 201.865 209.823 202.815 211.415 203.461C212.745 203.999 213.966 204.842 215.16 205.658C215.811 206.106 216.499 206.276 217.168 206.106C218.362 205.801 219.556 205.989 220.75 205.909C222.704 205.765 224.649 206.007 226.584 206.187C228.122 206.33 229.696 206.411 231.207 206.788C231.315 206.814 231.433 206.805 231.541 206.805C234.246 206.752 236.933 207.137 239.637 207.048C242.079 206.967 244.531 207.03 246.982 207.039C247.443 207.039 247.814 206.922 248.23 206.671C250.519 205.29 252.853 203.99 255.159 202.645C257.864 201.085 260.568 199.516 263.264 197.937C263.382 197.866 263.436 197.704 263.517 197.588C263.97 197.328 264.304 197.659 264.657 197.839C266.032 198.529 267.289 199.435 268.7 200.071C270.41 200.843 271.649 199.991 271.459 198.108C271.342 196.951 271.333 195.803 271.351 194.647C271.36 194.234 271.251 193.714 271.848 193.553C271.921 193.831 271.776 194.153 272.029 194.44C273.911 193.911 275.855 194.019 277.8 194.037C280.46 194.064 283.001 194.638 285.525 195.49C287.759 196.243 289.587 197.65 291.622 198.718C292.843 199.354 294.01 200.089 295.204 200.762C296.922 201.73 298.65 202.69 300.36 203.667C302.196 204.716 304.032 205.756 305.85 206.841C306.303 207.11 306.746 207.37 307.198 207.63C308.718 208.482 310.228 209.334 311.739 210.195C313.575 211.253 315.411 212.311 317.248 213.378C320.558 215.297 323.887 217.18 327.207 219.081C330.373 220.892 333.521 222.721 336.705 224.506C339.889 226.29 343.073 228.065 346.22 229.904C348.174 231.042 350.164 232.127 352.1 233.293C355.384 235.266 358.794 237.023 362.041 239.059C362.946 239.623 363.904 240.144 364.836 240.682C365.813 241.246 366.817 241.749 368.002 241.587C367.794 242.224 367.233 242.036 366.781 242.098C364.872 242.358 362.991 242.708 361.39 243.874C360.205 244.734 359.599 245.891 359.807 247.353C359.934 248.276 359.409 248.814 358.839 249.37C357.057 251.128 355.827 253.163 355.465 255.665C355.338 256.553 355.366 257.449 355.393 258.346C355.438 259.852 355.284 261.323 354.85 262.758C354.19 264.918 354.289 266.882 356.225 268.415C356.397 268.55 356.514 268.756 356.614 268.962C357.374 271.061 357.971 273.231 359.237 275.123C360.105 276.432 360.992 277.714 362.24 278.718C363.226 279.516 364.312 280.054 365.542 280.341C366.084 280.467 366.672 280.529 367.016 281.067C367.966 283.13 367.577 285.102 366.636 287.039C366.329 287.595 365.75 287.712 365.216 287.864C363.687 288.313 362.819 289.308 362.53 290.832C362.43 291.173 362.186 291.406 361.914 291.603C359.463 293.379 357.527 295.558 356.324 298.346C355.139 299.449 353.737 300.265 352.417 301.189C349.278 303.386 346.32 305.824 343.335 308.21C341.291 309.85 338.803 310.711 336.65 312.146C336.099 312.505 335.646 312.245 335.33 311.725C333.005 307.932 330.309 304.363 328.157 300.462C326.42 297.315 324.674 294.186 323.055 290.985C322.811 290.5 322.476 290.115 322.006 289.855C321.834 289.684 321.707 289.505 321.825 289.254C323.453 288.546 325.208 288.259 326.908 287.819C333.168 286.178 339.445 284.591 345.714 282.968C346.067 282.879 346.474 282.87 346.736 282.538C346.736 282.063 346.338 281.839 346.058 281.57C341.517 277.149 337.166 272.549 332.706 268.048C328.328 263.627 323.932 259.234 319.563 254.804C318.984 254.221 318.451 254.06 317.664 254.257C311.169 255.898 304.702 257.62 298.207 259.278C296.416 259.736 294.643 260.211 292.852 260.65C292.463 260.749 292.038 260.776 291.739 261.09C291.794 261.646 292.219 261.879 292.526 262.184C296.787 266.344 300.939 270.63 305.1 274.889C305.434 275.23 305.868 275.517 305.85 276.082C305.326 276.737 305.47 277.373 305.877 278.028C306.366 278.835 307.035 279.48 307.696 280.135C308.971 281.39 309.966 282.798 310.192 284.627C310.31 285.605 311.106 286.438 310.834 287.506C310.21 287.873 309.758 287.407 309.288 287.156C307.605 286.241 305.95 285.273 304.322 284.278C303.625 283.856 303.037 283.892 302.332 284.295C297.167 287.29 291.984 290.24 286.819 293.226C284.512 294.562 282.16 295.827 279.872 297.181C279.618 297.333 279.32 297.423 279.157 297.701C279.302 298.221 279.772 298.355 280.143 298.561C284.711 301.153 289.243 303.825 293.811 306.416C298.677 309.178 303.462 312.056 308.365 314.764C309.839 315.58 311.305 316.432 312.725 317.338C313.449 317.795 314.018 317.858 314.787 317.409C317.13 316.055 319.437 314.648 321.834 313.383C322.159 313.213 322.458 312.953 322.865 312.989C323.453 313.374 323.543 314.038 323.76 314.621C324.394 316.298 325.072 317.965 325.913 319.552C328.093 323.704 332.164 325.39 336.677 324C339.997 322.978 343.19 321.66 346.374 320.279C348.925 319.176 351.485 318.064 353.991 316.853C354.325 316.692 354.687 316.575 355.04 316.423C355.754 316.118 356.207 316.333 356.397 317.078C356.56 317.723 356.831 318.36 356.777 319.05C356.641 319.436 356.279 319.588 355.953 319.777C349.812 323.336 343.643 326.869 337.492 330.42C329.025 335.307 320.567 340.203 312.092 345.063C304.593 349.358 297.13 353.724 289.614 358.002C286.484 359.786 283.119 360.683 279.51 360.889C276.045 361.086 272.68 360.745 269.397 359.651C267.922 359.158 266.539 358.459 265.218 357.679C259.51 354.325 253.73 351.115 248.004 347.797C242.74 344.749 237.421 341.772 232.147 338.732C226.25 335.334 220.343 331.971 214.436 328.591C205.563 323.516 196.68 318.458 187.806 313.374C180.995 309.465 174.184 305.555 167.354 301.664C158.635 296.696 149.96 291.648 141.222 286.708C139.322 285.632 137.369 284.645 135.587 283.399C133.895 282.188 132.439 280.745 132.14 278.521Z" fill="#E1ECFE"/>
<path d="M429.539 258.382C428.064 259.619 426.472 259.413 424.916 258.642C423.541 257.96 422.239 257.162 420.909 256.4C415.428 253.271 409.946 250.132 404.455 247.003C404.148 246.788 404.075 246.447 404.075 246.115C404.057 242.825 403.94 239.525 404.139 236.234C404.184 236.046 404.265 235.866 404.401 235.723C405.079 235.185 405.875 234.844 406.617 234.405C407.332 233.992 407.549 233.544 407.151 232.764C405.957 230.397 404.745 228.039 403.542 225.671C402.067 222.784 400.647 219.861 399.137 216.983C398.63 216.023 398.078 215.091 397.617 214.113C397.3 213.441 396.857 213.387 396.251 213.773C395.518 214.23 394.731 214.598 394.017 215.091C390.86 217.565 387.793 220.139 384.673 222.659C383.651 223.492 383.642 224.057 384.827 224.559C386.735 225.367 387.251 226.694 387.115 228.63C386.961 230.854 387.097 233.105 387.061 235.337C387.052 235.804 387.26 236.422 386.545 236.647C384.528 235.651 382.61 234.459 380.666 233.347C368.879 226.613 357.102 219.861 345.316 213.118C333.891 206.581 322.467 200.045 311.042 193.499C309.45 192.584 307.813 191.732 306.266 190.755C302.114 188.119 299.735 184.38 299.699 179.448C299.627 170.114 299.69 160.78 299.708 151.436C299.717 145.195 299.645 138.964 299.762 132.723C299.898 125.702 299.808 118.69 299.853 111.669C299.88 107.715 299.889 103.751 299.898 99.7972C299.898 99.0529 299.934 98.3087 300.151 97.5824C300.721 95.6635 302.322 94.7041 304.303 95.0807C305.054 95.2242 305.742 95.5111 306.393 95.8787C317.266 102.102 328.129 108.333 338.993 114.556C342.837 116.753 346.682 118.941 350.526 121.138C350.689 121.228 350.861 121.281 351.032 121.353C351.485 121.819 351.34 122.411 351.34 122.949C351.349 126.939 351.385 130.929 351.331 134.929C351.304 136.964 352.136 138.39 353.918 139.412C359.852 142.801 365.795 146.173 371.72 149.589C377.608 152.987 383.533 156.305 389.413 159.721C389.675 159.874 389.919 160.044 390.2 160.17C391.276 160.654 391.701 160.421 391.909 159.282C392.045 158.511 392.117 157.731 392.108 156.942C392.099 153.588 392.099 150.226 392.108 146.872C392.108 146.325 391.982 145.742 392.452 145.285C392.94 145.088 393.329 145.366 393.718 145.581C399.028 148.558 404.302 151.616 409.575 154.655C414.134 157.283 418.729 159.847 423.297 162.465C423.758 162.725 424.193 163.012 424.636 163.299C427.503 164.85 429.159 167.388 430.452 170.239C431.067 171.468 431.302 172.804 431.375 174.14C431.52 176.893 431.565 179.663 431.33 182.416C431.257 183.232 431.23 184.057 431.23 184.873C431.23 207.523 431.23 230.182 431.23 252.831C431.23 253.8 431.185 254.768 431.04 255.728C430.886 256.84 430.525 257.781 429.539 258.382Z" fill="#343995"/>
<path d="M400.53 313.715C402.33 313.195 404.048 312.433 405.794 311.778C411.864 309.51 417.988 307.385 424.066 305.161C427.241 304.004 430.805 306.129 430.85 309.886C430.886 313.016 430.95 316.154 431.14 319.283C431.294 321.704 431.248 324.134 431.384 326.555C431.601 330.572 431.701 334.599 431.845 338.625C431.972 342.238 432.261 345.852 432.216 349.465C432.162 354.316 431.149 358.988 429.267 363.462C426.979 368.932 423.532 373.586 419.064 377.495C416.685 379.575 414.062 381.324 411.231 382.741C406.898 384.902 402.565 387.027 398.223 389.179C397.925 389.322 397.599 389.412 397.364 389.672C397.21 389.932 396.993 390.129 396.722 390.273C391.566 392.945 386.111 394.568 380.268 394.738C378.223 394.648 376.17 395.007 374.144 394.55C373.8 394.541 373.475 394.478 373.194 394.272C372.896 393.761 373.221 393.402 373.538 393.097C378.83 387.896 380.973 381.189 382.583 374.267C383.967 368.295 384.637 362.225 384.917 356.092C385.062 352.882 385.161 349.671 385.053 346.479C384.863 340.929 384.501 335.379 383.09 329.963C382.846 329.021 382.484 328.125 382.122 327.219C381.525 325.722 380.204 324.977 378.92 324.206C378.603 323.462 379.246 323.22 379.671 322.933C381.507 321.687 383.488 320.682 385.505 319.75C389.946 317.705 394.46 315.822 399.019 314.065C399.498 313.877 399.96 313.563 400.53 313.715Z" fill="#3278CC"/>
<path d="M373.203 394.146C373.502 394.173 373.8 394.191 374.099 394.218C374.85 394.639 374.687 395.375 374.687 396.02C374.705 400.755 374.768 405.498 374.66 410.232C374.624 411.828 375.031 412.895 376.559 413.46C377.075 413.649 377.455 414.142 378.07 414.151C378.396 413.747 378.269 413.281 378.269 412.851C378.278 407.515 378.278 402.18 378.278 396.845C378.278 396.585 378.278 396.325 378.278 396.065C378.314 394.612 378.368 394.55 379.789 394.532C380.015 394.532 380.241 394.559 380.449 394.442C384.836 394.263 389.033 393.258 393.086 391.618C394.542 391.026 395.944 390.317 397.373 389.672C397.988 390.273 398.866 390.237 399.607 390.551C402.249 391.644 404.845 392.828 407.323 394.263C409.512 395.527 411.538 396.998 413.519 398.567C415.518 400.145 417.129 402.055 418.485 404.108C419.752 406.027 420.765 408.143 421.217 410.501C421.47 411.828 421.588 413.129 421.606 414.456C421.642 417.621 420.665 420.526 419.046 423.18C417.599 425.565 415.772 427.717 413.628 429.529C411.584 431.25 409.367 432.748 407.016 434.066C403.994 435.769 400.838 437.177 397.554 438.244C394.813 439.132 392.018 439.84 389.178 440.414C387.143 440.827 385.089 441.132 383.045 441.427C381.996 441.58 380.874 441.598 379.825 441.759C377.591 442.091 375.329 441.679 373.113 442.1C371.051 441.634 368.934 442.217 366.863 441.75C365.967 441.544 365.008 441.625 364.077 441.526C362.041 441.311 360.042 440.907 358.025 440.638C356.035 440.369 354.072 439.93 352.164 439.401C349.35 438.612 346.573 437.67 343.878 436.514C341.607 435.545 339.428 434.424 337.32 433.178C335.502 432.102 333.756 430.883 332.209 429.421C331.694 428.937 331.069 428.578 330.59 428.049C328.591 425.879 326.719 423.629 325.525 420.903C324.674 418.966 324.077 416.957 324.141 414.805C324.159 414.205 324.141 413.613 324.141 413.012C324.62 412.671 325 413.03 325.389 413.2C326.854 413.837 328.021 414.913 329.315 415.819C331.069 417.038 332.779 418.374 335.004 418.643C336.75 418.849 338.369 418.437 339.771 417.352C341.019 416.384 341.164 415.128 340.612 413.729C340.287 411.344 339.663 409.004 339.446 406.592C339.708 405.426 339.446 404.287 339.31 403.14C338.55 396.684 338.034 390.219 338.27 383.718C338.333 381.862 338.387 379.997 338.577 378.141C338.794 377.549 339.219 377.728 339.581 377.934C342.521 379.575 345.488 381.18 348.364 382.929C348.799 383.189 349.088 383.566 349.242 384.05C349.703 386.507 350.056 388.972 350.409 391.438C350.454 391.77 350.445 392.111 350.318 392.425C349.875 392.998 349.432 392.55 349.025 392.38C347.813 391.887 346.772 391.044 345.488 390.676C343.616 390.138 341.617 391.178 341.047 393.025C339.835 395.886 341.381 399.159 344.412 399.903C346.962 400.53 349.151 401.786 351.196 403.355C351.558 403.633 351.919 403.902 352.281 404.162C353.566 405.094 353.566 405.094 354.714 404.027C356.723 402.207 358.984 400.773 361.49 399.732C362.358 399.374 362.566 398.854 362.385 397.993C362.159 396.908 361.842 395.832 361.806 394.711C361.915 393.895 361.978 393.088 361.824 392.263C361.752 391.86 361.77 391.438 362.014 391.071C362.53 390.676 363.027 390.981 363.489 391.169C366.302 392.317 369.196 393.196 372.208 393.662C372.597 393.734 372.932 393.868 373.203 394.146Z" fill="#E1ECFE"/>
<path d="M357.817 327.165C354.714 328.941 351.612 330.716 348.509 332.482C346.157 333.827 343.805 335.172 341.454 336.517C338.613 338.149 335.782 339.79 332.933 341.413C330.807 342.624 328.754 343.978 326.601 345.143C323.028 347.071 319.572 349.187 316.036 351.169C313.241 352.729 310.491 354.361 307.732 355.984C305.136 357.517 302.485 358.97 299.88 360.485C297.501 361.866 295.113 363.247 292.725 364.619C290.817 365.704 288.98 366.923 286.936 367.766C285.353 368.421 283.698 368.806 282.006 369.093C279.645 369.488 277.276 369.398 274.933 369.255C272.228 369.093 269.623 368.394 267.181 367.094C264.087 365.453 261.111 363.606 258.063 361.893C257.936 361.821 257.801 361.768 257.665 361.705C257.231 361.848 257.059 362.198 257.095 362.566C257.339 365.094 257.14 367.632 257.195 370.16C257.204 370.707 257.14 371.272 257.113 371.819C257.068 372.797 256.48 373.335 255.783 373.684C253.187 374.993 250.799 376.661 248.23 378.015C248.004 378.132 247.787 378.302 247.498 378.284C246.982 377.755 247.145 377.092 247.145 376.473C247.136 370.277 247.109 364.09 247.163 357.894C247.172 356.63 246.792 355.85 245.643 355.213C243.373 353.967 241.121 352.684 238.904 351.348C238.678 351.214 238.461 351.061 238.145 351.097C237.738 351.429 237.9 351.904 237.9 352.326C237.891 358.961 237.882 365.605 237.9 372.241C237.9 372.608 237.973 372.985 237.765 373.335C237.521 373.326 237.322 373.254 237.322 372.958C237.322 372.662 237.312 372.357 237.312 372.061C237.312 365.076 237.303 358.091 237.331 351.106C237.331 350.362 237.177 349.905 236.426 349.537C235.132 348.891 233.957 348.013 232.672 347.34C230.528 346.228 228.466 344.955 226.358 343.78C224.224 342.588 222.116 341.341 219.981 340.122C217.747 338.849 215.486 337.629 213.288 336.302C211.596 335.28 209.823 334.41 208.15 333.361C206.485 332.312 204.712 331.415 203.003 330.429C201.972 329.837 200.959 329.21 199.945 328.582C199.177 328.107 198.444 327.945 197.512 328.259C195.368 328.976 193.161 329.434 190.891 329.64C189 329.819 187.101 330.169 185.21 330.034C183.392 329.9 181.565 329.855 179.747 329.658C176.364 329.299 173.089 328.564 169.905 327.389C167.734 326.582 165.672 325.605 163.8 324.188C162.714 323.372 161.674 322.529 160.778 321.534C159.756 320.395 158.861 319.14 158.481 317.643C158.155 316.369 157.983 315.051 157.766 313.742C157.721 313.473 157.983 313.5 158.155 313.482C158.825 314.513 159.06 315.76 159.82 316.764C161.629 319.176 163.872 321.086 166.558 322.44C171.488 324.932 176.744 326.197 182.289 326.421C185.907 326.573 189.489 326.439 193.053 325.775C193.261 325.739 193.505 325.793 193.722 325.506C193.035 325.049 192.329 324.645 191.624 324.242C184.487 320.153 177.359 316.064 170.222 311.976C166.993 310.128 163.781 308.254 160.525 306.461C160.136 306.246 159.693 306.093 159.521 305.618C158.038 304.524 156.346 303.798 154.781 302.839C153.216 301.87 151.606 300.965 150.014 300.041C147.011 298.373 144.044 296.643 141.068 294.939C139.223 293.881 137.323 292.912 135.578 291.711C134.022 290.644 132.755 289.281 132.294 287.344C132.195 286.932 132.167 286.537 132.167 286.134C132.158 283.596 132.167 281.05 132.167 278.512C132.602 278.906 132.556 279.507 132.837 279.982C133.85 281.758 135.369 282.977 137.115 283.973C140.281 285.784 143.465 287.577 146.631 289.389C149.336 290.94 152.04 292.509 154.745 294.06C158.327 296.122 161.909 298.176 165.5 300.229C167.951 301.628 170.43 302.982 172.863 304.408C175.269 305.815 177.712 307.178 180.109 308.604C181.511 309.447 182.949 310.245 184.405 310.998C186.124 311.895 187.707 313.016 189.444 313.894C191.235 314.8 192.899 315.948 194.681 316.889C196.192 317.687 197.648 318.602 199.131 319.454C201.393 320.754 203.654 322.045 205.915 323.345C208.141 324.628 210.366 325.91 212.6 327.183C214.861 328.474 217.141 329.748 219.402 331.039C221.953 332.5 224.486 333.998 227.046 335.441C228.728 336.392 230.42 337.351 232.084 338.329C234.843 339.952 237.611 341.575 240.433 343.081C242.83 344.363 245.083 345.879 247.507 347.107C249.035 347.878 250.447 348.856 251.966 349.663C253.83 350.658 255.657 351.734 257.466 352.828C260.017 354.361 262.64 355.778 265.209 357.284C267.841 358.826 270.654 359.974 273.757 360.378C275.05 360.548 276.38 360.306 277.637 360.763C278.976 360.315 280.378 360.62 281.744 360.378C283.209 360.118 284.648 359.786 286.068 359.347C287.895 358.782 289.505 357.724 291.16 356.8C293.331 355.589 295.475 354.316 297.628 353.079C298.496 352.577 299.365 352.066 300.233 351.563C304.132 349.313 308.021 347.053 311.938 344.838C315.8 342.66 319.59 340.364 323.426 338.149C326.592 336.329 329.83 334.625 332.942 332.724C335.673 331.048 338.487 329.532 341.245 327.9C343.742 326.43 346.257 324.977 348.789 323.552C351.422 322.072 354.027 320.566 356.65 319.068C358.061 321.579 358.486 324.242 357.916 327.058C357.889 327.12 357.844 327.138 357.817 327.165Z" fill="#ACCCFB"/>
<path d="M400.53 313.715C398.748 314.576 396.857 315.195 395.03 315.957C390.408 317.894 385.75 319.75 381.362 322.216C380.449 322.727 379.526 323.229 378.794 323.991C374.678 333.298 372.398 343.198 369.359 352.846C369.214 353.303 369.115 353.787 368.735 354.137C368.454 354.307 368.156 354.28 367.858 354.227C363.669 353.446 359.807 351.994 356.894 348.739C355.167 346.802 354.57 344.543 355.311 342.014C355.574 341.27 355.465 340.454 355.818 339.727C356.379 339.611 356.722 340.014 357.12 340.274C359.409 341.781 361.725 341.718 363.941 340.122C367.324 337.683 369.305 334.213 370.987 330.563C373.24 325.686 374.795 320.575 375.474 315.239C375.989 311.231 376.297 307.205 374.832 303.287C374.036 301.171 372.977 299.207 371.449 297.512C368.274 293.979 364.42 293.513 360.494 296.275C359.472 296.992 358.45 297.674 357.265 298.077C356.921 298.194 356.596 298.454 356.198 298.248C357.084 295.647 358.866 293.71 360.956 292.007C361.417 291.63 361.897 291.272 362.367 290.904C362.801 290.5 363.226 290.841 363.624 290.958C368.798 292.374 373.954 292.141 379.074 290.734C381.064 290.187 382.819 289.146 384.085 287.488C385.315 285.883 386.157 284.17 384.836 282.188C386.066 280.449 387.857 279.794 389.883 279.821C394.415 279.884 397.472 282.717 397.889 287.183C397.97 288.035 398.214 288.77 398.703 289.46C399.652 290.814 400.439 292.258 401.018 293.809C401.851 295.791 402.33 297.862 402.61 299.978C402.674 300.48 402.656 300.947 402.402 301.386C402.402 303.421 402.366 305.457 401.905 307.456C401.597 308.783 401.235 310.102 400.919 311.429C400.756 312.173 400.539 312.926 400.53 313.715Z" fill="#E19F29"/>
<path d="M271.875 193.535C271.703 193.66 271.685 193.84 271.694 194.028C271.785 195.4 271.568 196.772 271.848 198.144C271.984 198.816 271.703 199.48 271.341 200.036C270.853 200.789 270.021 200.95 269.044 200.547C267.868 200.054 266.801 199.363 265.697 198.735C264.992 198.332 264.259 197.955 263.544 197.57C262.296 196.745 261.002 196.01 259.646 195.31C258.768 196.117 258.271 197.175 257.448 198.099C256.932 197.516 256.823 196.808 256.552 196.18C256.136 195.229 255.756 194.261 255.421 193.275C255.277 192.844 255.005 192.611 254.625 192.396C251.93 190.854 249.234 189.303 246.548 187.733C244.259 186.397 243.029 184.353 242.993 181.771C242.911 176.059 242.83 170.338 243.011 164.635C243.165 159.892 243.047 155.157 243.138 150.423C243.138 150.387 243.138 150.351 243.138 150.315C243.165 148.145 244.449 147.365 246.412 148.432C249.171 149.939 251.894 151.526 254.625 153.086C258.822 155.489 263.011 157.892 267.199 160.304C268.393 160.995 269.623 161.622 270.437 162.833C271.314 164.133 271.875 165.523 271.875 167.101C271.875 175.906 271.875 184.721 271.875 193.535Z" fill="#58AEFA"/>
<path d="M400.765 293.782C399.896 292.016 399.01 290.249 397.798 288.68C397.563 288.375 397.635 288.044 397.617 287.712C397.554 286.322 397.282 284.977 396.595 283.757C395.464 281.776 393.673 280.789 391.475 280.287C388.915 279.705 386.844 280.556 384.926 282.099C384.266 282.143 384.085 281.543 383.768 281.184C383.189 280.529 382.619 280.35 381.805 280.798C381.371 281.041 380.919 281.381 380.349 281.229C379.273 280.126 378.558 278.781 377.798 277.472C377.59 277.113 377.463 276.728 377.653 276.306C378.838 274.854 379.191 273.114 379.444 271.33C379.806 268.747 380.358 266.21 381.154 263.708C382.466 259.601 382.131 255.477 380.892 251.397C380.72 250.823 380.259 250.249 380.675 249.603C382.773 250.814 384.854 252.042 386.97 253.217C388.906 254.293 390.851 255.369 392.741 256.535C395.274 258.104 397.906 259.485 400.484 260.982C402.954 262.417 405.441 263.834 407.947 265.223C410.118 266.434 412.325 267.608 414.396 268.998C415.011 269.411 415.744 269.653 416.395 270.012C417.797 270.792 419.19 271.643 420.321 272.737C421.651 274.029 422.573 275.652 422.501 277.642C422.483 278.091 422.492 278.539 422.492 278.987C421.732 281.229 420.149 282.753 418.15 283.928C412.723 287.111 407.25 290.24 401.787 293.361C401.47 293.54 401.163 293.773 400.765 293.782Z" fill="#E1ECFE"/>
<path d="M392.606 145.312C392.28 145.617 392.425 146.02 392.425 146.37C392.407 149.921 392.389 153.472 392.425 157.013C392.434 157.991 392.262 158.932 392.208 159.901C392.171 160.564 391.728 160.905 391.059 160.815C390.697 160.771 390.308 160.672 390.001 160.484C387.296 158.816 384.501 157.291 381.751 155.713C378.992 154.135 376.233 152.557 373.483 150.97C370.471 149.239 367.468 147.5 364.456 145.769C362.149 144.451 359.843 143.151 357.536 141.842C356.044 140.99 354.515 140.192 353.068 139.277C351.756 138.444 351.069 137.197 351.06 135.619C351.06 130.876 351.06 126.132 351.06 121.389C351.069 118.062 351.078 114.736 351.087 111.418C351.087 111.158 351.069 110.889 351.096 110.638C351.222 109.356 352.091 108.889 353.23 109.517C354.542 110.243 355.845 110.997 357.147 111.741C366.88 117.309 376.622 122.877 386.355 128.446C387.622 129.172 388.897 129.889 390.163 130.634C391.683 131.53 392.434 132.848 392.425 134.606C392.425 136.552 392.443 138.488 392.452 140.434C393.058 142.039 392.814 143.68 392.606 145.312Z" fill="#2688FC"/>
<path d="M197.974 193.786C198.761 196.763 199.457 199.749 199.873 202.797C200.335 206.151 200.733 209.504 200.606 212.894C200.561 214.006 200.461 215.118 200.389 216.229C200.109 218.758 200.543 221.26 200.669 223.779C200.805 226.451 200.932 229.115 201.239 231.778C201.284 232.136 201.321 232.54 200.886 232.746C196.11 232.836 191.334 232.719 186.576 232.289C183.51 232.011 180.453 231.589 177.368 231.562C176.843 231.562 176.183 231.894 175.767 231.374C175.441 230.971 175.45 230.397 175.279 229.904C174.917 228.846 174.6 227.77 174.112 226.765C173.189 224.864 172.764 222.838 172.393 220.784C171.597 216.427 170.674 212.105 169.435 207.846C169.363 207.595 169.263 207.352 169.209 207.101C168.178 202.833 162.452 200.753 159.268 202.394C159.069 202.501 158.861 202.636 158.743 202.304C160.218 200.17 162.117 198.422 164.008 196.682C166.568 194.333 169.236 192.109 171.932 189.921C172.131 189.76 172.366 189.634 172.583 189.5C172.963 189.823 172.909 190.244 172.836 190.665C172.086 191.984 170.629 192.548 169.625 193.598C169.471 193.759 169.263 193.867 169.091 194.01C168.196 194.763 168.223 194.898 169.01 195.776C171.95 199.076 175.251 202.044 178.028 205.487C180.878 209.029 183.293 212.858 185.744 216.669C186.558 217.817 187.155 219.108 188.105 220.453C188.576 217.404 189.019 214.562 189.471 211.719C189.788 208.419 190.367 205.147 190.927 201.883C191.362 199.336 191.579 196.79 191.497 194.216C191.443 192.531 191.28 192.306 189.616 191.795C188.829 191.553 187.988 191.481 187.255 191.078C187.101 190.961 186.938 190.737 187.11 190.63C188.033 190.056 188.793 189.195 189.969 189.078C192.112 189.625 194.129 190.468 196.038 191.589C196.934 192.118 197.712 192.728 197.974 193.786Z" fill="#0046A5"/>
<path d="M380.684 249.603C381.308 251.549 381.932 253.495 382.14 255.539C382.421 258.364 382.484 261.197 381.471 263.923C380.548 266.38 380.169 268.953 379.761 271.518C379.626 272.397 379.454 273.275 379.237 274.136C378.993 275.096 378.468 275.912 377.699 276.548C377.527 277.418 376.767 277.759 376.143 278.198C374.705 279.22 373.167 280.036 371.422 280.413C370.707 280.565 370.019 280.592 369.314 280.404C366.51 279.579 363.715 278.727 361.318 276.988C360.341 276.279 359.635 275.329 359.463 274.163C359.219 272.415 358.495 270.989 357.157 269.841C356.903 269.626 356.723 269.339 356.533 269.052C356.261 268.792 356.017 268.514 355.728 268.281C354.298 267.097 353.864 265.528 354.316 263.842C354.968 261.404 355.167 258.956 355.158 256.436C355.149 253.746 356.424 251.504 358.215 249.541C358.387 249.343 358.577 249.164 358.776 248.985C359.346 248.483 359.68 248.016 359.509 247.093C359.273 245.784 359.907 244.627 360.974 243.775C362.656 242.439 364.665 242.009 366.727 241.749C367.17 241.695 367.631 241.784 368.038 241.551C369.124 241.605 370.209 241.56 371.295 241.677C373.285 241.892 374.841 242.807 375.99 244.403C376.433 245.021 376.912 245.497 377.6 245.873C378.875 246.591 379.707 247.738 380.386 249.012C380.476 249.209 380.585 249.406 380.684 249.603Z" fill="#4D2C63"/>
<path d="M154.528 213.979C155.686 216.507 156.853 219.018 157.983 221.556C159.204 224.299 160.516 226.998 161.864 229.679C162.343 230.639 162.823 231.589 163.302 232.549C164.388 239.776 164.388 247.102 165.355 254.329C161.683 256.445 158.01 258.57 154.329 260.677C153.198 261.323 152.131 262.076 150.91 262.569C149.951 259.063 149.218 255.512 148.612 251.926C148.196 249.478 147.934 247.003 147.563 244.546C147.418 243.56 147.382 242.547 147.31 241.551C147.183 239.695 147.083 237.839 146.966 235.983C146.785 233.114 146.776 230.244 146.866 227.384C146.93 225.196 147.047 223.008 147.5 220.847C147.789 219.484 148.495 218.346 149.444 217.386C150.919 215.925 152.61 214.777 154.528 213.979Z" fill="#3AADEE"/>
<path d="M172.339 186.209C170.837 186.039 169.715 185.142 168.603 184.263C165.853 182.066 163.637 179.376 161.855 176.373C159.765 172.858 159.621 169.119 161.005 165.299C161.158 164.886 161.375 164.501 161.312 164.016C161.014 161.864 162.045 160.188 163.411 158.681C165.238 156.655 167.499 155.328 170.204 154.763C172.366 154.306 174.473 153.615 176.717 153.642C177.739 153.651 178.734 153.794 179.711 154.09C182.144 154.835 184.577 155.588 187.001 156.35C187.499 156.502 187.996 156.691 188.467 156.924C190.71 158 191.253 160.744 189.597 162.636C189.046 163.739 187.969 164.016 186.911 164.268C184.713 164.788 182.442 164.931 180.226 165.344C178.969 165.577 177.712 165.792 176.436 165.953C175.45 166.079 174.491 166.106 173.279 165.693C173.912 166.231 174.22 166.724 174.609 167.155C175.369 168.007 175.731 168.993 175.667 170.132C175.631 170.768 175.676 171.405 175.658 172.033C175.622 172.974 175.921 173.781 176.563 174.481C177.965 175.996 178.245 177.843 178.11 179.807C178.082 180.219 177.929 180.605 177.721 180.964C177.431 181.466 177.06 181.878 176.418 181.896C175.722 181.914 175.387 181.43 175.206 180.901C174.654 179.269 173.569 177.978 172.556 176.633C171.877 175.727 171.009 175.108 169.887 174.893C168.684 174.66 167.897 175.162 167.617 176.328C167.228 177.96 167.906 179.394 169.435 180.139C169.607 180.219 169.779 180.327 169.96 180.336C172.456 180.569 173.026 182.586 173.704 184.425C174.102 185.563 173.569 186.182 172.339 186.209Z" fill="#E06B40"/>
<path d="M404.655 235.777C404.582 235.831 404.519 235.893 404.446 235.947C403.94 236.27 403.515 235.992 403.072 235.786C402.674 235.606 402.321 235.275 401.814 235.382C401.48 235.813 401.606 236.306 401.597 236.781C401.588 242.556 401.588 248.33 401.588 254.096C401.588 254.616 401.606 255.136 401.434 255.647C401.082 256.068 400.819 255.647 400.575 255.512C397.744 253.916 394.922 252.293 392.09 250.67C390.562 249.801 389.06 248.877 387.504 248.07C386.826 247.72 386.654 247.299 386.663 246.582C386.699 243.676 386.681 240.771 386.681 237.866C386.681 237.463 386.753 237.041 386.536 236.664C386.826 236.387 386.717 236.037 386.717 235.714C386.726 232.809 386.708 229.904 386.753 226.998C386.762 226.317 386.564 225.896 385.939 225.591C385.306 225.277 384.691 224.909 384.103 224.524C383.226 223.941 383.18 223.546 383.958 222.892C385.894 221.26 387.866 219.655 389.829 218.05C390.923 217.153 392.036 216.265 393.131 215.369C393.384 215.162 393.592 214.866 393.963 214.84C394.56 214.956 394.813 215.431 395.048 215.898C398.214 222.129 401.362 228.379 404.501 234.629C404.7 234.988 404.944 235.355 404.655 235.777Z" fill="#00CB41"/>
<path d="M172.339 186.209C172.402 186.173 172.465 186.137 172.538 186.101C173.659 185.626 173.813 185.196 173.271 184.066C172.936 183.367 172.529 182.694 172.294 181.95C172.104 181.358 171.651 181.116 171.045 180.99C169.779 180.739 168.639 180.282 167.771 179.242C166.785 178.067 166.993 175.61 168.223 174.723C168.793 174.31 169.453 174.436 170.059 174.588C171.262 174.884 172.23 175.53 172.891 176.615C173.488 177.592 174.456 178.318 174.881 179.412C175.107 179.995 175.342 180.578 175.631 181.143C175.993 181.86 176.626 181.932 177.142 181.313C177.477 180.919 177.775 180.443 177.802 179.923C177.884 178.435 177.829 176.964 177.043 175.61C176.853 175.279 176.645 174.983 176.364 174.732C175.604 174.032 175.261 173.18 175.324 172.14C175.369 171.324 175.306 170.499 175.342 169.683C175.378 168.805 175.034 168.105 174.465 167.469C173.877 166.805 173.388 166.052 172.574 165.424C173.216 165.209 173.66 165.505 174.067 165.613C174.636 165.765 175.197 165.801 175.731 165.72C177.377 165.469 179.033 165.263 180.661 164.913C181.891 164.653 183.166 164.59 184.406 164.393C185.536 164.214 186.685 164.088 187.78 163.703C188.458 163.47 189.01 163.021 189.589 162.618C189.58 162.806 189.634 162.976 189.724 163.147C191.154 165.891 191.732 168.841 192.094 171.88C192.447 174.857 192.357 177.834 192.239 180.811C192.158 182.829 191.805 184.855 191.135 186.792C190.855 187.608 190.348 188.298 189.969 189.06C189.064 189.706 188.132 190.298 187.146 190.818C186.821 191.257 186.314 191.293 185.844 191.41C183.438 191.822 181.068 191.732 178.761 190.845C176.753 190.074 174.926 188.989 173.252 187.635C172.891 187.348 172.61 187.016 172.411 186.604C172.393 186.487 172.366 186.352 172.339 186.209Z" fill="#FE9E75"/>
<path d="M429.539 258.382C430.625 257.117 430.851 255.593 430.851 254.024C430.869 230.567 430.842 207.11 430.923 183.662C430.932 180.919 431.068 178.157 431.077 175.404C431.086 173.539 430.769 171.728 430 170.006C430.534 168.222 430.172 166.393 430.29 164.581C430.335 163.9 430.1 163.156 430.652 162.555C433.23 164.868 434.795 167.711 435.184 171.154C435.464 173.638 435.428 176.13 435.202 178.623C435.174 178.919 435.193 179.224 435.193 179.52C435.184 192.028 435.184 204.528 435.165 217.036C435.156 228.568 435.129 240.108 435.12 251.639C435.12 252.392 435.003 253.127 434.885 253.854C434.713 254.885 434.143 255.764 433.248 256.302C432.036 257.028 430.842 257.808 429.539 258.382Z" fill="#4D83DF"/>
<path d="M400.765 293.782C400.864 293.522 401.091 293.406 401.326 293.28C404.012 291.836 406.599 290.213 409.25 288.707C411.086 287.667 412.922 286.609 414.767 285.578C416.287 284.726 417.825 283.892 419.236 282.843C420.33 282.018 421.226 281.067 421.841 279.839C422.004 279.525 422.058 279.104 422.492 278.978C422.492 281.139 422.492 283.309 422.492 285.47C422.492 288.088 421.298 290.052 419.218 291.576C417.282 292.993 415.129 294.042 413.085 295.262C409.566 297.36 405.975 299.342 402.411 301.368C402.239 298.911 401.796 296.508 400.837 294.213C400.783 294.087 400.792 293.935 400.765 293.782Z" fill="#ACCCFB"/>
<path d="M392.606 145.312C392.461 145.088 392.398 144.846 392.398 144.577C392.416 143.196 392.425 141.815 392.434 140.434C393.058 140.748 393.728 141.008 394.316 141.376C397.346 143.286 400.566 144.855 403.623 146.693C406.527 148.441 409.53 149.993 412.416 151.768C414.225 152.871 416.052 153.965 417.924 154.951C421.651 156.906 425.152 159.246 428.924 161.111C428.987 161.138 429.014 161.219 429.059 161.282C427.929 162.178 426.59 162.734 425.369 163.505C425.125 163.658 424.826 163.739 424.537 163.541C420.267 161.111 415.998 158.69 411.728 156.26C407.205 153.678 402.692 151.078 398.16 148.486C396.324 147.41 394.46 146.361 392.606 145.312Z" fill="#BEEBF1"/>
<path d="M172.41 186.621C174.012 187.859 175.604 189.123 177.467 189.975C179.158 190.746 180.886 191.401 182.786 191.311C183.781 191.266 184.803 191.508 185.78 191.105C187.363 193.651 186.06 196.288 183.075 196.53C180.28 196.754 177.603 196.35 175.133 194.934C174.102 194.342 173.261 193.571 172.673 192.539C172.374 192.001 172.184 191.437 172.628 190.863C172.609 190.405 172.6 189.948 172.582 189.491C172.664 188.531 172.211 187.599 172.41 186.621Z" fill="#FE8654"/>
<path d="M401.443 255.647C401.19 255.512 401.244 255.27 401.244 255.055C401.244 248.375 401.244 241.704 401.244 235.024C401.244 234.916 401.28 234.808 401.317 234.629C402.149 234.79 402.836 235.23 403.515 235.642C403.822 235.822 404.103 235.947 404.446 235.947C404.446 239.632 404.455 243.318 404.455 247.003C404.455 249.299 404.455 251.603 404.455 253.961C403.451 254.553 402.492 255.181 401.443 255.647Z" fill="#00A835"/>
<path d="M340.866 413.918C341.879 415.675 340.803 417.182 339.518 417.935C337.329 419.226 335.032 419.414 332.68 418.276C330.708 417.325 329.016 415.971 327.279 414.689C326.312 413.98 325.308 413.353 324.132 413.021C323.67 412.609 323.064 412.582 322.513 412.456C321.409 412.214 320.45 411.739 319.609 411.004C319.157 410.34 318.623 409.703 318.361 408.941C317.954 407.758 317.646 406.547 318.442 405.381C318.958 405.767 318.93 406.359 319.021 406.897C319.256 408.188 319.862 409.156 321.101 409.757C322.892 410.627 324.674 411.515 326.465 412.393C327.659 412.976 328.727 413.694 329.686 414.617C332.001 416.832 335.855 417.361 338.604 415.944C339.22 415.621 339.717 415.2 340.097 414.617C340.296 414.339 340.359 413.873 340.866 413.918Z" fill="#94A2BF"/>
<path d="M424.546 163.523C425.369 163.353 425.966 162.752 426.689 162.402C427.476 162.026 428.128 161.362 429.059 161.273C429.611 161.676 430.244 161.981 430.651 162.564C430.642 164.635 430.642 166.715 430.633 168.787C430.633 169.298 430.678 169.845 430 170.006C428.842 167.298 427.096 165.084 424.546 163.523Z" fill="#4AB6ED"/>
<path d="M356.207 298.248C357.012 297.97 357.699 297.45 358.577 297.279C359.038 297.19 359.418 296.696 359.834 296.383C361.77 294.939 363.877 294.033 366.365 294.222C367.921 294.338 369.232 295.011 370.363 296.006C373.294 298.579 374.958 301.897 375.863 305.6C376.224 307.107 376.17 308.694 376.161 310.254C376.152 313.294 375.7 316.271 375.076 319.239C374.081 323.955 372.498 328.456 370.263 332.733C369.287 334.599 368.129 336.356 366.763 337.997C365.858 339.082 364.8 339.952 363.678 340.687C362.077 341.736 360.304 342.086 358.378 341.279C357.428 340.875 356.677 340.248 355.818 339.727C356.017 338.149 356.46 336.625 356.786 335.074C357.328 332.464 357.898 329.855 357.817 327.165C358.016 324.385 357.455 321.722 356.632 319.095C356.388 318.207 356.252 317.302 355.872 316.369C353.936 317.239 352.046 318.118 350.137 318.961C345.904 320.835 341.662 322.7 337.247 324.152C335.465 324.744 333.647 324.914 331.82 324.565C328.998 324.027 327.089 322.251 325.769 319.83C324.629 317.741 323.797 315.508 322.992 313.267C322.955 313.168 322.865 313.096 322.802 313.007C321.942 312.02 321.761 310.738 321.3 309.582C320.748 308.21 320.35 306.784 319.844 305.394C319.672 304.946 319.509 304.479 319.364 304.022C319.301 303.825 319.229 303.628 319.165 303.43C319.039 303.045 318.921 302.659 318.776 302.283C318.695 302.041 318.614 301.789 318.523 301.556C318.405 301.198 318.27 300.839 318.152 300.48C317.474 298.579 316.859 296.661 316.216 294.751C316.063 294.293 315.909 293.827 316.045 293.334C316.967 291.236 318.677 290.106 320.83 289.514C321.282 289.389 321.716 289.451 322.123 289.693C322.693 289.586 322.901 289.953 323.127 290.384C323.896 291.872 324.701 293.343 325.47 294.831C327.921 299.53 330.581 304.103 333.629 308.461C334.461 309.653 335.203 310.909 336.035 312.218C337.492 311.321 338.921 310.433 340.449 309.743C342.647 308.748 344.303 307.044 346.157 305.6C349.296 303.161 352.426 300.731 355.773 298.588C355.917 298.49 356.062 298.355 356.207 298.248Z" fill="#FEBD3D"/>
<path d="M305.815 276.019C304.874 275.06 303.915 274.109 302.983 273.132C302.115 272.226 301.292 271.267 300.405 270.37C297.366 267.331 294.309 264.309 291.269 261.278C291.215 261.224 291.188 261.152 291.143 261.09C291.188 260.731 291.432 260.65 291.758 260.579C297.448 259.243 303.083 257.682 308.754 256.266C311.947 255.468 315.122 254.607 318.316 253.791C318.759 253.674 319.066 253.728 319.32 253.997C322.603 257.53 326.203 260.758 329.505 264.264C332.96 267.931 336.678 271.348 340.115 275.024C342.34 277.409 344.71 279.633 346.963 281.982C347.116 282.143 347.261 282.314 347.388 282.448C347.379 282.762 347.198 282.915 346.981 282.968C343.969 283.731 340.947 284.466 337.935 285.237C333.783 286.304 329.631 287.416 325.48 288.474C324.304 288.77 323.137 289.191 321.907 289.263C321.246 288.842 321.273 288.151 321.391 287.559C321.744 285.802 321.31 284.161 320.758 282.529C320.36 281.363 319.889 280.225 319.482 279.068C319.392 278.799 319.274 278.449 318.885 278.503C318.533 278.548 318.433 278.88 318.388 279.175C318.243 280.036 318.316 280.879 318.614 281.704C318.876 282.412 319.057 283.13 318.976 283.892C318.858 285.013 318.153 285.461 317.085 285.067C315.593 284.52 314.218 283.722 313.078 282.628C310.862 280.503 308.727 278.306 306.185 276.548C306.005 276.432 305.842 276.261 305.815 276.019Z" fill="#FEFEFE"/>
<path d="M216.698 234.145C217.141 234.145 217.494 233.903 217.829 233.688C219.846 232.343 222.026 231.284 224.106 230.056C224.468 229.841 224.721 229.904 225.029 230.083C226.576 230.971 228.122 231.876 229.678 232.746C231.84 233.966 233.966 235.257 236.11 236.503C238.525 237.902 240.967 239.256 243.373 240.664C244.902 241.56 246.422 242.493 248.004 243.327C250.067 244.421 252.057 245.649 254.074 246.824C255.811 247.828 257.548 248.841 259.284 249.845C259.447 249.944 259.601 250.043 259.655 250.276C259.538 250.688 259.158 250.85 258.805 251.056C257.348 251.89 255.91 252.733 254.454 253.567C253.043 254.374 251.623 255.181 250.203 255.988C248.62 256.893 247.028 257.79 245.445 258.696C243.608 259.754 241.763 260.803 239.936 261.879C238.688 262.614 237.34 263.179 236.164 264.058C235.44 264.605 234.753 264.605 233.939 264.103C231.243 262.444 228.502 260.866 225.734 259.332C223.591 258.14 221.483 256.866 219.366 255.638C217.856 254.768 216.345 253.907 214.835 253.038C214.039 252.58 213.252 252.105 212.456 251.639C209.751 250.07 207.083 248.447 204.333 246.958C202.795 246.124 201.348 245.156 199.792 244.367C199.9 243.712 200.425 243.587 200.823 243.354C202.397 242.448 203.98 241.56 205.563 240.664C205.816 240.52 206.06 240.35 206.314 240.188C206.938 239.973 207.399 240.386 207.879 240.637C208.937 241.175 210.031 241.587 211.234 241.444C212.618 241.273 213.74 241.641 214.554 242.798C215.45 247.12 218.878 248.097 222.541 248.581C224.83 248.886 227.118 248.509 229.325 247.774C230.483 247.389 231.505 246.779 232.365 245.9C233.975 244.25 233.812 241.964 232.003 240.502C231.306 239.937 230.646 239.857 229.841 240.332C228.294 241.255 226.729 242.143 225.174 243.049C224.477 243.452 223.808 243.578 223.03 243.318C221.221 242.708 219.321 242.376 217.575 241.551C217.403 241.067 217.603 240.735 218.028 240.502C219.556 240.529 220.949 241.148 222.369 241.587C223.464 241.919 224.387 241.883 225.364 241.264C226.485 240.538 227.706 239.964 228.828 239.193C228.629 238.745 228.213 238.709 227.887 238.61C225.029 237.767 222.189 237.749 219.393 238.906C218.95 239.085 218.525 239.381 218.001 239.202C217.521 237.507 216.906 235.875 216.698 234.145Z" fill="#FDFEFD"/>
<path d="M316.244 293.307C316.126 293.693 316.271 294.024 316.397 294.383C317.094 296.409 317.754 298.454 318.433 300.489C318.324 300.839 318.026 301 317.727 301.171C313.828 303.421 309.912 305.654 306.004 307.878C305.633 308.093 305.181 308.219 305.009 308.712C305.57 308.954 305.932 308.622 306.294 308.398C310.038 306.174 313.874 304.112 317.619 301.897C317.962 301.691 318.279 301.368 318.749 301.574C318.993 301.745 318.939 302.014 318.957 302.247C318.541 302.982 317.718 303.161 317.085 303.592C316.696 303.861 316.189 303.968 315.909 304.488C316.452 304.793 316.823 304.417 317.257 304.264C317.971 304.013 318.478 303.251 319.364 303.394C319.455 303.529 319.59 303.655 319.545 303.843C319.419 304.291 319.003 304.435 318.659 304.65C317.411 305.421 316.126 306.12 314.86 306.847C314.516 307.044 314.091 307.16 313.919 307.618C314.407 307.95 314.778 307.618 315.158 307.421C316.434 306.775 317.582 305.923 318.876 305.313C319.247 305.143 319.591 304.838 320.016 305.179C320.938 307.788 321.861 310.397 322.784 313.007C321.924 313.868 320.748 314.208 319.744 314.836C318.044 315.903 316.271 316.862 314.552 317.903C314.037 318.207 313.602 318.198 313.105 317.885C310.4 316.19 307.623 314.612 304.819 313.07C302.567 311.832 300.414 310.433 298.171 309.187C296.968 308.514 295.819 307.752 294.598 307.116C292.915 306.246 291.296 305.242 289.65 304.291C288.42 303.583 287.189 302.892 285.968 302.184C285.1 301.682 284.204 301.216 283.363 300.669C281.988 299.772 280.496 299.082 279.103 298.23C278.877 298.086 278.669 297.934 278.497 297.62C279.609 296.965 280.695 296.266 281.835 295.674C284.15 294.473 286.357 293.092 288.637 291.81C290.771 290.617 292.852 289.317 295.005 288.142C297.058 287.021 299.048 285.802 301.074 284.636C301.3 284.511 301.608 284.43 301.744 284.286C303.119 282.933 304.295 283.784 305.489 284.556C307.017 285.551 308.636 286.394 310.228 287.281C310.382 287.371 310.572 287.407 310.753 287.47C310.934 287.568 311.024 287.73 311.052 287.918C311.386 290.052 312.824 291.164 314.733 291.863C315.086 291.989 315.439 292.123 315.755 292.321C316.099 292.563 316.461 292.796 316.244 293.307Z" fill="#FDFEFD"/>
<path d="M265.48 231.007C265.471 228.361 266.376 226.057 268.121 224.075C269.695 222.282 271.586 220.892 273.702 219.789C277.122 218.005 280.767 216.992 284.566 216.382C287.786 215.871 291.007 215.817 294.227 216.032C299.111 216.355 303.833 217.44 308.229 219.709C308.98 220.094 309.333 220.516 309.197 221.331C309.107 221.43 308.998 221.439 308.89 221.358C308.392 220.937 307.967 221.287 307.551 221.52C306.239 222.255 304.919 222.972 303.661 223.779C302.856 224.299 302.114 224.326 301.228 223.923C294.751 220.991 288.175 221.036 281.617 223.555C279.401 224.407 277.411 225.743 276.172 227.886C275.385 229.249 275.123 230.675 275.683 232.181C276.217 234.001 277.628 235.122 279.012 236.27C279.365 236.557 279.935 236.691 279.826 237.337C277.909 238.727 275.783 239.767 273.739 240.951C273.042 241.354 272.346 241.004 271.74 240.583C268.745 238.449 266.213 235.965 265.335 232.226C265.236 231.805 265.362 231.41 265.48 231.007Z" fill="#FE5668"/>
<path d="M265.48 231.007C265.507 231.446 265.534 231.885 265.561 232.325C265.751 232.97 265.869 233.634 265.851 234.297C265.769 237.642 267.506 240.099 269.84 242.242C270.808 243.129 271.92 243.838 273.051 244.519C277.483 246.904 282.223 248.16 287.234 248.644C291.205 249.03 295.113 248.698 299.021 248.133C302.476 247.514 305.75 246.411 308.826 244.734C311.612 243.219 313.982 241.282 315.438 238.404C315.71 237.866 315.9 237.31 316.062 236.736C316.153 236.404 316.126 235.956 316.641 235.893C317.347 238.987 316.307 241.614 314.47 244.053C313.005 245.999 311.096 247.371 309.016 248.59C305.633 250.572 301.96 251.72 298.152 252.455C296.596 252.751 294.986 252.885 293.385 253.002C291.739 253.127 290.093 253.19 288.446 253.181C287.216 253.172 286.013 252.903 284.792 252.796C283.526 252.688 282.277 252.535 281.038 252.284C277.329 251.531 273.793 250.339 270.527 248.402C268.646 247.29 266.999 245.927 265.543 244.322C264.277 242.914 263.472 241.273 263.065 239.426C262.459 236.682 263.227 234.243 264.738 231.975C264.964 231.643 265.1 231.222 265.48 231.007Z" fill="#ACCCFB"/>
<path d="M209.941 286.152C211.442 284.977 213.161 284.152 214.834 283.219C219.294 285.784 223.744 288.339 228.185 290.877C231.885 292.993 235.603 295.1 239.302 297.225C243.463 299.602 247.606 301.996 251.767 304.381C253.07 305.125 254.363 305.869 255.684 306.569C256.462 306.981 256.923 307.51 256.715 308.416C256.643 308.748 256.95 309.178 256.462 309.402C256.1 309.061 256.353 308.523 256.046 308.084C254.96 308.362 254.029 308.999 253.115 309.599C252.174 310.218 251.351 310.173 250.392 309.626C238.452 302.83 226.557 295.97 214.626 289.155C213.423 288.465 212.238 287.73 211.008 287.084C210.583 286.869 210.176 286.609 209.941 286.152Z" fill="#7974F4"/>
<path d="M200.235 291.756C200.697 291.012 201.583 290.895 202.243 290.438C203.03 289.882 203.935 289.496 204.785 289.012C205.111 288.824 205.373 288.824 205.717 289.03C209.688 291.334 213.668 293.621 217.657 295.907C221.709 298.23 225.762 300.534 229.814 302.848C232.41 304.327 235.006 305.798 237.602 307.277C237.765 307.367 237.928 307.465 237.937 307.681C236.499 308.999 234.871 309.985 232.98 310.55C232.446 310.469 231.994 310.2 231.542 309.931C223.347 305.152 215.061 300.516 206.848 295.755C205.029 294.706 203.211 293.648 201.366 292.643C200.941 292.41 200.525 292.168 200.235 291.756Z" fill="#58AEFA"/>
<path d="M273.468 332.572C273.368 331.801 273.748 331.326 274.417 330.976C276.362 329.972 278.244 328.86 280.116 327.721C281.355 326.977 282.64 326.286 283.906 325.578C286.493 324.116 289.071 322.628 291.649 321.14C293.775 319.92 295.901 318.692 298.026 317.463C298.316 317.293 298.587 317.096 298.876 316.925C300.215 316.172 301.545 316.127 302.893 316.925C303.761 317.436 304.657 317.885 305.534 318.378C307.406 319.445 309.279 320.512 311.142 321.588C312.978 322.646 314.833 323.677 316.642 324.78C317.818 325.488 319.111 326.008 320.197 326.869C320.839 327.371 320.857 327.335 320.522 328.223C320.541 328.716 320.188 328.932 319.817 329.147C311.667 333.809 303.553 338.544 295.394 343.207C294.082 343.96 292.753 344.049 291.423 343.305C285.688 340.095 280.008 336.786 274.291 333.54C273.902 333.334 273.431 333.146 273.468 332.572Z" fill="#F0F7FB"/>
<path d="M308.998 221.349C309.071 221.358 309.134 221.349 309.197 221.331C310.364 222.183 311.585 222.963 312.671 223.941C315.14 226.156 316.741 228.747 316.669 232.154C316.66 232.522 316.651 232.898 316.633 233.266C316.289 237.032 313.765 239.301 311.015 241.462C309.695 242.493 308.546 242.529 307.162 241.605C305.579 240.547 303.842 239.731 302.223 238.718C302.015 238.063 302.594 237.911 302.947 237.66C304.078 236.871 305.136 236.028 305.869 234.817C306.258 234.172 306.565 233.517 306.601 232.764C307.153 230.935 306.466 229.455 305.299 228.092C304.43 227.07 303.273 226.371 302.35 225.402C302.332 225.053 302.549 224.846 302.811 224.694C304.684 223.591 306.547 222.488 308.447 221.448C308.618 221.349 308.808 221.331 308.998 221.349Z" fill="#58AEFA"/>
<path d="M380.413 281.202C381.1 280.87 381.806 280.547 382.484 280.198C382.864 280 383.118 280.153 383.362 280.422C383.886 280.987 384.402 281.552 384.927 282.108C386.003 282.95 386.021 284.009 385.659 285.21C385.135 286.923 384.067 288.232 382.665 289.29C380.829 290.68 378.685 291.352 376.451 291.711C374.75 291.989 373.032 292.159 371.304 292.195C368.256 292.267 365.271 291.899 362.376 290.895C362.557 289.666 362.774 288.51 364.203 287.99C364.945 287.721 365.705 287.452 366.42 287.102C366.727 286.618 367.252 286.492 367.731 286.304C371.63 284.771 375.456 283.076 379.273 281.363C379.626 281.193 379.988 280.915 380.413 281.202Z" fill="#FEFEFE"/>
<path d="M165.364 254.338C165.03 254.311 164.975 254.087 164.939 253.8C164.812 252.625 164.559 251.46 164.532 250.285C164.496 248.949 164.306 247.631 164.234 246.295C164.089 243.712 163.781 241.139 163.628 238.556C163.564 237.48 163.338 236.431 163.347 235.346C163.347 234.79 163.329 234.243 163.184 233.697C163.094 233.347 162.94 232.898 163.311 232.558C164.541 234.988 165.807 237.391 167.354 239.65C168.069 240.699 168.955 241.524 170.176 241.955C170.475 242.062 170.692 242.251 170.936 242.421C172.366 243.398 173.948 243.91 175.676 243.999C177.784 244.116 179.873 243.847 181.972 243.641C182.37 243.605 182.777 243.569 183.32 243.524C182.894 244.161 182.433 244.519 181.918 244.815C178.507 246.779 175.17 248.877 171.66 250.661C169.471 251.773 167.517 253.208 165.364 254.338Z" fill="#003782"/>
<path d="M210.592 304.013C210.863 304.865 210.384 305.295 209.687 305.663C208.53 306.273 207.39 306.927 206.268 307.618C205.807 307.896 205.463 307.833 205.038 307.582C200.615 305.044 196.183 302.516 191.759 299.987C190.692 299.377 190.375 298.588 190.674 297.396C190.746 297.109 190.945 296.956 191.171 296.822C192.465 296.06 193.767 295.324 195.061 294.553C195.495 294.293 195.839 294.455 196.21 294.67C197.964 295.674 199.728 296.661 201.492 297.665C204.224 299.225 206.947 300.821 209.697 302.345C210.402 302.74 210.836 303.161 210.592 304.013Z" fill="#FD3D9C"/>
<path d="M316.244 293.307C316.271 292.832 315.9 292.697 315.565 292.545C314.923 292.258 314.281 291.98 313.639 291.702C311.784 290.895 310.862 289.469 310.753 287.488C310.473 285.972 309.885 284.538 309.523 283.04C309.315 282.179 308.6 281.453 307.958 280.772C307.216 279.991 306.375 279.292 305.787 278.368C305.57 278.028 305.344 277.669 305.208 277.292C304.982 276.674 305.154 276.369 305.823 276.01C307.56 276.934 308.935 278.333 310.391 279.606C311.205 280.323 311.956 281.121 312.716 281.892C314.018 283.219 315.583 284.152 317.293 284.842C318.152 285.192 318.668 284.851 318.722 283.928C318.767 283.21 318.695 282.52 318.369 281.866C317.971 281.067 317.998 280.207 318.026 279.355C318.044 278.718 318.288 278.207 318.858 277.875C319.473 277.956 319.636 278.449 319.799 278.889C320.359 280.413 320.947 281.928 321.4 283.488C321.761 284.717 322.078 285.972 321.707 287.299C321.526 287.936 321.626 288.635 321.915 289.263C321.988 289.406 322.051 289.55 322.123 289.684C319.437 289.756 317.6 291.146 316.244 293.307Z" fill="#FEA983"/>
<path d="M218.054 240.601C217.783 240.843 217.647 241.139 217.629 241.498C216.824 242.52 215.838 243.147 214.454 242.914C214.255 242.825 214.056 242.708 213.848 242.654C213.359 242.529 213.368 242.179 213.432 241.677C210.836 242.134 208.475 241.551 206.295 240.188C205.897 239.803 205.363 239.803 204.793 239.641C205.752 237.785 205.861 235.831 205.372 233.885C205.689 233.589 206.005 233.688 206.286 233.697C208.529 233.732 210.763 233.508 212.998 233.275C213.667 233.203 214.354 233.293 215.024 233.212C215.856 233.105 216.363 233.428 216.688 234.145C216.634 234.539 216.788 234.889 217.014 235.167C217.665 236.001 217.864 236.933 217.846 237.956C217.837 238.332 217.683 238.772 218.063 239.094C218.47 239.606 218.47 240.108 218.054 240.601Z" fill="#FE9E75"/>
<path d="M209.941 286.152C213.64 288.277 217.331 290.402 221.031 292.527C224.54 294.535 228.05 296.535 231.56 298.544C235.684 300.902 239.809 303.269 243.934 305.627C246.24 306.945 248.556 308.245 250.845 309.59C251.514 309.985 252.057 309.967 252.708 309.555C253.866 308.819 255.078 308.156 256.399 307.403C256.579 308.129 256.48 308.774 256.471 309.42C254.879 310.335 253.287 311.24 251.668 312.173C248.384 310.299 245.101 308.425 241.817 306.551C231.641 300.731 221.465 294.903 211.289 289.075C209.633 288.106 209.633 288.115 209.941 286.152Z" fill="#3F0A96"/>
<path d="M259.356 205.747C259.637 206.501 259.166 206.788 258.641 206.94C258.072 207.101 257.493 207.245 256.878 207.218C256.398 207.191 255.892 207.164 255.457 207.621C257.637 207.98 259.546 207.442 261.283 206.241C262.015 205.729 262.694 205.129 263.418 204.609C263.779 204.349 264.159 204.124 264.612 203.999C264.973 203.9 265.29 203.829 265.498 204.187C265.679 204.501 265.625 204.842 265.353 205.111C265.055 205.398 264.783 205.712 264.458 205.963C263.381 206.761 262.386 207.586 262.359 209.074C262.359 209.244 262.242 209.433 262.124 209.576C260.894 211.029 259.727 212.553 257.972 213.45C257.312 213.791 256.661 213.952 255.837 213.826C253.992 213.557 252.138 213.342 250.329 212.867C249.922 212.759 249.542 212.966 248.972 213.046C249.578 211.316 249.641 209.684 248.963 207.989C250.347 207.72 251.324 206.913 252.282 206.088C252.889 205.568 253.567 205.407 254.372 205.452C255.503 205.514 256.633 205.487 257.764 205.46C258.334 205.434 258.859 205.568 259.356 205.747Z" fill="#FE9E75"/>
<path d="M200.235 291.756C201.872 292.473 203.365 293.459 204.92 294.329C207.752 295.916 210.556 297.548 213.369 299.162C216.508 300.965 219.637 302.776 222.776 304.569C225.038 305.869 227.317 307.143 229.588 308.434C230.727 309.079 231.858 309.716 232.998 310.362C233.486 311.043 233.468 311.733 232.998 312.415C231.605 311.832 230.356 310.998 229.063 310.263C222.025 306.255 215.015 302.22 207.987 298.194C205.744 296.912 203.509 295.593 201.239 294.374C200.434 293.944 200.063 293.424 200.208 292.536C200.244 292.285 200.226 292.016 200.235 291.756Z" fill="#3548DA"/>
<path d="M169.679 279.077C171.027 278.297 172.321 277.553 173.551 276.835C178.408 278.7 183.031 278.727 187.454 275.723C188.711 276.441 190.005 277.176 191.298 277.911C191.181 278.351 190.837 278.53 190.52 278.709C188.06 280.126 185.391 280.915 182.569 281.238C181.294 281.381 180.027 281.471 178.752 281.408C176.011 281.274 173.334 280.772 170.792 279.722C170.512 279.606 170.249 279.471 169.987 279.328C169.887 279.274 169.815 279.184 169.679 279.077Z" fill="#3EAAFE"/>
<path d="M380.413 281.202C378.233 282.161 376.044 283.103 373.864 284.071C371.413 285.165 368.925 286.169 366.411 287.111C366.519 286.304 366.98 285.623 367.143 284.816C367.369 283.686 367.333 282.628 366.926 281.57C366.863 281.399 366.854 281.211 366.818 281.023C366.863 280.431 367.378 280.565 367.722 280.44C368.247 280.26 368.826 280.395 369.332 280.153C370.3 280.458 371.241 280.243 372.154 279.938C374.262 279.238 376.116 278.117 377.699 276.557C378.26 278.028 379.228 279.247 380.096 280.529C380.232 280.736 380.467 280.897 380.413 281.202Z" fill="#CD7C56"/>
<path d="M189.824 266.766C188.567 267.671 187.255 268.299 186.007 269.061C181.611 267.169 177.232 267.151 172.818 269.294C171.597 268.577 170.322 267.824 169.028 267.062C173.433 263.789 184.098 263.304 189.824 266.766Z" fill="#7CCBFD"/>
<path d="M168.314 267.295C169.688 268.084 170.982 268.837 172.357 269.626C171.353 270.63 170.358 271.608 170.557 273.159C170.747 274.638 171.706 275.598 172.918 276.468C171.76 277.373 170.475 277.911 169.327 278.655C169.055 278.826 168.82 278.691 168.594 278.548C167.038 277.517 165.654 276.324 165.111 274.468C164.578 272.648 164.84 270.962 166.043 269.42C166.685 268.604 167.481 268.003 168.314 267.295Z" fill="#3EAAFE"/>
<path d="M178.308 292.419C178.082 292.419 177.938 292.419 177.784 292.419C177.44 292.41 177.214 292.249 177.151 291.899C177.105 291.63 177.16 291.424 177.449 291.254C178.245 290.778 178.978 290.178 179.81 289.765C182.804 288.25 185.644 286.456 188.575 284.816C192.049 282.87 195.468 280.816 198.923 278.835C200.09 278.162 201.302 277.579 202.478 276.934C202.903 276.701 203.346 276.674 203.79 276.746C204.142 276.799 204.396 277.059 204.486 277.4C204.577 277.75 204.332 277.92 204.043 278.082C203.093 278.602 202.161 279.149 201.23 279.687C198.679 281.157 196.137 282.628 193.577 284.089C191.126 285.488 188.656 286.869 186.205 288.268C184.007 289.523 181.818 290.796 179.629 292.079C179.186 292.33 178.752 292.491 178.308 292.419Z" fill="#ADCDFB"/>
<path d="M273.467 332.572C274.327 333.496 275.521 333.89 276.57 334.509C279.139 336.033 281.753 337.486 284.349 338.965C286.719 340.319 289.08 341.673 291.45 343.027C292.734 343.762 293.974 343.7 295.267 342.946C299.139 340.687 303.046 338.481 306.927 336.239C310.807 333.998 314.679 331.738 318.559 329.488C319.229 329.102 320.007 328.887 320.504 328.232C320.893 329.075 320.866 329.263 320.187 329.658C317.058 331.478 313.928 333.298 310.789 335.11C306.23 337.746 301.68 340.373 297.112 343C296.371 343.431 295.602 343.816 294.851 344.238C293.775 344.838 292.707 344.83 291.649 344.229C289.406 342.964 287.162 341.691 284.928 340.418C282.694 339.145 280.46 337.862 278.225 336.58C276.796 335.764 275.376 334.948 273.956 334.114C273.305 333.729 273.205 333.361 273.467 332.572Z" fill="#8EA0FC"/>
<path d="M191.886 277.651C190.52 276.862 189.209 276.1 187.825 275.293C188.63 274.342 188.874 273.24 188.648 272.083C188.422 270.926 187.436 270.254 186.631 269.429C187.345 268.72 188.277 268.469 189.028 267.931C189.236 267.779 189.48 267.662 189.697 267.528C190.566 266.99 190.638 266.981 191.425 267.698C191.895 268.12 192.329 268.586 192.8 269.025C194.564 270.684 194.672 272.737 194.075 274.871C193.75 276.01 192.863 276.808 191.886 277.651Z" fill="#7CCBFE"/>
<path d="M190.945 290.213C191.063 289.873 191.262 289.702 191.488 289.568C193.315 288.501 195.115 287.38 196.997 286.403C198.851 285.443 200.569 284.269 202.442 283.327C204.034 282.529 205.463 281.444 207.091 280.709C207.489 280.529 207.743 280.189 208.222 280.045C209.099 279.785 209.651 280.018 210.113 280.646C210.14 280.87 210.058 281.005 209.932 281.076C207.842 282.215 205.861 283.533 203.744 284.636C201.664 285.712 199.683 286.968 197.648 288.133C196.164 288.985 194.681 289.837 193.161 290.635C192.284 291.092 191.623 290.931 190.945 290.213Z" fill="#ADCDFB"/>
<path d="M302.223 238.637C302.54 238.583 302.775 238.718 303.046 238.879C304.847 239.928 306.674 240.933 308.474 241.982C308.926 242.242 309.306 242.233 309.722 241.964C311.739 240.619 313.657 239.166 314.987 237.077C315.692 235.974 316.271 234.844 316.452 233.526C316.461 233.436 316.57 233.356 316.633 233.275C316.633 234.154 316.642 235.033 316.642 235.911C316.398 236.638 316.217 237.382 315.909 238.081C314.914 240.341 313.304 242.107 311.296 243.533C310.572 244.044 309.876 244.6 309.035 244.923C308.32 243.757 307.081 243.264 305.959 242.636C304.892 242.036 303.852 241.372 302.766 240.798C302.431 240.619 302.115 240.422 301.979 240.045C301.88 239.534 301.789 239.041 302.223 238.637Z" fill="#3378CC"/>
<path d="M207.426 279.247C206.938 280.045 206.06 280.216 205.373 280.628C202.406 282.395 199.385 284.062 196.382 285.775C195.92 286.035 195.423 285.963 194.962 285.865C194.645 285.802 194.364 285.533 194.337 285.147C194.319 284.851 194.536 284.708 194.781 284.564C195.785 284 196.78 283.426 197.784 282.852C199.937 281.614 202.089 280.386 204.224 279.131C204.957 278.7 205.689 278.458 206.549 278.503C207.073 278.521 207.291 278.745 207.426 279.247Z" fill="#ADCDFB"/>
<path d="M369.332 280.144C368.906 280.781 368.174 280.574 367.586 280.754C367.324 280.834 366.998 280.682 366.817 281.014C366.401 280.637 365.84 280.682 365.352 280.565C363.515 280.162 362.086 279.131 360.883 277.786C358.694 275.329 357.392 272.415 356.514 269.285C356.496 269.222 356.523 269.142 356.532 269.061C358.224 270.218 359.454 271.626 359.671 273.787C359.843 275.571 361.1 276.665 362.584 277.499C364.7 278.709 367.016 279.427 369.332 280.144Z" fill="#FCA983"/>
<path d="M200.895 232.737C201.158 232.307 200.914 231.867 200.868 231.455C200.624 229.025 200.525 226.595 200.371 224.165C200.208 221.565 200.271 218.982 200.271 216.391C200.271 216.337 200.353 216.283 200.407 216.22C200.19 218.776 200.814 221.224 201.357 223.69C201.99 226.577 202.65 229.455 203.311 232.414C202.596 233.06 201.71 232.692 200.895 232.737Z" fill="#3AADED"/>
<path d="M232.998 312.424C232.998 311.742 232.998 311.052 232.998 310.371C234.165 310.048 235.087 309.295 236.119 308.721C236.734 308.38 237.295 307.959 237.946 307.681C238.082 309.734 238.082 309.725 236.281 310.756C235.504 311.195 234.753 311.68 233.957 312.101C233.667 312.245 233.414 312.603 232.998 312.424Z" fill="#2789FB"/>
<path d="M355.311 342.005C355.392 343.117 355.193 344.238 355.438 345.35C355.944 347.645 357.464 349.214 359.291 350.523C361.706 352.245 364.447 353.222 367.333 353.841C367.767 353.931 368.219 353.993 368.653 354.074C368.943 354.37 368.807 354.702 368.716 355.025C368.237 356.71 367.812 358.414 367.242 360.073C366.03 363.552 362.629 364.78 359.418 362.879C353.466 359.365 347.487 355.912 341.526 352.415C339.916 351.474 338.324 351.142 336.614 352.075C334.814 353.061 333.873 354.944 334.244 356.988C335.266 362.682 336.171 368.394 337.148 374.088C337.329 375.137 337.663 376.105 338.423 376.903C338.667 377.163 338.984 377.432 338.857 377.872C338.776 382.301 338.369 386.722 338.64 391.151C338.848 394.415 339.065 397.679 339.454 400.925C339.617 402.288 339.717 403.66 339.934 405.023C340.033 405.633 339.888 406.206 339.68 406.771C339.59 407.282 339.319 407.641 338.866 407.91C335.981 409.65 332.996 409.99 329.866 408.592C328.41 407.946 327.107 406.224 327.921 404.655C327.722 403.373 327.514 402.082 327.315 400.799C326.818 397.634 326.329 394.478 325.814 391.322C325.189 387.538 324.529 383.763 323.896 379.988C323.236 376.025 322.566 372.061 321.96 368.089C321.562 365.516 321.246 362.924 321.843 360.324C322.223 358.647 322.937 357.239 324.629 356.513C324.728 356.468 324.819 356.388 324.9 356.307C327.388 353.922 330.544 352.828 333.756 351.85C336.912 350.891 340.16 350.308 343.452 349.752C343.669 348.99 343.552 348.201 343.715 347.439C344.339 344.354 346.257 342.552 349.242 341.763C350.824 341.341 352.453 341.467 354.072 341.521C354.542 341.53 354.886 341.87 355.311 342.005Z" fill="#18388E"/>
<path d="M159.503 305.645C161.583 306.73 163.609 307.914 165.635 309.097C166.884 309.833 168.159 310.532 169.426 311.249C171.108 312.2 172.79 313.159 174.473 314.119C176.219 315.114 177.964 316.109 179.701 317.114C181.158 317.947 182.605 318.781 184.061 319.624C185.897 320.682 187.725 321.74 189.561 322.789C191.198 323.731 192.844 324.663 194.572 325.659C193.767 326.215 192.917 326.098 192.148 326.268C190.095 326.708 187.978 326.564 185.916 326.815C184.052 327.04 182.261 326.744 180.452 326.672C177.684 326.564 174.952 325.91 172.284 325.112C170.222 324.493 168.195 323.731 166.296 322.7C163.465 321.166 161.031 319.185 159.249 316.486C158.661 315.589 158.191 314.621 158.137 313.509C157.35 311.375 157.712 309.33 158.643 307.34C158.915 306.757 159.222 306.201 159.503 305.645Z" fill="#E1ECFE"/>
<path d="M237.747 373.352C237.53 373.03 237.512 372.662 237.512 372.285C237.521 365.193 237.521 358.1 237.521 350.999C237.521 350.783 237.467 350.55 237.675 350.272C238.462 350.721 239.258 351.16 240.045 351.617C242.333 352.944 244.604 354.298 246.919 355.572C247.489 355.885 247.462 356.289 247.462 356.782C247.462 362.754 247.462 368.735 247.462 374.706C247.462 375.899 247.471 377.092 247.48 378.293C247.408 378.939 247.082 378.75 246.711 378.535C245.427 377.791 244.133 377.056 242.849 376.311C241.148 375.325 239.448 374.339 237.747 373.352Z" fill="#7BADFE"/>
<path d="M327.93 404.646C327.949 404.834 327.985 405.023 327.967 405.202C327.867 406.753 328.681 407.74 330.029 408.305C331.576 408.95 333.15 409.273 334.895 409.049C336.397 408.852 337.618 408.152 338.912 407.516C339.283 407.336 339.436 407.022 339.69 406.762C340.07 408.78 340.449 410.788 340.811 412.806C340.875 413.174 340.856 413.55 340.875 413.927C339.5 416.402 337.121 417.477 334.271 416.931C333.575 416.796 332.878 416.688 332.191 416.473C331.169 416.15 330.255 415.648 329.531 414.859C328.79 414.043 327.894 413.443 326.908 412.958C324.855 411.945 322.829 410.896 320.766 409.928C319.5 409.336 318.957 408.278 318.731 407.04C318.632 406.493 318.514 405.946 318.451 405.399C318.559 404.297 318.993 403.427 320.061 402.916C321.228 402.351 322.386 402.153 323.625 402.629C324.502 402.96 325.28 403.481 326.112 403.902C326.691 404.18 327.225 404.61 327.93 404.646Z" fill="#382747"/>
<path d="M412.099 183.896C411.828 182.631 411.385 181.403 411.285 180.094C411.186 178.803 411.321 177.556 411.936 176.417C412.959 174.525 414.94 173.996 417.201 174.938C419.354 175.826 420.955 177.368 422.285 179.224C423.904 181.484 424.899 183.985 425.17 186.738C425.279 187.859 425.08 188.971 424.627 190.002C423.84 191.768 422.067 192.548 420.159 192.055C418.142 191.535 416.622 190.316 415.256 188.845C414.125 187.626 413.293 186.209 412.506 184.765C412.117 184.595 412.063 184.263 412.099 183.896Z" fill="#FF823C"/>
<path d="M412.099 183.896C412.416 184.111 412.289 184.514 412.506 184.774C409.974 185.007 407.441 185.232 404.908 185.474C403.352 185.626 401.86 185.375 400.367 184.963C398.034 184.317 395.673 183.752 393.339 183.116C392.832 182.981 392.498 183.089 392.118 183.411C390.643 184.622 389.151 185.797 387.622 187.025C384.501 185.554 381.408 184.102 378.251 182.613C375.619 188.092 373.014 193.526 370.408 198.933C369.929 198.906 369.793 198.565 369.612 198.305C368.011 195.974 366.365 193.66 364.845 191.275C364.113 190.127 363.036 189.392 362.068 188.531C360.974 187.572 359.834 186.657 358.658 185.797C357.944 185.276 357.419 184.622 356.931 183.923C355.293 181.609 353.665 179.287 352.037 176.973C351.512 176.229 351.503 176.229 350.59 176.516C346.61 177.789 342.63 179.081 338.65 180.345C337.266 180.784 336.135 181.663 334.905 182.362C333.602 183.098 332.336 183.887 331.115 184.622C330.653 184.559 330.472 184.254 330.237 184.012C328.293 182.04 326.357 180.058 324.421 178.076C323.788 177.431 323.381 176.624 322.901 175.87C321.391 173.476 319.898 171.082 318.37 168.634C315.475 170.105 312.653 171.54 309.822 172.974C309.451 172.598 309.17 172.293 309.776 171.988C312.68 170.517 315.584 169.056 318.487 167.585C318.55 167.558 318.632 167.585 318.804 167.585C319.744 169.083 320.721 170.625 321.689 172.158C322.657 173.701 323.625 175.252 324.602 176.803C324.783 177.09 324.955 177.386 325.19 177.619C327.153 179.574 329.143 181.51 331.169 183.501C332.345 182.811 333.548 182.138 334.715 181.403C336.234 180.443 337.799 179.619 339.545 179.081C343.643 177.825 347.722 176.489 351.892 175.153C352.752 176.373 353.611 177.583 354.461 178.794C355.682 180.533 356.903 182.273 358.116 184.012C358.622 184.73 359.4 185.16 360.042 185.716C361.453 186.935 362.946 188.065 364.402 189.24C364.692 189.473 364.918 189.769 365.126 190.083C366.763 192.486 368.418 194.871 370.128 197.355C372.706 192.01 375.239 186.738 377.808 181.394C381.046 182.918 384.221 184.407 387.495 185.94C388.409 185.205 389.359 184.434 390.309 183.662C390.86 183.214 391.403 182.757 391.946 182.3C392.317 181.986 392.688 181.968 393.176 182.102C396.188 182.936 399.218 183.716 402.249 184.514C403.027 184.721 403.85 184.694 404.601 184.541C405.894 184.281 407.215 184.362 408.517 184.2C409.693 184.057 410.896 183.878 412.099 183.896Z" fill="#16C2DB"/>
<path d="M404.654 235.777C404.636 235.346 404.392 235.015 404.211 234.647C401.127 228.541 398.042 222.434 394.976 216.31C394.704 215.772 394.343 215.315 393.981 214.84C394.722 214.194 395.645 213.853 396.459 213.324C397.12 212.903 397.319 212.975 397.698 213.656C398.223 214.598 398.721 215.557 399.209 216.516C401.95 221.923 404.682 227.33 407.413 232.737C407.431 232.773 407.45 232.8 407.468 232.836C407.992 233.885 407.974 233.983 406.925 234.557C406.174 234.97 405.487 235.499 404.654 235.777Z" fill="#61DF41"/>
<path d="M338.333 151.006C338.351 151.257 338.315 151.544 338.197 151.831C337.908 152.476 337.492 152.674 336.858 152.351C335.927 151.876 335.013 151.356 334.099 150.835C328.374 147.581 322.648 144.317 316.913 141.053C315.873 140.461 314.842 139.851 313.783 139.286C313.096 138.919 312.879 138.452 312.987 137.654C313.204 135.996 313.557 135.771 315.022 136.614C320.748 139.878 326.474 143.16 332.2 146.424C333.928 147.41 335.637 148.406 337.392 149.338C338.07 149.706 338.342 150.217 338.333 151.006Z" fill="#1CE4FD"/>
<path d="M337.22 135.646C337.22 135.888 337.247 136.085 337.22 136.265C337.103 137.045 336.46 137.403 335.755 137.027C334.308 136.247 332.887 135.404 331.458 134.588C327.261 132.194 323.073 129.8 318.876 127.406C317.121 126.401 315.366 125.388 313.63 124.366C312.644 123.783 312.345 122.68 312.87 121.703C313.087 121.29 313.63 121.192 314.272 121.523C315.068 121.936 315.846 122.384 316.624 122.833C321.436 125.585 326.239 128.329 331.051 131.082C332.806 132.086 334.534 133.135 336.316 134.104C336.994 134.48 337.338 134.938 337.22 135.646Z" fill="#1AE4FD"/>
<path d="M313.005 143.644C313.005 143.375 312.987 143.187 313.005 142.999C313.086 142.102 313.692 141.779 314.488 142.21C315.411 142.712 316.316 143.241 317.229 143.761C322.729 146.89 328.229 150.037 333.746 153.149C334.533 153.588 334.75 154.198 334.696 154.996C334.615 156.189 333.945 156.592 332.905 156.009C330.02 154.404 327.152 152.781 324.285 151.149C320.866 149.204 317.455 147.24 314.018 145.321C313.294 144.909 312.815 144.46 313.005 143.644Z" fill="#1CE4FD"/>
<path d="M328.654 157.3C328.636 157.525 328.663 157.758 328.609 157.964C328.428 158.663 327.786 158.959 327.144 158.61C325.443 157.668 323.761 156.709 322.069 155.749C319.672 154.386 317.266 153.014 314.869 151.642C314.444 151.4 314.009 151.176 313.611 150.916C312.942 150.468 312.662 149.114 313.069 148.423C313.412 147.85 313.756 147.715 314.362 148.047C315.683 148.755 316.976 149.49 318.27 150.226C320.676 151.589 323.073 152.961 325.47 154.323C326.149 154.709 326.818 155.122 327.533 155.453C328.365 155.83 328.781 156.395 328.654 157.3Z" fill="#2793CD"/>
<path d="M320.486 134.973C320.504 135.467 320.541 135.915 320.133 136.256C319.79 136.543 319.473 136.677 319.021 136.408C317.212 135.35 315.385 134.31 313.557 133.288C313.186 133.081 313.006 132.812 312.997 132.4C312.997 132.104 312.969 131.808 312.942 131.512C312.87 130.517 313.521 130.024 314.426 130.463C315.439 130.956 316.398 131.548 317.375 132.095C318.089 132.499 318.786 132.956 319.518 133.315C320.278 133.673 320.586 134.22 320.486 134.973Z" fill="#1CE4FD"/>
<path d="M320.006 120.125C319.925 121.766 319.418 122.026 317.853 121.12C316.424 120.295 314.995 119.488 313.566 118.654C312.716 118.161 312.372 117.04 312.779 116.143C312.996 115.65 313.457 115.462 313.982 115.659C314.19 115.74 314.38 115.865 314.579 115.973C316.135 116.861 317.691 117.775 319.265 118.645C319.825 118.968 320.07 119.398 320.006 120.125Z" fill="#FCFCFC"/>
<path d="M338.858 377.854C338.505 377.468 338.125 377.101 337.808 376.688C337.22 375.935 336.967 375.038 336.822 374.124C336.415 371.532 335.918 368.959 335.511 366.367C335.113 363.848 334.633 361.346 334.289 358.818C334.163 357.903 333.864 357.024 333.846 356.083C333.792 352.568 337.763 350.021 340.802 351.689C342.774 352.765 344.701 353.913 346.637 355.034C349.993 356.988 353.348 358.952 356.704 360.916C357.672 361.481 358.658 362.028 359.59 362.637C362.466 364.529 366.175 362.924 366.926 360.019C367.45 358.019 368.065 356.047 368.644 354.056C370.019 349.465 371.358 344.865 372.76 340.283C374.235 335.45 375.691 330.617 377.491 325.892C377.771 325.157 378.052 324.421 378.775 323.982C380.729 324.529 381.95 325.811 382.683 327.658C383.606 330.008 384.049 332.473 384.429 334.93C384.7 336.67 384.827 338.454 384.99 340.212C385.415 344.776 385.523 349.358 385.324 353.922C385.243 355.868 385.37 357.849 384.972 359.795C384.782 360.727 384.863 361.705 384.745 362.664C384.474 364.897 384.221 367.121 383.841 369.335C383.398 371.945 382.9 374.545 382.213 377.101C381.489 379.773 380.621 382.4 379.436 384.911C379.056 385.709 378.658 386.507 378.251 387.296C377.129 389.466 375.709 391.393 373.945 393.088C373.638 393.384 373.176 393.608 373.167 394.137C369.522 393.671 366.057 392.604 362.683 391.196C362.475 391.106 362.285 390.999 362.05 391.017C360.91 390.936 360.087 390.165 359.156 389.654C355.736 387.744 352.299 385.852 348.925 383.852C348.726 383.646 348.645 383.368 348.355 383.207C345.198 381.44 342.032 379.638 338.858 377.854Z" fill="#3AADEE"/>
<path d="M380.449 394.442C379.943 394.899 379.273 394.433 378.667 394.774C378.667 401.445 378.667 408.152 378.667 415.065C377.138 414.205 375.764 413.425 374.343 412.627C374.343 412.331 374.343 412.035 374.343 411.739C374.343 406.323 374.343 400.916 374.343 395.5C374.343 395.061 374.443 394.595 374.099 394.218C375.194 394.505 376.315 394.397 377.428 394.415C378.432 394.433 379.445 394.433 380.449 394.442Z" fill="#7BADFE"/>
<path d="M351.114 414.527C351.666 416.195 352.462 417.693 353.592 419.065C355.383 421.252 357.672 422.714 360.123 424.023C362.801 425.449 365.686 426.238 368.617 426.928C372.443 427.834 376.315 427.888 380.213 427.816C385.179 427.717 389.928 426.65 394.496 424.687C396.115 423.987 397.653 423.135 399.064 422.131C401.823 420.176 403.949 417.684 404.754 414.124C405.007 415.039 404.754 415.765 404.654 416.5C404.383 418.428 403.732 420.203 402.601 421.799C401.687 423.091 400.52 424.131 399.281 425.09C395.799 427.771 391.773 429.296 387.513 430.201C386.183 430.488 384.817 430.685 383.433 430.784C381.724 430.91 379.996 431.232 378.314 431.116C375.609 430.927 372.895 430.874 370.209 430.336C367.911 429.878 365.641 429.34 363.434 428.632C361.887 428.13 360.431 427.35 358.983 426.579C357.554 425.825 356.261 424.866 355.103 423.79C353.556 422.346 352.254 420.688 351.675 418.553C351.295 417.226 350.996 415.917 351.114 414.527Z" fill="#ACCCFB"/>
<path d="M340.838 393.061C341.119 391.232 343.081 389.941 345.081 390.282C345.895 390.425 346.636 390.775 347.351 391.178C348.255 391.68 349.151 392.227 350.128 392.604C350.653 392.819 350.653 393.303 350.653 393.743C350.644 394.541 351.023 395.097 351.693 395.473C353.972 396.755 356.306 397.285 358.875 396.244C359.942 395.814 360.919 395.168 362.05 394.881C362.367 396.37 362.692 397.858 362.882 399.472C359.969 400.683 357.192 402.109 354.886 404.296C353.52 404.799 352.706 403.803 351.838 403.104C351.087 402.494 350.363 401.858 349.513 401.364C347.568 400.217 345.46 399.419 343.452 398.405C341.86 397.598 340.874 396.415 340.684 394.612C340.639 394.057 340.657 393.563 340.838 393.061Z" fill="#382747"/>
<path d="M362.051 394.864C361.58 395.357 361.001 395.697 360.377 395.957C359.635 396.271 358.848 396.504 358.125 396.872C357.799 397.042 357.437 397.132 357.039 397.096C355.493 396.962 353.937 396.962 352.471 396.262C351.811 395.949 351.304 395.5 350.735 395.097C350.391 394.846 350.355 394.496 350.364 394.101C350.373 393.59 350.454 393.052 350.138 392.586C350.138 391.053 349.803 389.555 349.586 388.049C349.387 386.65 349.17 385.251 348.962 383.852C349.287 383.53 349.513 383.879 349.731 383.996C352.498 385.547 355.257 387.125 358.025 388.685C359.065 389.277 360.115 389.833 361.155 390.425C361.481 390.604 361.779 390.82 362.087 391.017C362.141 391.68 362.123 392.344 362.295 392.998C362.458 393.662 362.06 394.236 362.051 394.864Z" fill="#14347C"/>
<path d="M340.838 393.061C340.829 393.886 340.992 394.684 341.191 395.482C341.426 396.424 341.951 397.141 342.819 397.661C343.914 398.316 345.08 398.827 346.229 399.365C347.695 400.046 349.115 400.79 350.526 401.58C351.132 401.92 351.539 402.467 352.046 402.907C352.869 403.606 353.683 404.341 354.886 404.296C354.497 404.628 354.108 404.96 353.647 405.355C352.588 404.996 351.693 404.135 350.725 403.4C348.771 401.92 346.709 400.737 344.266 400.226C342.891 399.939 341.824 399.141 341.209 397.831C340.874 397.132 340.522 396.46 340.323 395.679C340.078 394.675 340.268 393.85 340.838 393.061Z" fill="#94A3BF"/>
<path d="M247.543 162.923C248.14 162.797 248.574 162.851 249.081 163.156C251.876 164.797 254.716 166.357 257.53 167.962C260.279 169.531 263.011 171.118 265.752 172.705C266.367 173.064 266.756 174.131 266.421 174.723C266.249 175.028 265.924 175.279 265.481 175.028C264.766 174.624 264.042 174.247 263.328 173.844C259.248 171.531 255.169 169.208 251.089 166.886C250.32 166.446 249.56 165.98 248.792 165.541C247.118 164.572 247.453 164.868 247.543 162.923Z" fill="#ACCCFB"/>
<path d="M252.997 181.044C253.685 181.161 254.011 181.493 254.011 182.246C254.011 183.725 254.083 183.779 255.413 184.568C255.874 184.398 256.055 184.03 256.046 183.537C256.037 182.793 256.073 182.04 256.037 181.295C256.01 180.73 255.838 180.21 255.422 179.78C254.653 178.982 254.336 179.027 253.848 180.076C253.269 179.834 252.762 179.556 252.934 178.785C253.224 177.458 253.079 176.113 253.142 174.776C253.151 174.552 253.106 174.328 253.251 174.131C253.486 173.987 253.676 174.095 253.875 174.212C254.716 174.696 255.557 175.189 256.417 175.646C256.996 175.951 257.068 176.373 256.842 176.964C255.919 176.651 255.232 175.951 254.264 175.691C254.282 176.543 253.947 177.323 254.083 178.184C254.454 178.471 254.951 178.184 255.349 178.435C255.964 178.829 256.489 179.296 256.733 179.995C257.285 181.537 257.231 183.116 257.032 184.721C256.887 185.868 256.091 186.021 255.123 185.563C253.757 184.927 253.124 183.707 252.916 182.273C252.862 181.878 252.817 181.457 252.997 181.044Z" fill="#FAFCFC"/>
<path d="M249.578 182.12C249.162 182.192 248.936 181.905 248.556 181.753C248.899 180.542 249.216 179.376 249.56 178.211C249.949 176.893 250.329 175.575 250.754 174.274C250.898 173.835 250.826 173.584 250.419 173.369C249.668 172.956 248.917 172.517 248.194 172.06C247.723 171.764 247.742 171.746 247.868 170.957C248.248 170.849 248.501 171.118 248.791 171.271C249.578 171.71 250.347 172.176 251.125 172.616C252.038 173.136 252.246 173.423 251.966 174.418C251.269 176.911 250.491 179.385 249.741 181.869C249.714 181.977 249.632 182.048 249.578 182.12Z" fill="#FAFCFC"/>
<path d="M247.452 159.551C247.452 158.35 247.95 158.045 248.918 158.592C250.085 159.255 251.242 159.928 252.4 160.6C253.07 160.986 253.35 161.811 253.079 162.501C252.871 163.012 252.427 163.165 251.903 162.869C250.609 162.133 249.334 161.362 248.013 160.663C247.461 160.367 247.434 159.946 247.452 159.551Z" fill="#FCFDFC"/>
<path d="M257.909 179.887C257.964 179.296 257.81 178.587 258 177.888C258.226 177.054 258.651 176.857 259.384 177.296C259.936 177.628 260.415 178.112 260.551 178.749C260.813 179.986 260.894 181.25 260.714 182.506C260.677 182.766 260.632 183.017 260.614 183.277C260.542 184.183 259.918 184.487 259.167 183.958C258.353 183.376 257.982 182.542 257.918 181.573C257.882 181.044 257.909 180.515 257.909 179.887Z" fill="#F4F9FC"/>
<path d="M262.794 183.716C264.069 183.662 265.046 184.434 265.1 185.617C265.164 187.025 265.146 188.442 265.11 189.858C265.091 190.647 264.639 190.863 263.888 190.513C263.201 190.19 262.74 189.652 262.613 188.917C262.314 187.231 262.269 185.537 262.676 183.851C262.685 183.824 262.722 183.797 262.794 183.716Z" fill="#F6FAFD"/>
<path d="M259.971 188.173C259.492 188.074 259.392 187.859 259.609 187.384C260.297 185.859 260.939 184.326 261.599 182.793C262.07 181.708 262.549 180.632 263.056 179.466C263.445 179.681 263.779 179.762 263.544 180.291C262.405 182.864 261.283 185.447 260.152 188.029C260.134 188.083 260.044 188.119 259.971 188.173Z" fill="#F8FBFC"/>
<path d="M365.542 123.146C368.283 125.576 369.956 128.643 370.942 132.104C371.512 134.095 371.666 136.13 371.159 138.166C370.454 140.99 368.093 142.38 365.243 141.672C362.711 141.035 360.757 139.511 359.12 137.556C358.993 136.668 359.355 135.978 360.015 135.404C360.675 135.386 360.983 135.915 361.39 136.283C362.439 137.233 363.588 137.986 365.035 138.166C366.691 138.372 367.821 137.672 368.319 136.085C369.106 133.566 368.183 131.306 367.125 129.091C366.627 128.042 365.877 127.137 365.126 126.249C364.864 125.935 364.538 125.666 364.466 125.227C364.637 124.438 364.818 123.648 365.542 123.146Z" fill="#FCB813"/>
<path d="M360.096 135.476C359.689 136.13 359.418 136.838 359.137 137.547C357.59 136.04 356.532 134.193 355.682 132.257C354.732 130.105 354.108 127.845 354.253 125.46C354.352 123.846 354.723 122.312 355.944 121.102C356.668 120.385 357.518 120.017 358.549 119.972C361.444 119.838 363.633 121.183 365.55 123.155C365.234 123.846 364.917 124.536 364.601 125.236C364.085 125.316 363.75 124.976 363.398 124.716C362.846 124.312 362.24 124.025 361.597 123.801C359.155 122.985 357.446 124.169 357.229 126.733C357.011 129.414 357.997 131.701 359.372 133.897C359.671 134.391 360.177 134.803 360.096 135.476Z" fill="#F0F0F0"/>
<path d="M389.006 144.29C389.024 145.079 388.635 145.357 387.938 145.034C387.432 144.801 386.952 144.496 386.464 144.218C382.855 142.147 379.246 140.075 375.636 138.013C375.139 137.726 374.669 137.484 374.768 136.749C374.868 136.005 375.112 135.807 375.781 136.175C376.704 136.677 377.608 137.215 378.513 137.735C381.733 139.573 384.953 141.42 388.174 143.259C388.608 143.492 389.06 143.707 389.006 144.29Z" fill="#FBFCFC"/>
<path d="M386.771 145.751C386.699 146.262 387.034 146.89 386.527 147.222C386.012 147.554 385.568 146.998 385.152 146.756C382.945 145.518 380.765 144.236 378.567 142.972C377.473 142.344 376.36 141.734 375.266 141.098C374.795 140.829 374.596 139.977 374.904 139.555C375.112 139.268 375.392 139.251 375.7 139.421C376.351 139.789 377.002 140.138 377.654 140.506C380.177 141.941 382.701 143.375 385.216 144.819C385.731 145.124 386.238 145.429 386.771 145.751Z" fill="#57AEFA"/>
<path d="M383.081 148.854C380.277 147.249 377.536 145.689 374.841 144.146C374.741 143.662 374.759 143.259 374.823 142.81C375.248 142.577 375.619 142.658 376.044 142.909C378.233 144.182 380.431 145.438 382.629 146.693C383.732 147.321 383.832 147.67 383.081 148.854Z" fill="#97C6FC"/>
<path d="M379.056 135.35C379.056 136.13 378.649 136.408 377.971 136.049C377.012 135.547 376.089 134.982 375.167 134.418C374.805 134.193 374.633 133.368 374.841 133.019C375.031 132.696 375.366 132.678 375.628 132.821C376.677 133.386 377.708 133.987 378.73 134.597C379.002 134.758 379.092 135.054 379.056 135.35Z" fill="#F9FBFC"/>
<path d="M172.637 190.872C172.511 192.629 173.677 193.624 174.935 194.44C177.458 196.072 180.299 196.467 183.248 196.234C184.351 196.144 185.229 195.534 185.853 194.647C186.341 193.956 186.251 193.176 186.061 192.387C185.952 191.966 185.645 191.58 185.789 191.105C186.242 191.015 186.694 190.925 187.155 190.836C188.648 191.186 190.149 191.481 191.606 192.136C191.958 194.261 192.004 196.431 191.732 198.556C191.19 202.672 190.484 206.77 189.851 210.876C189.797 211.244 189.778 211.621 189.751 211.988C189.272 212.49 189.163 211.952 189.082 211.701C188.349 209.316 187.598 206.931 187.056 204.492C186.929 203.945 187.101 203.38 187.173 202.824C187.3 201.775 186.006 199.982 184.984 199.749C184.822 199.713 184.659 199.722 184.568 199.838C183.989 200.618 183.429 201.425 183.23 202.394C183.157 202.753 183.528 202.986 183.781 203.183C185.03 204.142 185.382 205.434 185.382 206.931C185.391 209.424 185.581 211.916 185.771 214.4C185.826 215.153 186.052 215.96 185.509 216.66C184.496 215.144 183.456 213.647 182.479 212.105C179.43 207.272 175.704 202.995 171.669 198.969C170.349 197.65 169.082 196.288 167.716 194.862C169.363 193.445 170.946 192.1 172.637 190.872Z" fill="#E0E7F1"/>
<path d="M185.499 216.669C185.427 214.221 185.3 211.773 185.11 209.325C185.038 208.437 185.02 207.541 185.047 206.644C185.083 205.389 184.794 204.313 183.672 203.56C183.274 203.291 182.949 202.932 182.551 202.573C183.247 201.363 183.925 200.17 184.64 198.942C185.517 199.704 186.323 200.421 187.146 201.121C187.453 201.381 187.625 201.685 187.553 202.098C187.544 202.134 187.562 202.179 187.553 202.206C187.037 204.062 187.643 205.783 188.186 207.523C188.638 208.966 188.991 210.446 189.389 211.916C189.461 212.168 189.624 211.988 189.742 211.997C189.28 215.019 188.81 218.032 188.34 221.143C187.86 220.874 187.67 220.435 187.453 220.04C186.82 218.893 186.042 217.852 185.499 216.669Z" fill="#00A4FE"/>
<path d="M318.759 301.592C316.732 302.749 314.697 303.897 312.671 305.053C310.835 306.102 309.017 307.178 307.18 308.219C306.692 308.497 306.267 308.855 305.733 309.052C305.48 309.142 305.254 309.259 304.982 309.223C304.738 309.187 304.566 309.044 304.494 308.819C304.421 308.577 304.539 308.425 304.774 308.299C305.453 307.914 306.104 307.483 306.782 307.098C310.663 304.892 314.552 302.704 318.442 300.498C318.56 300.848 318.759 301.189 318.759 301.592Z" fill="#AECDFA"/>
<path d="M320.016 305.197C318.984 305.439 318.116 306.022 317.248 306.56C316.461 307.053 315.619 307.456 314.841 307.967C314.344 308.299 313.792 308.147 313.213 307.555C315.276 306.21 317.447 305.089 319.545 303.852C319.708 304.309 319.862 304.748 320.016 305.197Z" fill="#E1ECFE"/>
<path d="M319.365 303.412C318.569 303.87 317.764 304.327 316.968 304.784C316.362 305.125 315.873 305.053 315.267 304.435C316.425 303.565 317.709 302.937 318.958 302.265C319.193 302.614 319.319 303 319.365 303.412Z" fill="#E1ECFE"/>
<path d="M310.129 267.331C310.5 267.259 310.744 267.483 311.042 267.644C313.485 268.962 316.497 269.465 319.138 268.003C319.5 268.227 319.871 268.451 320.251 268.684C320.504 268.729 320.649 268.891 320.73 269.115C320.92 269.438 321.381 269.483 321.526 269.859C318.586 271.939 311.44 271.249 307.831 268.433C308.283 267.42 309.26 267.483 310.129 267.331Z" fill="#3FABFD"/>
<path d="M308.944 261.278C309.378 260.955 308.691 260.848 308.8 260.588C312.436 258.893 319.528 260.292 321.644 262.641C320.957 263.197 320.061 263.242 319.31 263.6C319.03 263.735 318.677 263.412 318.415 263.242C317.067 262.372 315.502 262.211 313.983 261.942C312.852 261.744 311.803 262.345 310.699 262.462C310.554 262.48 310.527 262.784 310.31 262.82C309.867 262.291 309.017 262.13 308.944 261.278Z" fill="#E1ECFE"/>
<path d="M308.944 261.278C309.161 261.619 309.505 261.825 309.821 262.058C310.065 262.246 310.4 262.408 310.319 262.82C308.772 263.672 308.51 265.035 309.604 266.488C309.74 266.676 310.228 266.739 309.912 267.142C309.088 267.698 308.229 268.147 307.18 268.021C306.031 267.151 305.461 265.923 305.181 264.587C305.063 264.004 305.298 263.349 305.624 262.829C306.013 262.22 306.438 261.637 307.08 261.233C307.949 260.686 308.057 260.659 308.944 261.278Z" fill="#3EAAFD"/>
<path d="M320.73 269.115C320.531 269.016 320.359 268.882 320.251 268.684C320.242 268.281 320.241 268.281 319.807 267.77C320.531 266.613 321.047 265.376 319.59 264.291C319.771 263.842 319.997 263.547 320.468 263.502C320.576 263.493 320.712 263.511 320.802 263.466C321.3 263.215 321.834 262.838 322.385 263.116C323.064 263.466 323.471 264.165 323.751 264.829C324.475 266.55 324.348 268.317 322.014 269.707C321.653 269.572 321.472 269.214 321.173 268.998C320.965 268.846 320.829 268.909 320.73 269.115Z" fill="#E1ECFE"/>
<path d="M307.171 268.021C308.139 267.904 308.989 267.42 309.903 267.142C309.975 267.205 310.057 267.268 310.129 267.331C309.442 267.86 308.474 267.833 307.822 268.433C307.614 268.281 307.325 268.254 307.171 268.021Z" fill="#E1ECFE"/>
<path d="M214.464 242.905C215.667 242.753 216.617 242.036 217.639 241.489C218.724 241.605 219.701 242.098 220.75 242.331C221.537 242.511 222.333 242.735 223.084 243.04C223.862 243.354 224.468 243.138 225.119 242.744C226.775 241.749 228.466 240.807 230.113 239.803C230.728 239.426 231.18 239.552 231.732 239.919C232.962 240.726 233.686 241.892 233.821 243.273C233.921 244.214 233.505 245.147 232.808 245.891C231.506 247.281 229.841 248.016 228.023 248.465C226.187 248.922 224.278 249.092 222.433 248.877C219.783 248.572 217.214 247.837 215.405 245.649C214.744 244.869 214.401 243.945 214.464 242.905Z" fill="#05CBFE"/>
<path d="M218.054 240.601C218.054 240.099 218.063 239.597 218.063 239.094C218.787 238.799 219.483 238.44 220.225 238.234C223.418 237.328 226.53 237.525 229.623 238.969C229.298 239.444 228.8 239.525 228.402 239.758C227.317 240.404 226.24 241.067 225.155 241.713C224.395 242.161 223.635 242.322 222.722 242C221.202 241.453 219.61 241.058 218.054 240.601Z" fill="#B390FD"/>
<path d="M242.948 245.936C242.785 246.402 242.459 246.573 242.125 246.752C238.271 248.931 234.409 251.083 230.61 253.36C229.434 254.069 228.213 254.723 227.001 255.369C226.693 255.53 226.368 255.817 225.96 255.53C225.789 255.405 225.517 255.378 225.544 255.073C225.562 254.822 225.707 254.652 225.924 254.562C227.444 253.925 228.81 253.02 230.23 252.204C233.884 250.115 237.53 247.989 241.175 245.882C241.899 245.461 242.197 245.461 242.948 245.936Z" fill="#AECDFB"/>
<path d="M246.593 248.07C245.906 248.761 245.01 249.137 244.196 249.612C241.51 251.173 238.796 252.706 236.101 254.257C235.386 254.67 235.087 254.652 234.391 254.096C234.807 253.343 235.63 253.118 236.3 252.733C239.158 251.074 242.043 249.451 244.92 247.81C245.535 247.451 245.933 247.505 246.593 248.07Z" fill="#08CCFC"/>
<path d="M245.019 247.173C244.296 247.909 243.355 248.142 242.586 248.644C241.193 249.559 239.71 250.33 238.253 251.155C237.928 251.343 237.575 251.451 237.186 251.397C236.897 251.352 236.698 251.217 236.634 250.93C236.571 250.644 236.77 250.554 236.978 250.437C238.299 249.675 239.61 248.913 240.922 248.142C241.655 247.711 242.396 247.281 243.129 246.86C243.988 246.366 244.178 246.393 245.019 247.173Z" fill="#E1ECFE"/>
<path d="M303.345 302.516C300.658 302.48 298.261 302.166 296.136 300.839C294.96 300.104 293.901 299.234 293.494 297.808C293.151 296.616 293.621 295.629 294.191 294.661C294.417 294.284 294.761 294.517 295.086 294.607C297.547 295.324 300.025 295.988 302.486 296.741C302.947 296.885 303.273 296.831 303.634 296.625C305.507 295.54 307.388 294.446 309.252 293.352C309.514 293.199 309.722 293.047 310.066 293.181C312.002 293.917 313.205 296.669 312.318 298.499C311.803 299.566 310.916 300.328 309.894 300.911C308.619 301.637 307.226 302.05 305.778 302.265C304.901 302.399 304.014 302.623 303.345 302.516Z" fill="#B290FE"/>
<path d="M295.901 293.863C297.339 291.388 304.241 290.187 308.492 292.643C308.121 293.038 307.614 293.199 307.189 293.459C306.032 294.15 304.856 294.795 303.707 295.495C303.182 295.818 302.703 295.836 302.115 295.656C300.052 295.029 297.981 294.464 295.901 293.863Z" fill="#FE5668"/>
<path d="M302.223 238.637C302.223 239.148 302.223 239.659 302.223 240.17C302.142 240.493 301.898 240.664 301.626 240.798C299.98 241.578 298.352 242.457 296.434 242.34C295.837 242.044 295.204 242.053 294.562 242.134C291.016 242.574 287.524 242.287 284.069 241.417C282.748 241.085 281.527 240.511 280.315 239.919C280.007 239.767 279.718 239.597 279.591 239.256C279.437 238.574 279.356 237.902 279.772 237.274C279.646 236.763 279.112 236.709 278.777 236.44C277.366 235.311 275.955 234.199 275.485 232.334C275.476 231.311 276.109 230.594 276.742 229.922C278.542 228.021 280.812 226.837 283.291 226.147C289.813 224.326 296.199 224.533 302.35 227.617C303.679 228.496 305.027 229.366 305.95 230.693C306.384 231.311 306.936 231.912 306.746 232.773C307.035 233.472 306.637 234.028 306.339 234.602C305.525 236.171 304.168 237.194 302.73 238.126C302.531 238.261 302.25 238.323 302.223 238.637Z" fill="#ACCCFB"/>
<path d="M302.377 227.868C300.658 227.151 298.958 226.362 297.113 225.985C291.423 224.828 285.86 224.999 280.532 227.581C278.352 228.639 276.561 230.101 275.485 232.325C274.842 231.132 274.987 229.913 275.439 228.711C276.018 227.16 277.104 226.039 278.415 225.035C280.731 223.268 283.399 222.372 286.195 221.869C287.868 221.565 289.596 221.269 291.314 221.385C294.887 221.618 298.451 222.004 301.662 223.797C302.205 224.102 302.63 224.057 303.2 223.708C305.027 222.578 306.927 221.547 308.781 220.489C309.116 220.758 308.935 221.08 308.998 221.358C307.099 222.65 305.045 223.663 303.092 224.855C302.856 224.999 302.504 225.035 302.449 225.393C302.838 226.227 303.019 227.061 302.377 227.868Z" fill="#CB096A"/>
<path d="M279.763 237.265C279.772 237.938 279.79 238.619 279.799 239.292C278.858 240.475 277.402 240.897 276.208 241.704C275.258 242.349 274.101 242.681 273.359 243.623C273.241 244.017 273.413 244.555 272.825 244.735C271.052 243.659 269.406 242.448 268.067 240.843C266.349 238.781 265.363 236.494 265.525 233.777C265.553 233.293 265.553 232.809 265.562 232.325C265.869 232.621 265.887 233.042 266.014 233.419C266.502 234.934 267.344 236.225 268.456 237.355C269.56 238.476 270.672 239.57 272.011 240.422C272.699 240.861 273.25 240.986 274.046 240.502C275.919 239.363 277.782 238.216 279.763 237.265Z" fill="#CB096A"/>
<path d="M296.57 242.242C298.551 241.802 300.459 241.184 302.223 240.17C304.204 241.3 306.176 242.448 308.175 243.542C308.763 243.865 309.098 244.241 309.043 244.914C307.063 246.151 304.901 246.958 302.657 247.586C301.545 247.9 300.423 248.169 299.301 248.456C298.867 248.106 298.976 247.604 298.931 247.138C298.614 245.766 297.61 244.761 297.013 243.551C296.805 243.138 296.371 242.789 296.57 242.242Z" fill="#FDBC3C"/>
<path d="M299.22 246.913C299.247 247.424 299.275 247.945 299.302 248.456C298.343 248.59 297.393 248.761 296.434 248.859C295.285 248.985 294.137 249.092 292.979 249.137C291.93 249.182 290.871 249.182 289.822 249.146C286.394 249.021 283.011 248.563 279.709 247.595C277.303 246.895 274.996 245.99 272.834 244.734C273.278 244.331 272.907 243.766 273.115 243.318C273.685 243.067 274.137 243.398 274.598 243.632C278.759 245.739 283.21 246.635 287.823 247.075C291.197 247.398 294.508 247.102 297.827 246.734C298.307 246.68 298.795 246.528 299.22 246.913Z" fill="#7974F4"/>
<path d="M313.503 330.079C310.835 331.64 308.175 333.2 305.507 334.76C304.096 335.585 302.675 336.401 301.264 337.217C298.904 335.979 296.398 335.029 293.974 333.917C290.455 332.312 286.945 330.68 283.372 329.192C283.038 329.048 282.658 328.923 282.522 328.51C283.671 327.56 285.037 326.968 286.303 326.206C288.619 324.816 290.989 323.498 293.341 322.171C294.019 321.794 294.715 321.462 295.412 321.104C295.909 320.817 296.335 321.059 296.787 321.265C301.861 323.614 307.008 325.775 312.101 328.071C312.58 328.286 313.078 328.474 313.503 328.788C314.082 329.219 314.227 329.658 313.503 330.079Z" fill="#A7EAF3"/>
<path d="M282.522 328.51C284.629 329.479 286.8 330.303 288.89 331.308C291.522 332.563 294.245 333.657 296.904 334.868C298.152 335.441 299.401 336.006 300.676 336.508C301.002 336.634 301.309 336.777 301.264 337.208C300.133 337.62 299.211 338.4 298.161 338.956C296.714 339.718 295.321 340.615 293.919 341.467C293.259 341.862 292.662 341.781 292.02 341.404C289.885 340.167 287.741 338.947 285.606 337.719C282.983 336.213 280.36 334.706 277.737 333.2C277.221 332.904 276.696 332.626 276.244 332.231C276.516 331.711 277.022 331.478 277.465 331.245C279.103 330.384 280.686 329.425 282.305 328.528C282.359 328.501 282.449 328.519 282.522 328.51Z" fill="#6BE8F8"/>
<path d="M313.503 330.079C313.62 329.9 313.747 329.712 313.892 329.496C313.449 328.86 312.689 328.672 312.038 328.358C310.102 327.443 308.085 326.699 306.176 325.695C304.873 325.013 303.381 324.681 302.078 323.991C300.251 323.023 298.216 322.52 296.47 321.408C296.154 321.211 295.819 321.041 295.421 321.104C296.913 319.992 298.605 319.212 300.206 318.27C300.902 317.867 301.536 317.894 302.205 318.297C303.643 319.149 305.1 319.992 306.547 320.817C308.419 321.893 310.301 322.951 312.173 324.018C313.792 324.932 315.421 325.838 317.031 326.78C317.311 326.941 317.51 327.246 317.763 327.497C317.112 328.277 316.198 328.698 315.348 329.102C314.706 329.407 314.299 330.115 313.503 330.079Z" fill="#E1ECFE"/>
<path d="M302.377 227.868C302.395 227.043 302.422 226.209 302.441 225.384C304.023 226.218 305.236 227.456 306.267 228.872C306.9 229.742 306.963 230.791 307.153 231.787C307.226 232.163 307.063 232.504 306.755 232.755C306.194 230.998 304.964 229.778 303.517 228.72C303.128 228.442 302.649 228.299 302.377 227.868Z" fill="#3378CC"/>
<path d="M421.362 185.07C421.362 185.259 421.389 185.447 421.362 185.626C421.136 187.088 420.023 187.697 418.63 187.142C417.988 186.881 417.463 186.469 417.002 185.976C415.826 184.703 415.066 183.214 415.075 181.466C415.084 179.636 416.459 178.811 418.069 179.69C420.168 180.838 421.1 182.775 421.362 185.07Z" fill="#212973"/>
<path d="M258.768 178.049C259.546 178.103 259.881 178.444 259.89 178.973C259.926 180.372 259.899 181.779 259.899 183.205C259.13 183.313 258.795 182.936 258.777 182.362C258.741 180.964 258.768 179.556 258.768 178.049Z" fill="#58AFFA"/>
<path d="M264.422 189.688C263.671 189.832 263.327 189.446 263.309 188.944C263.255 187.464 263.291 185.976 263.291 184.416C264.006 184.532 264.385 184.909 264.404 185.456C264.458 186.864 264.422 188.28 264.422 189.688Z" fill="#59AFFA"/>
<path d="M360.096 135.476C358.712 133.655 357.572 131.71 357.075 129.459C356.776 128.105 356.713 126.724 357.174 125.388C357.789 123.595 359.336 122.859 361.199 123.335C362.511 123.666 363.551 124.447 364.601 125.218C365.786 126.509 366.907 127.845 367.649 129.459C368.4 131.1 368.933 132.786 368.888 134.606C368.87 135.431 368.68 136.22 368.273 136.946C367.595 138.139 366.455 138.677 365.071 138.488C363.515 138.273 362.285 137.475 361.154 136.462C360.792 136.148 360.44 135.807 360.096 135.476Z" fill="#2688FC"/>
<path d="M299.22 246.913C298.225 247.039 297.239 247.155 296.244 247.281C296.135 247.299 296.027 247.344 295.918 247.353C293.72 247.478 291.513 247.72 289.306 247.568C286.276 247.353 283.246 247.012 280.324 246.196C278.334 245.64 276.335 245.021 274.517 243.972C274.064 243.712 273.621 243.443 273.106 243.309C273.739 242.618 274.625 242.313 275.394 241.838C276.841 240.951 278.334 240.126 279.808 239.283C282.106 240.592 284.593 241.336 287.198 241.74C289.27 242.053 291.369 242.009 293.449 241.946C294.145 241.928 294.851 241.811 295.538 241.704C296.126 241.605 296.344 241.829 296.57 242.233C297.384 243.587 298.189 244.941 299.003 246.304C299.12 246.501 299.283 246.662 299.22 246.913Z" fill="#B290FE"/>
<defs>
<linearGradient id="paint0_linear" x1="254" y1="-326.085" x2="257.042" y2="1195.36" gradientUnits="userSpaceOnUse">
<stop offset="0.192811" stop-color="#1702FF"/>
<stop offset="0.467767" stop-color="#1E069D"/>
<stop offset="0.987763" stop-color="#250943"/>
</linearGradient>
</defs>
</svg>
